<svg xmlns="http://www.w3.org/2000/svg" width="506" height="299" fill="none" viewBox="0 0 506 299">
  <rect width="271" height="191" x="53.5" y=".5" fill="#2036A1" stroke="#2E51ED" rx="7.5"/>
  <circle cx="68.1" cy="14" r="4.1" fill="#fff"/>
  <circle cx="82.3" cy="14" r="4.1" fill="#fff"/>
  <circle cx="96.5" cy="14" r="4.1" fill="#fff"/>
  <path stroke="#fff" stroke-linecap="round" d="M54 27h270"/>
  <path fill="#14D8D4" fill-rule="evenodd" d="M82 47.5a9.5 9.5 0 0 0-19 0c0 5 3.864 9.1 8.77 9.472V47.5H82Z" clip-rule="evenodd"/>
  <circle cx="91.5" cy="47.5" r="9.5" fill="#14D8D4"/>
  <path fill="#fff" d="M152.142 13.587c0-.36.041-.69.123-.988a2.32 2.32 0 0 1 .369-.77 1.69 1.69 0 0 1 .585-.496c.231-.117.495-.176.791-.176a1.487 1.487 0 0 1 1.16.514V9.25h1.226V16h-1.103l-.062-.497a1.61 1.61 0 0 1-.527.431 1.533 1.533 0 0 1-.703.154c-.29 0-.551-.06-.782-.18a1.734 1.734 0 0 1-.58-.506 2.309 2.309 0 0 1-.369-.76 3.473 3.473 0 0 1-.128-.962v-.093Zm1.222.093c0 .199.016.385.048.558.035.17.091.318.167.444.076.128.174.23.295.303.12.073.266.11.439.11a.932.932 0 0 0 .523-.136.958.958 0 0 0 .334-.374V12.66a.932.932 0 0 0-.33-.373.92.92 0 0 0-.518-.137.828.828 0 0 0-.444.115.87.87 0 0 0-.295.303 1.506 1.506 0 0 0-.166.461 2.737 2.737 0 0 0-.053.558v.093Zm6.618 2.408c-.366 0-.699-.06-.998-.18a2.35 2.35 0 0 1-.769-.492 2.141 2.141 0 0 1-.496-.726 2.356 2.356 0 0 1-.172-.9v-.176c0-.364.057-.695.172-.993a2.3 2.3 0 0 1 .479-.778 2.16 2.16 0 0 1 .729-.506c.281-.12.588-.18.919-.18.342 0 .647.057.914.172.269.11.498.27.685.474.185.205.326.453.422.743.097.287.145.605.145.954v.518h-3.225v.013c.041.19.093.345.158.462a1.218 1.218 0 0 0 .641.536c.144.053.301.079.471.079.24 0 .473-.046.698-.136a1.29 1.29 0 0 0 .55-.409l.611.66c-.156.219-.402.418-.739.597-.337.178-.735.268-1.195.268Zm-.145-3.942a.934.934 0 0 0-.677.281c-.088.091-.161.2-.22.325a1.793 1.793 0 0 0-.131.422h2.003v-.096a.949.949 0 0 0-.263-.664.868.868 0 0 0-.303-.193 1.044 1.044 0 0 0-.409-.075Zm3.261 5.682v-6.583h1.129l.044.466c.064-.08.135-.15.211-.211a1.387 1.387 0 0 1 .593-.294c.129-.033.267-.049.413-.049.302 0 .569.059.8.176.232.114.426.277.585.488.158.214.276.47.356.769.082.296.123.624.123.984v.092c0 .346-.041.667-.123.963-.08.296-.197.55-.352.765a1.704 1.704 0 0 1-.585.51 1.665 1.665 0 0 1-.795.184c-.158 0-.305-.018-.439-.053a1.462 1.462 0 0 1-.37-.145 1.647 1.647 0 0 1-.369-.303v2.241h-1.221Zm3.032-4.254c0-.199-.019-.385-.057-.558a1.452 1.452 0 0 0-.167-.457.832.832 0 0 0-.743-.409 1.113 1.113 0 0 0-.496.11.797.797 0 0 0-.203.154.977.977 0 0 0-.145.215v1.987a.86.86 0 0 0 .326.365.883.883 0 0 0 .232.096c.088.02.186.03.295.03a.803.803 0 0 0 .439-.113.873.873 0 0 0 .299-.312c.076-.132.132-.284.167-.457.035-.176.053-.362.053-.559v-.092Zm2.61-4.324h2.659v5.757h1.362V16h-4.021v-.993h1.424v-4.76h-1.424V9.25Zm4.984 4.329c0-.346.049-.665.149-.958a2.2 2.2 0 0 1 .439-.77c.191-.216.424-.386.699-.51a2.34 2.34 0 0 1 .954-.184c.357 0 .675.062.953.185.279.123.515.293.708.51.19.216.335.473.435.769.1.293.149.612.149.958v.092c0 .349-.049.67-.149.967-.1.293-.245.547-.435.764-.19.217-.425.387-.703.51-.278.12-.595.18-.949.18-.358 0-.677-.06-.958-.18a1.997 1.997 0 0 1-.704-.51 2.207 2.207 0 0 1-.439-.764 3.003 3.003 0 0 1-.149-.967v-.092Zm1.221.092c0 .2.019.387.057.562.039.173.099.324.181.453a.917.917 0 0 0 .316.312c.132.076.29.114.475.114a.891.891 0 0 0 .461-.114.917.917 0 0 0 .316-.312c.08-.129.138-.28.176-.453.038-.175.057-.363.057-.562v-.092c0-.194-.019-.377-.057-.55a1.49 1.49 0 0 0-.176-.457.917.917 0 0 0-.316-.312.91.91 0 0 0-.47-.114.9.9 0 0 0-.466.114.917.917 0 0 0-.316.312 1.47 1.47 0 0 0-.181.457 2.553 2.553 0 0 0-.057.55v.092Zm5.102 4.25a1.881 1.881 0 0 1-.593-.088l.15-.932c.049 0 .112.001.188.004.08.006.143.01.189.01.097 0 .182-.032.255-.093.076-.059.141-.123.194-.194.052-.07.091-.123.114-.158.026-.035.057-.085.092-.15l.281-.522-2.012-4.553h1.336l1.09 2.786.131.484.181-.475 1.085-2.795h1.349l-2.412 5.467c-.053.12-.122.25-.207.391-.082.14-.186.271-.312.391s-.28.221-.461.303a1.522 1.522 0 0 1-.638.123Zm8.934-4.25h-3.66v-.989h3.66v.989Zm1.143 4.157v-6.583h1.129l.044.466c.065-.08.135-.15.211-.211.076-.065.159-.12.246-.167a1.686 1.686 0 0 1 .761-.176c.301 0 .568.059.799.176.232.114.427.277.585.488.158.214.277.47.356.769.082.296.123.624.123.984v.092c0 .346-.041.667-.123.963-.079.296-.196.55-.352.765a1.71 1.71 0 0 1-.584.51 1.671 1.671 0 0 1-.796.184c-.158 0-.304-.018-.439-.053a1.44 1.44 0 0 1-.369-.145 1.55 1.55 0 0 1-.369-.303v2.241h-1.222Zm3.032-4.254c0-.199-.019-.385-.057-.558a1.452 1.452 0 0 0-.167-.457.83.83 0 0 0-.743-.409 1.118 1.118 0 0 0-.496.11.792.792 0 0 0-.347.37v1.986a.996.996 0 0 0 .136.206.908.908 0 0 0 .189.159.876.876 0 0 0 .233.096c.088.02.186.03.294.03a.806.806 0 0 0 .739-.425c.076-.132.131-.284.167-.457.035-.176.052-.362.052-.559v-.092Zm5.77-2.417c.185 0 .355.013.51.04.158.023.286.05.382.079l-.18 1.217a3.87 3.87 0 0 0-.496-.083 3.94 3.94 0 0 0-.479-.031c-.159 0-.302.015-.431.044a1.176 1.176 0 0 0-.646.369c-.085.1-.155.217-.211.352V16h-1.222v-4.755h1.139l.048.673.009.105c.193-.27.424-.48.694-.633.269-.155.564-.233.883-.233Zm4.298 4.93c-.366 0-.699-.06-.997-.18a2.33 2.33 0 0 1-.769-.492 2.144 2.144 0 0 1-.497-.725 2.375 2.375 0 0 1-.171-.9v-.176c0-.364.057-.695.171-.993a2.3 2.3 0 0 1 .479-.778 2.16 2.16 0 0 1 .729-.506c.282-.12.588-.18.919-.18.343 0 .647.057.914.172.269.11.498.27.686.474.184.205.325.453.421.743.097.287.145.605.145.954v.518h-3.225v.013c.041.19.094.345.158.462a1.222 1.222 0 0 0 .642.536c.143.053.3.079.47.079.24 0 .473-.046.699-.136.225-.091.408-.227.549-.409l.611.66c-.156.219-.402.418-.739.597-.336.178-.735.268-1.195.268Zm-.145-3.941a.934.934 0 0 0-.677.281c-.088.091-.161.2-.219.325a1.748 1.748 0 0 0-.132.422h2.004v-.096a.95.95 0 0 0-.264-.664.868.868 0 0 0-.303-.193 1.04 1.04 0 0 0-.409-.075ZM207.834 16l-1.815-4.755h1.274l1.046 3.353.066.334.066-.334 1.042-3.353h1.274L208.981 16h-1.147Zm4.219-4.755h2.588v3.762h1.288V16h-3.876v-.993h1.353v-2.764h-1.353v-.998Zm1.265-1.217a.621.621 0 0 1 .194-.47.677.677 0 0 1 .219-.132.839.839 0 0 1 .29-.049c.217 0 .389.062.515.185.129.12.193.275.193.466 0 .19-.064.347-.193.47-.126.12-.298.18-.515.18a.84.84 0 0 1-.29-.048.64.64 0 0 1-.364-.339.7.7 0 0 1-.049-.263Zm6.122 6.06c-.366 0-.699-.06-.998-.18a2.35 2.35 0 0 1-.769-.492 2.141 2.141 0 0 1-.496-.726 2.356 2.356 0 0 1-.172-.9v-.176c0-.364.057-.695.172-.993a2.3 2.3 0 0 1 .479-.778 2.16 2.16 0 0 1 .729-.506c.282-.12.588-.18.919-.18.342 0 .647.057.914.172.269.11.498.27.685.474.185.205.326.453.422.743.097.287.145.605.145.954v.518h-3.225v.013c.041.19.093.345.158.462a1.218 1.218 0 0 0 .641.536c.144.053.301.079.471.079.24 0 .473-.046.698-.136a1.29 1.29 0 0 0 .55-.409l.611.66c-.156.219-.402.418-.739.597-.337.178-.735.268-1.195.268Zm-.145-3.942a.934.934 0 0 0-.677.281c-.088.091-.161.2-.22.325a1.793 1.793 0 0 0-.131.422h2.004v-.096a.95.95 0 0 0-.264-.664.868.868 0 0 0-.303-.193 1.044 1.044 0 0 0-.409-.075ZM222.89 16l-.853-4.755h1.116l.356 2.826.057.452.084-.452.514-2.826h.817l.515 2.813.083.452.062-.461.351-2.804h1.121L226.26 16h-1.072l-.523-2.54-.101-.483-.097.483-.505 2.54h-1.072Zm9.334-2.33h-3.661v-.988h3.661v.989Zm2.355-1.405h.664c.175 0 .326-.024.452-.07a.796.796 0 0 0 .312-.207.698.698 0 0 0 .163-.277 1.108 1.108 0 0 0 0-.703.7.7 0 0 0-.163-.273.746.746 0 0 0-.281-.171 1.128 1.128 0 0 0-.391-.062c-.123 0-.239.018-.347.053a.86.86 0 0 0-.277.15.696.696 0 0 0-.264.558h-1.221c0-.261.052-.498.158-.712.108-.214.256-.399.444-.554a2.09 2.09 0 0 1 .659-.356c.255-.085.529-.127.822-.127.316 0 .606.04.87.118.263.077.489.19.676.343.188.155.333.347.436.576.105.225.158.488.158.786a1.398 1.398 0 0 1-.242.787 1.65 1.65 0 0 1-.699.593c.179.065.333.147.462.246.132.1.24.213.325.339.085.129.148.27.189.422.041.152.061.313.061.483 0 .299-.057.566-.171.8-.114.234-.271.43-.47.589a2.106 2.106 0 0 1-.712.369 3.05 3.05 0 0 1-.883.123c-.273 0-.539-.037-.8-.11a2.14 2.14 0 0 1-.69-.343 1.695 1.695 0 0 1-.488-.567 1.717 1.717 0 0 1-.18-.808h1.222c0 .123.023.237.07.342.047.103.114.191.202.264a.949.949 0 0 0 .303.18c.117.041.246.062.387.062.158 0 .3-.022.426-.066a.826.826 0 0 0 .317-.193.712.712 0 0 0 .184-.282c.044-.11.066-.236.066-.373 0-.173-.025-.321-.075-.444a.753.753 0 0 0-.215-.303.948.948 0 0 0-.347-.176 1.614 1.614 0 0 0-.448-.057h-.664v-.95Zm7.418-2.716v1.015h-.07c-.323 0-.608.042-.857.127a1.817 1.817 0 0 0-.629.36 1.715 1.715 0 0 0-.417.559c-.1.217-.163.458-.189.725a2.04 2.04 0 0 1 .532-.413c.108-.056.227-.101.356-.136.129-.035.268-.053.417-.053.305 0 .57.058.796.176.228.114.418.27.571.465.152.2.265.431.338.695.076.26.114.536.114.826 0 .31-.049.6-.149.866-.1.266-.242.498-.426.694a2.007 2.007 0 0 1-.673.466 2.257 2.257 0 0 1-.887.167c-.343 0-.652-.063-.928-.19a2.022 2.022 0 0 1-.698-.53 2.4 2.4 0 0 1-.448-.8 3.208 3.208 0 0 1-.154-1.016v-.47c0-.507.069-.976.206-1.406.138-.434.343-.809.615-1.125a2.806 2.806 0 0 1 1.016-.734c.404-.179.871-.268 1.401-.268h.163Zm-1.213 3.164c-.117 0-.227.018-.329.053a.975.975 0 0 0-.484.334 1.218 1.218 0 0 0-.149.241v.36c0 .235.023.44.07.616.05.176.119.32.207.435a.863.863 0 0 0 .312.264c.12.058.25.088.391.088.143 0 .274-.03.391-.088a.913.913 0 0 0 .299-.25 1.15 1.15 0 0 0 .189-.374 1.66 1.66 0 0 0 .066-.48c0-.172-.022-.332-.066-.478a1.198 1.198 0 0 0-.189-.383.848.848 0 0 0-.304-.246.854.854 0 0 0-.404-.092ZM248.343 16h-4.364v-.835l2.07-2.224c.161-.175.297-.335.409-.479a3.74 3.74 0 0 0 .272-.395c.067-.117.116-.227.145-.33a1.102 1.102 0 0 0-.013-.681.833.833 0 0 0-.172-.286.78.78 0 0 0-.272-.175.919.919 0 0 0-.343-.062c-.164 0-.309.024-.435.07a.763.763 0 0 0-.307.198.893.893 0 0 0-.194.339 1.485 1.485 0 0 0-.066.461h-1.226c0-.284.054-.552.163-.804a1.99 1.99 0 0 1 .461-.668c.196-.19.434-.34.712-.448a2.51 2.51 0 0 1 .932-.167c.325 0 .612.045.861.136.252.09.463.218.633.382.167.164.294.362.382.594a2.1 2.1 0 0 1 .132.76c0 .21-.034.413-.101.606a2.58 2.58 0 0 1-.277.567c-.123.188-.269.38-.439.576-.17.193-.359.397-.567.61l-1.204 1.275h2.808V16Zm1.283-3.15.365-3.248h3.551v1.037h-2.545l-.154 1.406c.091-.053.22-.107.387-.163.167-.055.359-.083.576-.083.307 0 .581.05.821.15.244.096.449.236.616.421.164.185.29.41.378.677.087.266.131.568.131.905 0 .287-.042.56-.127.818a1.898 1.898 0 0 1-.391.68 1.858 1.858 0 0 1-.664.466 2.382 2.382 0 0 1-.945.172c-.275 0-.542-.041-.799-.123a2.132 2.132 0 0 1-.681-.36 1.9 1.9 0 0 1-.488-.58 1.777 1.777 0 0 1-.198-.792h1.204c.029.279.129.494.299.646a.96.96 0 0 0 .659.229c.164 0 .303-.03.418-.092a.77.77 0 0 0 .285-.255c.071-.109.122-.238.154-.387.035-.15.053-.31.053-.483 0-.17-.022-.326-.066-.466a.965.965 0 0 0-.194-.37.863.863 0 0 0-.329-.237 1.192 1.192 0 0 0-.466-.083c-.12 0-.224.01-.312.03-.088.021-.165.047-.233.08a.875.875 0 0 0-.18.114 1.458 1.458 0 0 0-.149.132l-.976-.242Z"/>
  <rect width="270" height="142.346" x="118.5" y="37.5" fill="#fff" rx="6.5"/>
  <path fill="#060B10" d="M132.028 64V53.69h4.677c1.159 0 2.047.275 2.664.826.628.55.942 1.298.942 2.244 0 .936-.319 1.684-.956 2.244-.628.55-1.511.826-2.65.826h-2.418V64h-2.259Zm2.259-5.893h2.129c.598 0 1.042-.116 1.332-.348.289-.232.434-.56.434-.984 0-.435-.145-.768-.434-1-.28-.231-.724-.347-1.332-.347h-2.129v2.679Zm9.966 6.009c-.637 0-1.202-.155-1.694-.463a3.06 3.06 0 0 1-1.144-1.318c-.27-.57-.405-1.236-.405-1.998 0-.763.135-1.434.405-2.013.28-.589.661-1.043 1.144-1.361.492-.328 1.057-.493 1.694-.493.589 0 1.11.145 1.564.435.454.29.763.68.927 1.173l-.174.115V56.66h2.157V64h-2.157v-1.506l.174.029a2.108 2.108 0 0 1-.927 1.173c-.454.28-.975.42-1.564.42Zm.637-1.665c.531 0 .941-.184 1.231-.55.299-.367.449-.898.449-1.593s-.15-1.226-.449-1.593c-.29-.377-.7-.565-1.231-.565-.531 0-.951.193-1.259.58-.3.385-.449.921-.449 1.607 0 .685.144 1.211.434 1.578.299.357.724.536 1.274.536Zm8.426 1.665c-1.4 0-2.505-.3-3.316-.898l.594-1.52c.386.28.815.497 1.288.651.483.145.966.218 1.448.218.377 0 .667-.058.869-.174.203-.126.304-.295.304-.507a.473.473 0 0 0-.217-.42c-.145-.106-.401-.203-.767-.29l-1.202-.29c-.715-.144-1.241-.385-1.578-.723-.329-.338-.493-.787-.493-1.347 0-.454.131-.854.391-1.202.27-.357.642-.637 1.115-.84.473-.202 1.023-.304 1.651-.304.531 0 1.042.083 1.535.247.492.154.941.376 1.346.666l-.608 1.462a4.696 4.696 0 0 0-1.158-.594 3.411 3.411 0 0 0-1.13-.202c-.357 0-.637.063-.839.188-.203.125-.305.3-.305.521 0 .164.058.295.174.391.126.097.343.184.652.26l1.231.276c.753.174 1.298.434 1.636.782.338.347.507.81.507 1.39 0 .695-.28 1.245-.84 1.65-.55.406-1.313.609-2.288.609Zm7.297 0c-1.4 0-2.506-.3-3.316-.898l.593-1.52c.386.28.816.497 1.289.651.483.145.965.218 1.448.218.376 0 .666-.058.869-.174.203-.126.304-.295.304-.507a.475.475 0 0 0-.217-.42c-.145-.106-.401-.203-.768-.29l-1.202-.29c-.714-.144-1.24-.385-1.578-.723-.328-.338-.492-.787-.492-1.347 0-.454.13-.854.391-1.202.27-.357.642-.637 1.115-.84.473-.202 1.023-.304 1.65-.304a4.82 4.82 0 0 1 1.535.247 4.74 4.74 0 0 1 1.347.666l-.608 1.462a4.72 4.72 0 0 0-1.159-.594 3.405 3.405 0 0 0-1.129-.202c-.357 0-.637.063-.84.188a.584.584 0 0 0-.304.521c0 .164.058.295.174.391.125.097.342.184.651.26l1.231.276c.753.174 1.299.434 1.636.782.338.347.507.81.507 1.39 0 .695-.28 1.245-.84 1.65-.55.406-1.313.609-2.287.609ZM167.1 64l-2.969-7.341h2.245l1.94 5.241h-.362l1.926-5.241h1.491l1.941 5.241h-.319l1.912-5.241h2.114L174.05 64h-1.839l-2.143-5.488h.956L168.953 64H167.1Zm14.174.116c-.792 0-1.477-.155-2.056-.463a3.278 3.278 0 0 1-1.347-1.318c-.309-.58-.463-1.26-.463-2.042 0-.782.154-1.457.463-2.027a3.278 3.278 0 0 1 1.347-1.318c.579-.318 1.264-.478 2.056-.478.772 0 1.448.16 2.027.478a3.19 3.19 0 0 1 1.332 1.318c.319.57.478 1.245.478 2.027s-.159 1.463-.478 2.042a3.19 3.19 0 0 1-1.332 1.318c-.579.308-1.255.463-2.027.463Zm0-1.665c.531 0 .941-.174 1.231-.522.289-.357.434-.902.434-1.636 0-.724-.145-1.26-.434-1.607-.29-.357-.7-.536-1.231-.536-.541 0-.961.179-1.26.536-.29.347-.434.883-.434 1.607 0 .734.144 1.28.434 1.636.29.348.71.522 1.26.522ZM186.509 64v-5.242c0-.347-.01-.695-.029-1.042a9.707 9.707 0 0 0-.087-1.057h2.056l.232 1.94-.232-.116c.116-.656.391-1.153.825-1.491a2.423 2.423 0 0 1 1.941-.464c.135.03.25.063.347.102l-.014 1.998a2.553 2.553 0 0 0-1.072-.246c-.396 0-.724.072-.985.217a1.54 1.54 0 0 0-.593.623c-.135.26-.203.574-.203.94V64h-2.186Zm13.153 0h-2.158v-1.795l.174.318a2.11 2.11 0 0 1-.926 1.173c-.454.28-.975.42-1.564.42-.637 0-1.202-.16-1.694-.478a3.404 3.404 0 0 1-1.144-1.347c-.271-.579-.406-1.255-.406-2.027 0-.763.135-1.428.406-1.998.27-.57.651-1.009 1.144-1.318.492-.318 1.057-.478 1.694-.478.589 0 1.11.15 1.564.45.453.289.762.675.926 1.158l-.202.26v-4.995h2.186V64Zm-3.837-1.55c.531 0 .941-.183 1.231-.55.299-.366.448-.902.448-1.607 0-.676-.149-1.202-.448-1.578-.29-.377-.7-.565-1.231-.565-.55 0-.975.184-1.274.55-.29.367-.435.888-.435 1.564 0 .705.15 1.245.449 1.622.309.376.729.565 1.26.565Zm9.674 4.678v-8.37c0-.347-.009-.695-.029-1.042a9.464 9.464 0 0 0-.086-1.057h2.056l.159 1.419h-.087c.155-.493.454-.884.898-1.173.454-.29.98-.435 1.578-.435.637 0 1.197.165 1.68.493.492.318.878.772 1.158 1.36.28.58.42 1.25.42 2.014 0 .762-.14 1.428-.42 1.998-.28.57-.666 1.009-1.158 1.318-.483.308-1.043.463-1.68.463-.598 0-1.124-.14-1.578-.42a2.064 2.064 0 0 1-.898-1.173l.174-.275v4.88h-2.187Zm3.867-4.677c.54 0 .955-.179 1.245-.536.289-.367.434-.893.434-1.578 0-.686-.149-1.222-.449-1.608-.289-.386-.7-.579-1.23-.579-.551 0-.971.188-1.26.565-.29.367-.435.898-.435 1.593s.145 1.226.435 1.592c.289.367.709.55 1.26.55ZM214.648 64v-5.242c0-.347-.009-.695-.029-1.042a9.464 9.464 0 0 0-.086-1.057h2.056l.231 1.94-.231-.116c.116-.656.391-1.153.825-1.491a2.423 2.423 0 0 1 1.94-.464c.136.03.251.063.348.102l-.015 1.998a2.545 2.545 0 0 0-1.071-.246c-.396 0-.724.072-.985.217a1.533 1.533 0 0 0-.593.623c-.136.26-.203.574-.203.94V64h-2.187Zm9.302.116c-.791 0-1.477-.155-2.056-.463a3.284 3.284 0 0 1-1.347-1.318c-.309-.58-.463-1.26-.463-2.042 0-.782.154-1.457.463-2.027a3.284 3.284 0 0 1 1.347-1.318c.579-.318 1.265-.478 2.056-.478.772 0 1.448.16 2.027.478.58.31 1.024.748 1.333 1.318.318.57.477 1.245.477 2.027s-.159 1.463-.477 2.042a3.186 3.186 0 0 1-1.333 1.318c-.579.308-1.255.463-2.027.463Zm0-1.665c.531 0 .941-.174 1.231-.522.29-.357.434-.902.434-1.636 0-.724-.144-1.26-.434-1.607-.29-.357-.7-.536-1.231-.536-.54 0-.96.179-1.26.536-.289.347-.434.883-.434 1.607 0 .734.145 1.28.434 1.636.29.348.71.522 1.26.522Zm4.339-4.156v-1.636h5.444v1.636h-5.444Zm5.444 3.938v1.68c-.202.077-.405.13-.608.16-.203.028-.42.043-.651.043-.908 0-1.603-.256-2.086-.768-.473-.52-.709-1.24-.709-2.157v-6.256l2.186-.709v6.921c0 .29.054.522.16.696.106.173.246.299.42.376.173.067.362.101.564.101.116 0 .227-.005.333-.014.116-.02.247-.044.391-.073Zm7.58.985c-.357.28-.791.502-1.303.666a5.332 5.332 0 0 1-1.549.232c-.821 0-1.53-.155-2.129-.463a3.26 3.26 0 0 1-1.361-1.318c-.318-.57-.478-1.245-.478-2.027 0-.753.155-1.42.464-1.999a3.394 3.394 0 0 1 1.259-1.346c.541-.328 1.168-.493 1.883-.493.685 0 1.279.155 1.781.464.502.299.888.729 1.158 1.288.271.55.406 1.207.406 1.97v.318h-5.025l.029-1.086h3.693l-.565.45c.009-.619-.111-1.082-.362-1.39-.242-.32-.594-.479-1.057-.479-.502 0-.893.184-1.173.55-.27.358-.406.884-.406 1.579 0 .82.16 1.414.478 1.78.328.368.826.551 1.492.551a3.6 3.6 0 0 0 1.144-.188 3.806 3.806 0 0 0 1.042-.536l.579 1.477Zm4.979.898c-.792 0-1.477-.155-2.056-.463a3.209 3.209 0 0 1-1.333-1.304c-.299-.57-.449-1.24-.449-2.012 0-.773.165-1.448.493-2.028a3.423 3.423 0 0 1 1.375-1.346c.589-.328 1.279-.493 2.071-.493.521 0 1.033.083 1.535.247.502.164.907.386 1.216.666l-.579 1.52a3.333 3.333 0 0 0-.956-.536 2.782 2.782 0 0 0-1.013-.202c-.589 0-1.052.178-1.39.535-.338.357-.507.888-.507 1.593 0 .715.164 1.25.492 1.607.338.358.806.536 1.405.536a2.97 2.97 0 0 0 1.013-.188 3.16 3.16 0 0 0 .956-.55l.579 1.52c-.318.28-.733.502-1.245.666a5.532 5.532 0 0 1-1.607.232Zm3.137-5.821v-1.636h5.445v1.636h-5.445Zm5.445 3.938v1.68a2.84 2.84 0 0 1-.609.16c-.202.028-.42.043-.651.043-.908 0-1.603-.256-2.085-.768-.473-.52-.71-1.24-.71-2.157v-6.256l2.187-.709v6.921c0 .29.053.522.159.696.106.173.246.299.42.376.174.067.362.101.565.101.115 0 .226-.005.333-.014.115-.02.246-.044.391-.073Zm7.58.985c-.358.28-.792.502-1.304.666a5.332 5.332 0 0 1-1.549.232c-.82 0-1.53-.155-2.129-.463a3.266 3.266 0 0 1-1.361-1.318c-.318-.57-.477-1.245-.477-2.027 0-.753.154-1.42.463-1.999a3.396 3.396 0 0 1 1.26-1.346c.54-.328 1.168-.493 1.882-.493.685 0 1.279.155 1.781.464.502.299.888.729 1.158 1.288.271.55.406 1.207.406 1.97v.318h-5.025l.029-1.086h3.693l-.565.45c.01-.619-.111-1.082-.362-1.39-.241-.32-.594-.479-1.057-.479-.502 0-.893.184-1.173.55-.27.358-.405.884-.405 1.579 0 .82.159 1.414.477 1.78.329.368.826.551 1.492.551a3.6 3.6 0 0 0 1.144-.188 3.806 3.806 0 0 0 1.042-.536l.58 1.477Zm8.859.782h-2.158v-1.795l.174.318a2.108 2.108 0 0 1-.927 1.173c-.454.28-.975.42-1.564.42-.637 0-1.202-.16-1.694-.478A3.404 3.404 0 0 1 264 62.291c-.27-.579-.405-1.255-.405-2.027 0-.763.135-1.428.405-1.998a3.06 3.06 0 0 1 1.144-1.318c.492-.318 1.057-.478 1.694-.478.589 0 1.11.15 1.564.45.454.289.763.675.927 1.158l-.203.26v-4.995h2.187V64Zm-3.838-1.55c.531 0 .942-.183 1.231-.55.299-.366.449-.902.449-1.607 0-.676-.15-1.202-.449-1.578-.289-.377-.7-.565-1.231-.565-.55 0-.975.184-1.274.55-.289.367-.434.888-.434 1.564 0 .705.149 1.245.449 1.622.309.376.728.565 1.259.565Zm12.499 1.666c-1.4 0-2.506-.3-3.316-.898l.593-1.52c.386.28.816.497 1.289.651.483.145.965.218 1.448.218.376 0 .666-.058.869-.174.203-.126.304-.295.304-.507a.475.475 0 0 0-.217-.42c-.145-.106-.401-.203-.768-.29l-1.202-.29c-.714-.144-1.24-.385-1.578-.723-.328-.338-.492-.787-.492-1.347 0-.454.13-.854.391-1.202.27-.357.642-.637 1.115-.84.473-.202 1.023-.304 1.65-.304a4.82 4.82 0 0 1 1.535.247 4.74 4.74 0 0 1 1.347.666l-.608 1.462a4.72 4.72 0 0 0-1.159-.594 3.405 3.405 0 0 0-1.129-.202c-.357 0-.637.063-.84.188a.584.584 0 0 0-.304.521c0 .164.058.295.174.391.125.097.342.184.651.26l1.231.276c.753.174 1.299.434 1.636.782.338.347.507.81.507 1.39 0 .695-.28 1.245-.84 1.65-.55.406-1.313.609-2.287.609Zm4.472-.116v-7.341h2.187V64h-2.187Zm-.086-10.788h2.36v2.057h-2.36v-2.057Zm3.235 5.083v-1.636h5.444v1.636h-5.444Zm5.444 3.938v1.68c-.203.077-.405.13-.608.16-.203.028-.42.043-.652.043-.907 0-1.602-.256-2.085-.768-.473-.52-.709-1.24-.709-2.157v-6.256l2.186-.709v6.921c0 .29.053.522.159.696.107.173.247.299.42.376.174.067.362.101.565.101.116 0 .227-.005.333-.014.116-.02.246-.044.391-.073Zm7.58.985c-.357.28-.791.502-1.303.666a5.337 5.337 0 0 1-1.549.232c-.821 0-1.53-.155-2.129-.463a3.254 3.254 0 0 1-1.361-1.318c-.319-.57-.478-1.245-.478-2.027 0-.753.155-1.42.463-1.999a3.396 3.396 0 0 1 1.26-1.346c.541-.328 1.168-.493 1.883-.493.685 0 1.279.155 1.781.464.502.299.888.729 1.158 1.288.27.55.405 1.207.405 1.97v.318h-5.024l.029-1.086h3.692l-.564.45c.009-.619-.111-1.082-.362-1.39-.242-.32-.594-.479-1.057-.479-.502 0-.893.184-1.173.55-.271.358-.406.884-.406 1.579 0 .82.159 1.414.478 1.78.328.368.825.551 1.491.551a3.59 3.59 0 0 0 1.144-.188 3.811 3.811 0 0 0 1.043-.536l.579 1.477Z"/>
  <path fill="#060B10" d="M132.098 86v-8.885h3.544c.915 0 1.626.22 2.134.662.515.44.773 1.048.773 1.822 0 .765-.258 1.372-.773 1.822-.516.449-1.227.673-2.134.673h-2.521V86h-1.023Zm1.023-4.754h2.434c.657 0 1.152-.142 1.484-.424.333-.292.5-.7.5-1.223 0-.524-.167-.928-.5-1.21-.332-.284-.827-.425-1.484-.425h-2.434v3.282Zm6.98 4.754v-9.184h1.011V86h-1.011Zm8.115-.749c-.275.258-.628.462-1.061.612-.424.15-.861.224-1.31.224-.649 0-1.211-.129-1.685-.386a2.68 2.68 0 0 1-1.085-1.111c-.25-.49-.375-1.073-.375-1.747 0-.649.125-1.219.375-1.71.249-.49.594-.873 1.035-1.147.449-.275.965-.412 1.548-.412.557 0 1.035.124 1.435.374.399.241.703.59.91 1.048.217.458.325 1.007.325 1.647v.188h-4.742v-.662h4.168l-.325.462c.017-.732-.128-1.294-.436-1.685-.3-.39-.741-.586-1.323-.586-.607 0-1.086.216-1.435.649-.341.424-.512 1.015-.512 1.772 0 .815.179 1.43.537 1.846.366.416.898.624 1.597.624.366 0 .716-.058 1.048-.174.341-.125.666-.312.974-.562l.337.736Zm4.054.836c-.557 0-1.048-.129-1.472-.386a2.68 2.68 0 0 1-.973-1.123c-.225-.491-.337-1.065-.337-1.722 0-.658.116-1.232.349-1.722.233-.491.557-.874.973-1.148a2.63 2.63 0 0 1 1.46-.412c.574 0 1.061.141 1.46.424.4.283.67.686.811 1.21l-.149.1v-1.585h.998V86h-.998v-1.622l.149.075c-.141.524-.411.927-.811 1.21-.399.283-.886.424-1.46.424Zm.2-.836c.616 0 1.09-.208 1.423-.624.332-.424.499-1.023.499-1.796 0-.774-.171-1.369-.512-1.785-.333-.416-.803-.624-1.41-.624-.616 0-1.098.216-1.447.65-.342.423-.512 1.018-.512 1.784 0 .765.17 1.355.512 1.771.349.416.831.624 1.447.624Zm6.995.836c-1.056 0-1.892-.27-2.508-.81l.337-.75c.333.258.674.45 1.023.575.358.116.753.174 1.186.174.474 0 .832-.079 1.073-.237a.804.804 0 0 0 .374-.711c0-.25-.083-.445-.249-.587-.167-.15-.441-.27-.824-.361l-1.06-.25c-.525-.117-.932-.324-1.223-.624a1.509 1.509 0 0 1-.425-1.073c0-.366.1-.686.3-.96.2-.284.478-.504.836-.662.358-.158.782-.237 1.273-.237.441 0 .857.07 1.248.212.391.141.719.345.985.611l-.337.736a3.143 3.143 0 0 0-.923-.549 2.567 2.567 0 0 0-.973-.187c-.449 0-.799.088-1.048.262a.83.83 0 0 0-.362.712c0 .257.075.461.224.611.158.15.408.266.749.35l1.061.261c.59.125 1.023.333 1.297.624.283.283.425.645.425 1.086 0 .54-.221.973-.662 1.298-.441.324-1.04.486-1.797.486Zm9.211-.836c-.275.258-.628.462-1.061.612-.424.15-.861.224-1.31.224-.649 0-1.211-.129-1.685-.386a2.68 2.68 0 0 1-1.085-1.111c-.25-.49-.375-1.073-.375-1.747 0-.649.125-1.219.375-1.71.249-.49.594-.873 1.035-1.147.449-.275.965-.412 1.548-.412.557 0 1.035.124 1.435.374.399.241.702.59.91 1.048.217.458.325 1.007.325 1.647v.188h-4.742v-.662h4.168l-.325.462c.017-.732-.128-1.294-.436-1.685-.3-.39-.741-.586-1.323-.586-.607 0-1.086.216-1.435.649-.341.424-.512 1.015-.512 1.772 0 .815.179 1.43.537 1.846.366.416.898.624 1.597.624.366 0 .716-.058 1.048-.174.341-.125.666-.312.974-.562l.337.736Zm10.041 0c-.275.258-.628.462-1.061.612-.424.15-.861.224-1.31.224-.649 0-1.211-.129-1.685-.386a2.686 2.686 0 0 1-1.085-1.111c-.25-.49-.375-1.073-.375-1.747 0-.649.125-1.219.375-1.71.249-.49.594-.873 1.035-1.147.45-.275.965-.412 1.548-.412.557 0 1.035.124 1.435.374a2.3 2.3 0 0 1 .911 1.048c.216.458.324 1.007.324 1.647v.188h-4.742v-.662h4.168l-.324.462c.016-.732-.129-1.294-.437-1.685-.3-.39-.741-.586-1.323-.586-.607 0-1.085.216-1.435.649-.341.424-.511 1.015-.511 1.772 0 .815.178 1.43.536 1.846.366.416.899.624 1.597.624.366 0 .716-.058 1.048-.174a3.39 3.39 0 0 0 .974-.562l.337.736Zm1.646.749v-4.517c0-.291-.008-.582-.025-.874a7.628 7.628 0 0 0-.075-.886h.961l.112 1.298-.124.1c.174-.507.466-.89.873-1.148.408-.266.878-.4 1.41-.4 1.506 0 2.259.828 2.259 2.484V86h-1.011v-3.893c0-.582-.116-1.007-.349-1.273-.233-.275-.599-.412-1.098-.412-.583 0-1.049.18-1.398.537-.349.358-.524.84-.524 1.447V86h-1.011Zm6.413-5.478v-.799h4.031v.799h-4.031Zm4.006 4.58v.86c-.141.042-.283.071-.424.088a2.446 2.446 0 0 1-.449.037c-.583 0-1.049-.166-1.398-.499-.341-.332-.512-.832-.512-1.497v-5.977l1.011-.362v6.202c0 .332.046.59.137.773.1.183.233.312.4.387.166.067.353.1.561.1.125 0 .237-.008.337-.025.1-.017.212-.046.337-.087Zm6.384.15c-.275.257-.628.461-1.061.61-.424.15-.861.225-1.31.225-.649 0-1.21-.129-1.684-.386a2.688 2.688 0 0 1-1.086-1.111c-.25-.49-.374-1.073-.374-1.747 0-.649.124-1.219.374-1.71.25-.49.595-.873 1.036-1.147.449-.275.965-.412 1.547-.412.557 0 1.036.124 1.435.374a2.3 2.3 0 0 1 .911 1.048c.216.458.324 1.007.324 1.647v.188h-4.741v-.662h4.167l-.324.462c.016-.732-.129-1.294-.437-1.685-.299-.39-.74-.586-1.323-.586-.607 0-1.085.216-1.435.649-.341.424-.511 1.015-.511 1.772 0 .815.179 1.43.536 1.846.366.416.899.624 1.598.624.366 0 .715-.058 1.048-.174.341-.125.665-.312.973-.562l.337.736Zm1.646.748v-4.517c0-.291-.008-.582-.025-.874a7.854 7.854 0 0 0-.074-.886h.96l.138 1.548-.138-.038c.117-.549.366-.96.749-1.235a2.183 2.183 0 0 1 1.61-.4c.1.009.191.026.274.05l-.025.924a2.003 2.003 0 0 0-.661-.1c-.433 0-.782.096-1.048.287a1.728 1.728 0 0 0-.574.736 2.453 2.453 0 0 0-.175.924V86h-1.011Zm7.475 2.833-.212-.787c.383-.091.703-.2.961-.324.266-.116.487-.27.662-.462.183-.191.341-.445.474-.76l.399-.924.225-.312 2.296-5.54h1.01l-2.932 6.85c-.225.507-.478.91-.761 1.21a2.88 2.88 0 0 1-.961.7 4.843 4.843 0 0 1-1.161.349Zm2.296-2.509-2.82-6.6h1.061l2.271 5.54-.512 1.06Zm7.155-.237c-.599 0-1.123-.133-1.572-.399a2.764 2.764 0 0 1-1.036-1.123c-.241-.49-.361-1.069-.361-1.734 0-.658.12-1.232.361-1.722.25-.491.595-.87 1.036-1.136.449-.266.973-.4 1.572-.4.599 0 1.119.134 1.56.4.449.266.795.645 1.036 1.136.249.49.374 1.064.374 1.722 0 .665-.125 1.243-.374 1.734a2.654 2.654 0 0 1-1.036 1.123c-.441.266-.961.4-1.56.4Zm0-.836c.616 0 1.09-.204 1.423-.611.341-.416.512-1.02.512-1.81 0-.773-.171-1.368-.512-1.784-.341-.416-.815-.624-1.423-.624-.607 0-1.085.208-1.435.624-.341.416-.511 1.01-.511 1.784 0 .79.166 1.394.499 1.81.341.407.823.611 1.447.611Zm6.767.836c-.749 0-1.314-.208-1.697-.624-.374-.415-.562-1.031-.562-1.846v-3.894h1.011v3.869c0 .565.117.981.35 1.248.232.266.586.399 1.06.399.558 0 1.007-.179 1.348-.537.341-.357.511-.836.511-1.435v-3.544h1.011V86h-.986v-1.36l.15-.075c-.166.5-.449.878-.848 1.136a2.394 2.394 0 0 1-1.348.386Zm4.981-.087v-4.517c0-.291-.009-.582-.025-.874a8.093 8.093 0 0 0-.075-.886h.961l.137 1.548-.137-.038c.116-.549.366-.96.748-1.235a2.183 2.183 0 0 1 1.61-.4c.1.009.191.026.275.05l-.025.924a2.014 2.014 0 0 0-.662-.1c-.432 0-.782.096-1.048.287a1.728 1.728 0 0 0-.574.736 2.473 2.473 0 0 0-.175.924V86h-1.01Zm7.774 2.695v-7.212c0-.291-.008-.582-.025-.874a7.628 7.628 0 0 0-.075-.886h.961l.112 1.298-.099.187c.141-.524.411-.927.811-1.21.399-.283.882-.424 1.447-.424.549 0 1.032.137 1.448.412.424.274.753.657.985 1.147.242.491.362 1.065.362 1.723 0 .657-.12 1.23-.362 1.722a2.673 2.673 0 0 1-.973 1.123c-.416.257-.902.386-1.46.386-.565 0-1.048-.141-1.447-.424-.4-.283-.67-.686-.811-1.21l.137-.125v4.367h-1.011Zm2.945-3.444c.607 0 1.081-.208 1.423-.624.341-.416.511-1.006.511-1.771 0-.766-.17-1.36-.511-1.785-.342-.433-.816-.649-1.423-.649-.624 0-1.102.208-1.435.624-.333.416-.499 1.01-.499 1.784s.166 1.373.499 1.797c.333.416.811.624 1.435.624Zm6.946.836c-.558 0-1.049-.129-1.473-.386a2.68 2.68 0 0 1-.973-1.123c-.225-.491-.337-1.065-.337-1.722 0-.658.116-1.232.349-1.722.233-.491.558-.874.974-1.148a2.628 2.628 0 0 1 1.46-.412c.574 0 1.06.141 1.46.424.399.283.669.686.811 1.21l-.15.1v-1.585h.998V86h-.998v-1.622l.15.075c-.142.524-.412.927-.811 1.21-.4.283-.886.424-1.46.424Zm.199-.836c.616 0 1.09-.208 1.423-.624.332-.424.499-1.023.499-1.796 0-.774-.171-1.369-.512-1.785-.333-.416-.803-.624-1.41-.624-.615 0-1.098.216-1.447.65-.341.423-.512 1.018-.512 1.784 0 .765.171 1.355.512 1.771.349.416.832.624 1.447.624Zm6.996.836c-1.057 0-1.893-.27-2.508-.81l.336-.75c.333.258.674.45 1.024.575.357.116.752.174 1.185.174.474 0 .832-.079 1.073-.237a.805.805 0 0 0 .375-.711c0-.25-.084-.445-.25-.587-.166-.15-.441-.27-.824-.361l-1.06-.25c-.524-.117-.932-.324-1.223-.624a1.508 1.508 0 0 1-.424-1.073c0-.366.099-.686.299-.96.2-.284.478-.504.836-.662.358-.158.782-.237 1.273-.237.441 0 .857.07 1.248.212.391.141.719.345.986.611l-.337.736a3.16 3.16 0 0 0-.924-.549 2.567 2.567 0 0 0-.973-.187c-.449 0-.799.088-1.048.262a.833.833 0 0 0-.362.712c0 .257.075.461.225.611.158.15.407.266.748.35l1.061.261c.59.125 1.023.333 1.298.624.282.283.424.645.424 1.086 0 .54-.221.973-.661 1.298-.441.324-1.04.486-1.797.486Zm6.19 0c-1.056 0-1.893-.27-2.508-.81l.337-.75c.333.258.674.45 1.023.575.358.116.753.174 1.185.174.475 0 .832-.079 1.074-.237a.806.806 0 0 0 .374-.711c0-.25-.083-.445-.25-.587-.166-.15-.441-.27-.823-.361l-1.061-.25c-.524-.117-.932-.324-1.223-.624a1.508 1.508 0 0 1-.424-1.073c0-.366.1-.686.299-.96.2-.284.479-.504.837-.662.357-.158.782-.237 1.272-.237.441 0 .857.07 1.248.212.391.141.72.345.986.611l-.337.736a3.143 3.143 0 0 0-.923-.549 2.572 2.572 0 0 0-.974-.187c-.449 0-.798.088-1.048.262a.833.833 0 0 0-.362.712c0 .257.075.461.225.611.158.15.408.266.749.35l1.06.261c.591.125 1.023.333 1.298.624.283.283.424.645.424 1.086 0 .54-.22.973-.661 1.298-.441.324-1.04.486-1.797.486ZM264.18 86l-2.321-6.277h1.061l1.934 5.528h-.325l1.997-5.528h.886l1.971 5.528h-.324l1.972-5.528h.998L269.708 86h-.973l-2.072-5.653h.549L265.153 86h-.973Zm11.683.087c-.599 0-1.123-.133-1.572-.399a2.764 2.764 0 0 1-1.036-1.123c-.241-.49-.362-1.069-.362-1.734 0-.658.121-1.232.362-1.722.25-.491.595-.87 1.036-1.136.449-.266.973-.4 1.572-.4.599 0 1.119.134 1.56.4.449.266.794.645 1.036 1.136.249.49.374 1.064.374 1.722 0 .665-.125 1.243-.374 1.734a2.66 2.66 0 0 1-1.036 1.123c-.441.266-.961.4-1.56.4Zm0-.836c.616 0 1.09-.204 1.423-.611.341-.416.511-1.02.511-1.81 0-.773-.17-1.368-.511-1.784-.341-.416-.816-.624-1.423-.624-.607 0-1.085.208-1.435.624-.341.416-.511 1.01-.511 1.784 0 .79.166 1.394.499 1.81.341.407.823.611 1.447.611Zm4.546.749v-4.517c0-.291-.009-.582-.025-.874a8.093 8.093 0 0 0-.075-.886h.961l.137 1.548-.137-.038c.116-.549.366-.96.748-1.235a2.183 2.183 0 0 1 1.61-.4c.1.009.191.026.274.05l-.024.924a2.014 2.014 0 0 0-.662-.1c-.432 0-.782.096-1.048.287a1.728 1.728 0 0 0-.574.736 2.473 2.473 0 0 0-.175.924V86h-1.01Zm9.926 0h-.998v-1.685l.15.138c-.141.524-.412.927-.811 1.21-.399.283-.886.424-1.46.424a2.688 2.688 0 0 1-1.46-.399 2.752 2.752 0 0 1-.973-1.148c-.233-.5-.35-1.077-.35-1.734 0-.658.113-1.227.337-1.71.233-.482.558-.857.973-1.123.425-.266.916-.4 1.473-.4.574 0 1.061.146 1.46.437.399.283.67.683.811 1.198l-.162.125v-4.517h1.01V86Zm-2.919-.749c.607 0 1.077-.208 1.41-.624.341-.424.511-1.023.511-1.796 0-.766-.166-1.356-.499-1.772-.333-.425-.807-.637-1.422-.637-.616 0-1.099.208-1.448.624-.341.416-.512 1.003-.512 1.76 0 .773.171 1.376.512 1.809.349.424.832.636 1.448.636Zm7.241-4.729v-.799h4.031v.799h-4.031Zm4.006 4.58v.86c-.142.042-.283.071-.424.088a2.45 2.45 0 0 1-.45.037c-.582 0-1.048-.166-1.397-.499-.341-.332-.512-.832-.512-1.497v-5.977l1.011-.362v6.202c0 .332.046.59.137.773.1.183.233.312.4.387.166.067.353.1.561.1.125 0 .237-.008.337-.025.1-.017.212-.046.337-.087Zm3.838.985c-.599 0-1.123-.133-1.572-.399a2.764 2.764 0 0 1-1.036-1.123c-.241-.49-.362-1.069-.362-1.734 0-.658.121-1.232.362-1.722.25-.491.595-.87 1.036-1.136.449-.266.973-.4 1.572-.4.599 0 1.119.134 1.56.4.449.266.795.645 1.036 1.136.249.49.374 1.064.374 1.722 0 .665-.125 1.243-.374 1.734a2.654 2.654 0 0 1-1.036 1.123c-.441.266-.961.4-1.56.4Zm0-.836c.616 0 1.09-.204 1.423-.611.341-.416.511-1.02.511-1.81 0-.773-.17-1.368-.511-1.784-.341-.416-.815-.624-1.423-.624-.607 0-1.085.208-1.435.624-.341.416-.511 1.01-.511 1.784 0 .79.166 1.394.499 1.81.341.407.823.611 1.447.611Zm10.557 3.532c-.948 0-1.772-.217-2.471-.65l.175-.823a5.02 5.02 0 0 0 1.111.487c.349.1.744.15 1.185.15.599 0 1.052-.163 1.36-.487.316-.316.474-.79.474-1.423V84.34l.138-.162a2.34 2.34 0 0 1-.475.874 2.108 2.108 0 0 1-.773.561c-.308.133-.657.2-1.048.2-.558 0-1.049-.13-1.473-.387a2.81 2.81 0 0 1-.986-1.098c-.233-.466-.349-1.01-.349-1.635 0-.624.116-1.168.349-1.634.242-.466.57-.828.986-1.086.424-.266.915-.4 1.473-.4.582 0 1.073.146 1.472.437.408.283.682.683.824 1.198l-.15-.137v-1.348h1.011v6.227c0 .94-.242 1.647-.724 2.121-.474.475-1.177.712-2.109.712Zm-.125-3.819c.608 0 1.082-.2 1.423-.599.349-.407.524-.965.524-1.672s-.175-1.26-.524-1.66c-.341-.407-.815-.61-1.423-.61-.615 0-1.102.203-1.46.61-.349.4-.524.953-.524 1.66 0 .716.175 1.273.524 1.672.358.4.845.6 1.46.6Zm10.039.287c-.274.258-.628.462-1.06.612-.425.15-.861.224-1.311.224-.649 0-1.21-.129-1.684-.386a2.688 2.688 0 0 1-1.086-1.111c-.249-.49-.374-1.073-.374-1.747 0-.649.125-1.219.374-1.71.25-.49.595-.873 1.036-1.147.449-.275.965-.412 1.547-.412.558 0 1.036.124 1.435.374a2.3 2.3 0 0 1 .911 1.048c.216.458.325 1.007.325 1.647v.188h-4.742v-.662h4.168l-.325.462c.017-.732-.129-1.294-.437-1.685-.299-.39-.74-.586-1.322-.586-.608 0-1.086.216-1.435.649-.341.424-.512 1.015-.512 1.772 0 .815.179 1.43.537 1.846.366.416.898.624 1.597.624.366 0 .715-.058 1.048-.174.341-.125.665-.312.973-.562l.337.736Zm.724-4.729v-.799h4.031v.799h-4.031Zm4.006 4.58v.86c-.142.042-.283.071-.425.088a2.438 2.438 0 0 1-.449.037c-.582 0-1.048-.166-1.397-.499-.341-.332-.512-.832-.512-1.497v-5.977l1.011-.362v6.202c0 .332.045.59.137.773.1.183.233.312.399.387.167.067.354.1.562.1.125 0 .237-.008.337-.025.1-.017.212-.046.337-.087Zm6.905.985c-.558 0-1.049-.129-1.473-.386a2.68 2.68 0 0 1-.973-1.123c-.225-.491-.337-1.065-.337-1.722 0-.658.116-1.232.349-1.722.233-.491.558-.874.974-1.148.424-.275.91-.412 1.46-.412.574 0 1.06.141 1.459.424.4.283.67.686.812 1.21l-.15.1v-1.585h.998V86h-.998v-1.622l.15.075c-.142.524-.412.927-.812 1.21-.399.283-.885.424-1.459.424Zm.199-.836c.616 0 1.09-.208 1.423-.624.332-.424.499-1.023.499-1.796 0-.774-.171-1.369-.512-1.785-.333-.416-.803-.624-1.41-.624-.615 0-1.098.216-1.447.65-.341.423-.512 1.018-.512 1.784 0 .765.171 1.355.512 1.771.349.416.832.624 1.447.624Zm7.507.836c-.615 0-1.148-.133-1.597-.399a2.732 2.732 0 0 1-1.048-1.123c-.241-.483-.362-1.052-.362-1.71 0-.648.125-1.218.374-1.709.25-.5.603-.886 1.061-1.16.457-.275.998-.412 1.622-.412.424 0 .832.075 1.223.224.399.142.728.341.986.6l-.337.748a3.63 3.63 0 0 0-.911-.537 2.29 2.29 0 0 0-.911-.187c-.632 0-1.135.212-1.51.637-.366.424-.549 1.023-.549 1.797 0 .765.183 1.355.549 1.771.366.416.869.624 1.51.624.308 0 .611-.058.911-.174.299-.125.603-.308.911-.55l.337.75c-.266.249-.603.448-1.011.598a3.708 3.708 0 0 1-1.248.212Zm6.178 0c-.615 0-1.148-.133-1.597-.399a2.738 2.738 0 0 1-1.048-1.123c-.241-.483-.362-1.052-.362-1.71 0-.648.125-1.218.374-1.709.25-.5.604-.886 1.061-1.16.458-.275.998-.412 1.622-.412.425 0 .832.075 1.223.224.399.142.728.341.986.6l-.337.748a3.612 3.612 0 0 0-.911-.537 2.29 2.29 0 0 0-.911-.187c-.632 0-1.135.212-1.51.637-.366.424-.549 1.023-.549 1.797 0 .765.183 1.355.549 1.771.366.416.87.624 1.51.624.308 0 .612-.058.911-.174.3-.125.603-.308.911-.55l.337.75c-.266.249-.603.448-1.011.598a3.708 3.708 0 0 1-1.248.212Zm8.687-.836c-.275.258-.628.462-1.061.612-.424.15-.861.224-1.31.224-.649 0-1.211-.129-1.685-.386a2.686 2.686 0 0 1-1.085-1.111c-.25-.49-.375-1.073-.375-1.747 0-.649.125-1.219.375-1.71a2.83 2.83 0 0 1 1.035-1.147c.45-.275.965-.412 1.548-.412.557 0 1.035.124 1.435.374a2.3 2.3 0 0 1 .911 1.048c.216.458.324 1.007.324 1.647v.188h-4.742v-.662h4.168l-.324.462c.016-.732-.129-1.294-.437-1.685-.3-.39-.74-.586-1.323-.586-.607 0-1.085.216-1.435.649-.341.424-.511 1.015-.511 1.772 0 .815.178 1.43.536 1.846.366.416.899.624 1.597.624.366 0 .716-.058 1.049-.174.341-.125.665-.312.973-.562l.337.736Zm3.767.836c-1.056 0-1.892-.27-2.508-.81l.337-.75c.333.258.674.45 1.023.575.358.116.753.174 1.186.174.474 0 .832-.079 1.073-.237a.804.804 0 0 0 .374-.711c0-.25-.083-.445-.249-.587-.167-.15-.441-.27-.824-.361l-1.06-.25c-.524-.117-.932-.324-1.223-.624a1.509 1.509 0 0 1-.425-1.073c0-.366.1-.686.3-.96.2-.284.478-.504.836-.662.358-.158.782-.237 1.273-.237.441 0 .857.07 1.248.212.391.141.719.345.985.611l-.337.736a3.143 3.143 0 0 0-.923-.549 2.567 2.567 0 0 0-.973-.187c-.449 0-.799.088-1.048.262a.83.83 0 0 0-.362.712c0 .257.075.461.224.611.158.15.408.266.749.35l1.061.261c.59.125 1.023.333 1.297.624.283.283.425.645.425 1.086 0 .54-.221.973-.662 1.298-.441.324-1.039.486-1.797.486Zm6.191 0c-1.057 0-1.893-.27-2.508-.81l.337-.75c.332.258.673.45 1.023.575.358.116.753.174 1.185.174.474 0 .832-.079 1.073-.237a.805.805 0 0 0 .375-.711c0-.25-.083-.445-.25-.587-.166-.15-.441-.27-.823-.361l-1.061-.25c-.524-.117-.932-.324-1.223-.624a1.508 1.508 0 0 1-.424-1.073c0-.366.1-.686.299-.96.2-.284.479-.504.836-.662.358-.158.782-.237 1.273-.237.441 0 .857.07 1.248.212.391.141.72.345.986.611l-.337.736c-.3-.25-.607-.432-.924-.549a2.563 2.563 0 0 0-.973-.187c-.449 0-.798.088-1.048.262a.833.833 0 0 0-.362.712c0 .257.075.461.225.611.158.15.407.266.748.35l1.061.261c.591.125 1.023.333 1.298.624.283.283.424.645.424 1.086 0 .54-.22.973-.661 1.298-.441.324-1.04.486-1.797.486Zm3.833-1.372h1.286V86h-1.286v-1.285Z"/>
  <circle cx="144.5" cy="112.673" r="2.5" fill="#B5D2FB"/>
  <circle cx="154.5" cy="112.673" r="2.5" fill="#B5D2FB"/>
  <circle cx="164.5" cy="112.673" r="2.5" fill="#B5D2FB"/>
  <circle cx="174.5" cy="112.673" r="2.5" fill="#B5D2FB"/>
  <circle cx="184.5" cy="112.673" r="2.5" fill="#B5D2FB"/>
  <circle cx="194.5" cy="112.673" r="2.5" fill="#B5D2FB"/>
  <circle cx="204.5" cy="112.673" r="2.5" fill="#B5D2FB"/>
  <path stroke="#D1D5DA" d="M131.5 100.5h244v24.346h-244z"/>
  <rect width="245" height="36" x="131" y="131.346" fill="#2E51ED" rx="4"/>
  <path fill="#fff" d="M236.816 154.442c-.44 0-.86-.036-1.26-.108-.4-.08-.776-.196-1.128-.348a3.954 3.954 0 0 1-.912-.552l.516-1.128c.432.32.872.552 1.32.696.448.144.94.216 1.476.216.592 0 1.048-.104 1.368-.312.328-.208.492-.5.492-.876a.748.748 0 0 0-.216-.552c-.144-.152-.36-.28-.648-.384a9.16 9.16 0 0 0-1.068-.3 9.134 9.134 0 0 1-1.332-.348 3.846 3.846 0 0 1-.96-.504 1.991 1.991 0 0 1-.588-.684 2.234 2.234 0 0 1-.192-.96 2.3 2.3 0 0 1 .408-1.344c.272-.392.652-.696 1.14-.912.496-.224 1.076-.336 1.74-.336.4 0 .788.04 1.164.12.384.08.736.196 1.056.348.32.144.596.324.828.54l-.528 1.128a3.957 3.957 0 0 0-2.508-.912c-.552 0-.988.112-1.308.336-.32.224-.48.536-.48.936 0 .232.064.424.192.576.136.152.34.28.612.384.28.104.636.208 1.068.312.496.104.936.224 1.32.36.392.136.724.3.996.492.272.184.476.408.612.672.144.256.216.564.216.924 0 .512-.136.96-.408 1.344-.272.376-.664.668-1.176.876-.504.2-1.108.3-1.812.3Zm6.918-.012c-.744 0-1.304-.204-1.68-.612-.368-.416-.552-1.04-.552-1.872v-3.66h1.5v3.672c0 .44.092.764.276.972.184.208.46.312.828.312.44 0 .792-.144 1.056-.432.264-.288.396-.672.396-1.152v-3.372h1.512v6.06h-1.464v-1.248l.156-.012c-.176.44-.44.776-.792 1.008-.352.224-.764.336-1.236.336Zm4.941-.084v-8.832h1.5v4.212l-.132-.18c.128-.432.38-.776.756-1.032s.82-.384 1.332-.384c.536 0 1.004.128 1.404.384.4.256.716.62.948 1.092.232.472.348 1.024.348 1.656 0 .632-.116 1.188-.348 1.668-.232.48-.552.852-.96 1.116-.4.256-.864.384-1.392.384-.512 0-.956-.12-1.332-.36a1.8 1.8 0 0 1-.756-1.044l.132-.216v1.536h-1.5Zm3.072-1.068c.496 0 .88-.176 1.152-.528.272-.352.408-.848.408-1.488 0-.624-.136-1.104-.408-1.44-.272-.344-.656-.516-1.152-.516-.512 0-.904.172-1.176.516-.264.344-.396.832-.396 1.464 0 .64.132 1.132.396 1.476.272.344.664.516 1.176.516Zm4.37 1.068v-4.344c0-.28-.008-.564-.024-.852a7.548 7.548 0 0 0-.072-.864h1.416l.132 1.2-.132.012c.16-.432.416-.768.768-1.008.352-.24.768-.36 1.248-.36.568 0 1.012.144 1.332.432.328.28.54.712.636 1.296l-.288-.264c.16-.44.432-.792.816-1.056a2.265 2.265 0 0 1 1.344-.408c.68 0 1.188.208 1.524.624.336.408.504 1.032.504 1.872v3.72h-1.5v-3.672c0-.464-.08-.804-.24-1.02-.152-.224-.408-.336-.769-.336-.415 0-.743.148-.983.444-.232.288-.349.688-.349 1.2v3.384h-1.499v-3.672c0-.464-.084-.804-.252-1.02-.16-.224-.416-.336-.768-.336-.424 0-.756.148-.996.444-.232.288-.348.688-.348 1.2v3.384h-1.5Zm10.792 0v-6.06h1.5v6.06h-1.5Zm-.072-8.808h1.668v1.476h-1.668v-1.476Zm2.446 3.876v-1.128h4.272v1.128h-4.272Zm4.272 3.684v1.188c-.16.056-.32.092-.48.108a3.16 3.16 0 0 1-.492.036c-.68 0-1.208-.192-1.584-.576-.368-.384-.552-.936-.552-1.656v-5.388l1.5-.504v5.82c0 .272.044.488.132.648.088.152.204.26.348.324.152.064.32.096.504.096.104 0 .204-.008.3-.024s.204-.04.324-.072Z"/>
  <rect width="270" height="142.346" x="118.5" y="37.5" stroke="#2E51ED" rx="6.5"/>
  <rect width="335" height="79" x="118.5" y="211.5" fill="#EDF4FF" rx="8.5"/>
  <path fill="#2036A1" d="M131.968 235v-7.832h3.124c.807 0 1.434.194 1.881.583.455.389.682.924.682 1.606 0 .675-.227 1.21-.682 1.606-.455.396-1.082.594-1.881.594h-2.222V235h-.902Zm.902-4.191h2.145c.579 0 1.016-.125 1.309-.374.293-.257.44-.616.44-1.078 0-.462-.147-.818-.44-1.067-.293-.249-.73-.374-1.309-.374h-2.145v2.893Zm8.093 4.268c-.491 0-.924-.114-1.298-.341a2.377 2.377 0 0 1-.858-.99c-.198-.433-.297-.939-.297-1.518 0-.579.103-1.085.308-1.518.206-.433.492-.77.858-1.012a2.316 2.316 0 0 1 1.287-.363c.506 0 .935.125 1.287.374.352.249.591.605.715 1.067l-.132.088v-1.397h.88V235h-.88v-1.43l.132.066c-.124.462-.363.818-.715 1.067s-.781.374-1.287.374Zm.176-.737c.543 0 .961-.183 1.254-.55.294-.374.44-.902.44-1.584s-.15-1.206-.451-1.573c-.293-.367-.707-.55-1.243-.55-.542 0-.968.191-1.276.572-.3.374-.451.898-.451 1.573 0 .675.151 1.195.451 1.562.308.367.734.55 1.276.55Zm3.516-4.169v-.704h3.553v.704h-3.553Zm3.531 4.037v.759a2.26 2.26 0 0 1-.374.077 2.154 2.154 0 0 1-.396.033c-.513 0-.924-.147-1.232-.44-.301-.293-.451-.733-.451-1.32v-5.269l.891-.319v5.467c0 .293.04.521.121.682a.752.752 0 0 0 .352.341c.147.059.312.088.495.088.11 0 .209-.007.297-.022s.187-.04.297-.077Zm1.096.792v-8.096h.891v3.685l-.143.11c.154-.447.41-.785.77-1.012a2.217 2.217 0 0 1 1.243-.352c1.327 0 1.991.73 1.991 2.189V235h-.891v-3.432c0-.513-.103-.887-.308-1.122-.206-.242-.528-.363-.968-.363-.514 0-.924.158-1.232.473-.308.315-.462.741-.462 1.276V235h-.891Zm6.28-1.133h1.133V235h-1.133v-1.133Zm0-4.279h1.133v1.144h-1.133v-1.144ZM131.968 249v-7.832h3.146c.792 0 1.412.18 1.859.539.447.352.671.854.671 1.507 0 .455-.125.84-.374 1.155-.242.308-.579.528-1.012.66v-.088c.491.095.876.312 1.155.649s.418.763.418 1.276c0 .689-.227 1.217-.682 1.584-.455.367-1.096.55-1.925.55h-3.256Zm.891-.748h2.288c.616 0 1.067-.114 1.353-.341.293-.227.44-.583.44-1.067 0-.477-.147-.836-.44-1.078-.293-.242-.744-.363-1.353-.363h-2.288v2.849Zm0-3.608h2.112c.594 0 1.038-.117 1.331-.352.301-.235.451-.579.451-1.034 0-.447-.147-.781-.44-1.001-.293-.227-.741-.341-1.342-.341h-2.112v2.728Zm6.486 4.356v-3.982c0-.257-.007-.513-.022-.77a6.723 6.723 0 0 0-.066-.781h.847l.121 1.364-.121-.033c.103-.484.323-.847.66-1.089a1.928 1.928 0 0 1 1.419-.352c.088.007.169.022.242.044l-.022.814a1.76 1.76 0 0 0-.583-.088c-.381 0-.689.084-.924.253a1.526 1.526 0 0 0-.506.649 2.186 2.186 0 0 0-.154.814V249h-.891Zm6.166.077c-.528 0-.99-.117-1.386-.352a2.443 2.443 0 0 1-.913-.99c-.212-.433-.319-.942-.319-1.529 0-.579.107-1.085.319-1.518.22-.433.525-.766.913-1.001.396-.235.858-.352 1.386-.352.528 0 .987.117 1.375.352.396.235.701.568.913 1.001.22.433.33.939.33 1.518 0 .587-.11 1.096-.33 1.529a2.339 2.339 0 0 1-.913.99c-.388.235-.847.352-1.375.352Zm0-.737c.543 0 .961-.18 1.254-.539.301-.367.451-.898.451-1.595 0-.682-.15-1.206-.451-1.573-.3-.367-.718-.55-1.254-.55-.535 0-.957.183-1.265.55-.3.367-.451.891-.451 1.573 0 .697.147 1.228.44 1.595.301.359.726.539 1.276.539Zm5.428.66-2.046-5.533h.935l1.705 4.873h-.286l1.76-4.873h.781l1.738 4.873h-.286l1.738-4.873h.88L155.812 249h-.858l-1.826-4.983h.484L151.797 249h-.858Zm9.849.077c-.932 0-1.669-.238-2.211-.715l.297-.66c.293.227.594.396.902.506.315.103.663.154 1.045.154.418 0 .733-.07.946-.209a.71.71 0 0 0 .33-.627.645.645 0 0 0-.22-.517c-.147-.132-.389-.238-.726-.319l-.935-.22c-.462-.103-.822-.286-1.078-.55a1.327 1.327 0 0 1-.374-.946c0-.323.088-.605.264-.847a1.73 1.73 0 0 1 .737-.583c.315-.139.689-.209 1.122-.209.388 0 .755.062 1.1.187.344.125.634.304.869.539l-.297.649a2.792 2.792 0 0 0-.814-.484 2.267 2.267 0 0 0-.858-.165c-.396 0-.704.077-.924.231a.733.733 0 0 0-.319.627c0 .227.066.407.198.539.139.132.359.235.66.308l.935.231c.52.11.902.293 1.144.55.249.249.374.568.374.957 0 .477-.195.858-.583 1.144-.389.286-.917.429-1.584.429Zm8.119-.737a2.58 2.58 0 0 1-.935.539 3.446 3.446 0 0 1-1.155.198c-.572 0-1.067-.114-1.485-.341a2.365 2.365 0 0 1-.957-.979c-.22-.433-.33-.946-.33-1.54 0-.572.11-1.074.33-1.507.22-.433.524-.77.913-1.012.396-.242.85-.363 1.364-.363.491 0 .913.11 1.265.33.352.213.619.521.803.924.19.403.286.887.286 1.452v.165h-4.18v-.583h3.674l-.286.407c.014-.645-.114-1.14-.385-1.485-.264-.345-.653-.517-1.166-.517-.536 0-.957.191-1.265.572-.301.374-.451.895-.451 1.562 0 .719.157 1.261.473 1.628.322.367.792.55 1.408.55.322 0 .63-.051.924-.154.3-.11.586-.275.858-.495l.297.649Zm1.451.66v-3.982c0-.257-.007-.513-.022-.77a6.723 6.723 0 0 0-.066-.781h.847l.121 1.364-.121-.033c.103-.484.323-.847.66-1.089a1.928 1.928 0 0 1 1.419-.352c.088.007.169.022.242.044l-.022.814a1.765 1.765 0 0 0-.583-.088c-.381 0-.689.084-.924.253a1.526 1.526 0 0 0-.506.649 2.166 2.166 0 0 0-.154.814V249h-.891Zm3.971-1.133h1.133V249h-1.133v-1.133Zm0-4.279h1.133v1.144h-1.133v-1.144ZM134.443 263l-3.421-7.832h.957l3.047 7.106h-.363l3.058-7.106h.935L135.235 263h-.792Zm5.085 0v-5.533h.891V263h-.891Zm-.088-7.876h1.089v1.012h-1.089v-1.012Zm7.241 7.216a2.58 2.58 0 0 1-.935.539 3.446 3.446 0 0 1-1.155.198c-.572 0-1.067-.114-1.485-.341a2.365 2.365 0 0 1-.957-.979c-.22-.433-.33-.946-.33-1.54 0-.572.11-1.074.33-1.507.22-.433.524-.77.913-1.012a2.564 2.564 0 0 1 1.364-.363c.491 0 .913.11 1.265.33.352.213.62.521.803.924.191.403.286.887.286 1.452v.165h-4.18v-.583h3.674l-.286.407c.015-.645-.114-1.14-.385-1.485-.264-.345-.653-.517-1.166-.517-.535 0-.957.191-1.265.572-.301.374-.451.895-.451 1.562 0 .719.158 1.261.473 1.628.323.367.792.55 1.408.55.323 0 .631-.051.924-.154.301-.11.587-.275.858-.495l.297.649Zm2.872.66-2.046-5.533h.935l1.705 4.873h-.286l1.76-4.873h.781l1.738 4.873h-.286l1.738-4.873h.88L154.426 263h-.858l-1.826-4.983h.484L150.411 263h-.858Zm8.076 2.376v-6.358c0-.257-.008-.513-.022-.77a7.193 7.193 0 0 0-.066-.781h.847l.099 1.144-.088.165c.124-.462.363-.818.715-1.067s.777-.374 1.276-.374c.484 0 .909.121 1.276.363.374.242.663.579.869 1.012.212.433.319.939.319 1.518 0 .579-.107 1.085-.319 1.518a2.377 2.377 0 0 1-.858.99c-.367.227-.796.341-1.287.341-.499 0-.924-.125-1.276-.374s-.591-.605-.715-1.067l.121-.11v3.85h-.891Zm2.596-3.036c.535 0 .953-.183 1.254-.55.3-.367.451-.887.451-1.562s-.151-1.199-.451-1.573c-.301-.381-.719-.572-1.254-.572-.55 0-.972.183-1.265.55-.294.367-.44.891-.44 1.573 0 .682.146 1.21.44 1.584.293.367.715.55 1.265.55Zm6.287.737c-.528 0-.99-.117-1.386-.352a2.443 2.443 0 0 1-.913-.99c-.212-.433-.319-.942-.319-1.529 0-.579.107-1.085.319-1.518.22-.433.525-.766.913-1.001.396-.235.858-.352 1.386-.352.528 0 .987.117 1.375.352.396.235.701.568.913 1.001.22.433.33.939.33 1.518 0 .587-.11 1.096-.33 1.529a2.339 2.339 0 0 1-.913.99c-.388.235-.847.352-1.375.352Zm0-.737c.543 0 .961-.18 1.254-.539.301-.367.451-.898.451-1.595 0-.682-.15-1.206-.451-1.573-.3-.367-.718-.55-1.254-.55-.535 0-.957.183-1.265.55-.3.367-.451.891-.451 1.573 0 .697.147 1.228.44 1.595.301.359.726.539 1.276.539Zm4.007.66v-3.982c0-.257-.007-.513-.022-.77a6.723 6.723 0 0 0-.066-.781h.847l.121 1.364-.121-.033c.103-.484.323-.847.66-1.089a1.928 1.928 0 0 1 1.419-.352c.088.007.169.022.242.044l-.022.814a1.765 1.765 0 0 0-.583-.088c-.381 0-.689.084-.924.253a1.526 1.526 0 0 0-.506.649 2.166 2.166 0 0 0-.154.814V263h-.891Zm3.645-4.829v-.704h3.553v.704h-3.553Zm3.531 4.037v.759a2.26 2.26 0 0 1-.374.077 2.154 2.154 0 0 1-.396.033c-.513 0-.924-.147-1.232-.44-.301-.293-.451-.733-.451-1.32v-5.269l.891-.319v5.467c0 .293.04.521.121.682a.752.752 0 0 0 .352.341c.147.059.312.088.495.088.11 0 .209-.007.297-.022s.187-.04.297-.077Zm.952-.341h1.133V263h-1.133v-1.133Zm0-4.279h1.133v1.144h-1.133v-1.144ZM131.968 277v-7.832h.902v7.062h3.927v.77h-4.829Zm7.996.077c-.491 0-.924-.114-1.298-.341a2.377 2.377 0 0 1-.858-.99c-.198-.433-.297-.939-.297-1.518 0-.579.103-1.085.308-1.518.206-.433.492-.77.858-1.012a2.316 2.316 0 0 1 1.287-.363c.506 0 .935.125 1.287.374.352.249.591.605.715 1.067l-.132.088v-1.397h.88V277h-.88v-1.43l.132.066c-.124.462-.363.818-.715 1.067s-.781.374-1.287.374Zm.176-.737c.543 0 .961-.183 1.254-.55.294-.374.44-.902.44-1.584s-.15-1.206-.451-1.573c-.293-.367-.707-.55-1.243-.55-.542 0-.968.191-1.276.572-.3.374-.451.898-.451 1.573 0 .675.151 1.195.451 1.562.308.367.734.55 1.276.55Zm4.297.66v-3.982c0-.257-.007-.513-.022-.77a6.723 6.723 0 0 0-.066-.781h.847l.099 1.144-.11.088c.154-.447.411-.785.77-1.012a2.22 2.22 0 0 1 1.243-.352c1.327 0 1.991.73 1.991 2.189V277h-.891v-3.432c0-.513-.103-.887-.308-1.122-.205-.242-.528-.363-.968-.363-.513 0-.924.158-1.232.473-.308.315-.462.741-.462 1.276V277h-.891Zm8.866 2.453c-.836 0-1.562-.191-2.178-.572l.154-.726c.344.198.671.341.979.429.308.088.656.132 1.045.132.528 0 .927-.143 1.199-.429.278-.279.418-.697.418-1.254v-1.496l.121-.143c-.088.293-.228.55-.418.77a1.862 1.862 0 0 1-.682.495c-.272.117-.58.176-.924.176a2.45 2.45 0 0 1-1.298-.341 2.465 2.465 0 0 1-.869-.968c-.206-.411-.308-.891-.308-1.441s.102-1.03.308-1.441a2.38 2.38 0 0 1 .869-.957 2.386 2.386 0 0 1 1.298-.352c.513 0 .946.128 1.298.385.359.249.601.601.726 1.056l-.132-.121v-1.188h.891v5.489c0 .829-.213 1.452-.638 1.87-.418.418-1.038.627-1.859.627Zm-.11-3.366c.535 0 .953-.176 1.254-.528.308-.359.462-.851.462-1.474s-.154-1.111-.462-1.463c-.301-.359-.719-.539-1.254-.539-.543 0-.972.18-1.287.539-.308.352-.462.84-.462 1.463 0 .631.154 1.122.462 1.474.315.352.744.528 1.287.528Zm6.275.99c-.66 0-1.158-.183-1.496-.55-.33-.367-.495-.909-.495-1.628v-3.432h.891v3.41c0 .499.103.865.308 1.1.206.235.517.352.935.352.492 0 .888-.158 1.188-.473.301-.315.451-.737.451-1.265v-3.124h.891V277h-.869v-1.199l.132-.066c-.146.44-.396.774-.748 1.001-.344.227-.74.341-1.188.341Zm6.514 0c-.491 0-.924-.114-1.298-.341a2.363 2.363 0 0 1-.858-.99c-.198-.433-.297-.939-.297-1.518 0-.579.103-1.085.308-1.518a2.42 2.42 0 0 1 .858-1.012 2.316 2.316 0 0 1 1.287-.363c.506 0 .935.125 1.287.374.352.249.59.605.715 1.067l-.132.088v-1.397h.88V277h-.88v-1.43l.132.066c-.125.462-.363.818-.715 1.067s-.781.374-1.287.374Zm.176-.737c.543 0 .961-.183 1.254-.55.293-.374.44-.902.44-1.584s-.15-1.206-.451-1.573c-.293-.367-.708-.55-1.243-.55-.543 0-.968.191-1.276.572-.301.374-.451.898-.451 1.573 0 .675.15 1.195.451 1.562.308.367.733.55 1.276.55Zm6.728 3.113c-.836 0-1.562-.191-2.178-.572l.154-.726c.344.198.671.341.979.429.308.088.656.132 1.045.132.528 0 .927-.143 1.199-.429.278-.279.418-.697.418-1.254v-1.496l.121-.143c-.088.293-.228.55-.418.77a1.862 1.862 0 0 1-.682.495c-.272.117-.58.176-.924.176a2.45 2.45 0 0 1-1.298-.341 2.465 2.465 0 0 1-.869-.968c-.206-.411-.308-.891-.308-1.441s.102-1.03.308-1.441a2.38 2.38 0 0 1 .869-.957 2.386 2.386 0 0 1 1.298-.352c.513 0 .946.128 1.298.385.359.249.601.601.726 1.056l-.132-.121v-1.188h.891v5.489c0 .829-.213 1.452-.638 1.87-.418.418-1.038.627-1.859.627Zm-.11-3.366c.535 0 .953-.176 1.254-.528.308-.359.462-.851.462-1.474s-.154-1.111-.462-1.463c-.301-.359-.719-.539-1.254-.539-.543 0-.972.18-1.287.539-.308.352-.462.84-.462 1.463 0 .631.154 1.122.462 1.474.315.352.744.528 1.287.528Zm8.849.253a2.572 2.572 0 0 1-.935.539 3.446 3.446 0 0 1-1.155.198c-.572 0-1.067-.114-1.485-.341a2.377 2.377 0 0 1-.957-.979c-.22-.433-.33-.946-.33-1.54 0-.572.11-1.074.33-1.507.22-.433.525-.77.913-1.012a2.564 2.564 0 0 1 1.364-.363c.492 0 .913.11 1.265.33.352.213.62.521.803.924.191.403.286.887.286 1.452v.165h-4.18v-.583h3.674l-.286.407c.015-.645-.113-1.14-.385-1.485-.264-.345-.652-.517-1.166-.517-.535 0-.957.191-1.265.572-.3.374-.451.895-.451 1.562 0 .719.158 1.261.473 1.628.323.367.792.55 1.408.55.323 0 .631-.051.924-.154.301-.11.587-.275.858-.495l.297.649Zm1.298-.473h1.133V277h-1.133v-1.133Zm0-4.279h1.133v1.144h-1.133v-1.144Z"/>
  <path fill="#2036A1" d="M225.561 235.605h-.814l2.827-8.844h.825l-2.838 8.844Zm3.751 13.483c-.748 0-1.393-.161-1.936-.484a3.2 3.2 0 0 1-1.254-1.386c-.293-.601-.44-1.316-.44-2.145s.147-1.54.44-2.134a3.211 3.211 0 0 1 1.254-1.375c.543-.323 1.188-.484 1.936-.484.535 0 1.03.084 1.485.253.455.161.847.407 1.177.737l-.341.693c-.374-.323-.744-.554-1.111-.693a3.356 3.356 0 0 0-1.199-.209c-.858 0-1.525.279-2.002.836-.469.557-.704 1.349-.704 2.376 0 1.034.235 1.833.704 2.398.469.557 1.137.836 2.002.836.433 0 .832-.07 1.199-.209.367-.139.737-.37 1.111-.693l.341.693c-.33.33-.722.579-1.177.748-.455.161-.95.242-1.485.242Zm4.066-.088v-8.096h.891v3.685l-.143.11c.154-.447.41-.785.77-1.012a2.217 2.217 0 0 1 1.243-.352c1.327 0 1.991.73 1.991 2.189V249h-.891v-3.432c0-.513-.103-.887-.308-1.122-.206-.242-.528-.363-.968-.363-.514 0-.924.158-1.232.473-.308.315-.462.741-.462 1.276V249h-.891Zm6.434 0v-3.982c0-.257-.007-.513-.022-.77a6.723 6.723 0 0 0-.066-.781h.847l.121 1.364-.121-.033c.103-.484.323-.847.66-1.089a1.928 1.928 0 0 1 1.419-.352c.088.007.169.022.242.044l-.022.814a1.765 1.765 0 0 0-.583-.088c-.381 0-.689.084-.924.253a1.526 1.526 0 0 0-.506.649 2.166 2.166 0 0 0-.154.814V249h-.891Zm6.166.077c-.528 0-.99-.117-1.386-.352a2.436 2.436 0 0 1-.913-.99c-.213-.433-.319-.942-.319-1.529 0-.579.106-1.085.319-1.518.22-.433.524-.766.913-1.001.396-.235.858-.352 1.386-.352.528 0 .986.117 1.375.352.396.235.7.568.913 1.001.22.433.33.939.33 1.518 0 .587-.11 1.096-.33 1.529a2.345 2.345 0 0 1-.913.99c-.389.235-.847.352-1.375.352Zm0-.737c.543 0 .961-.18 1.254-.539.301-.367.451-.898.451-1.595 0-.682-.15-1.206-.451-1.573-.301-.367-.719-.55-1.254-.55s-.957.183-1.265.55c-.301.367-.451.891-.451 1.573 0 .697.147 1.228.44 1.595.301.359.726.539 1.276.539Zm4.007.66v-3.982c0-.257-.007-.513-.022-.77a6.723 6.723 0 0 0-.066-.781h.847l.099 1.144-.11.077c.132-.433.359-.766.682-1.001.33-.235.719-.352 1.166-.352.535 0 .95.132 1.243.396.301.264.491.667.572 1.21l-.264-.143a1.89 1.89 0 0 1 .704-1.067c.359-.264.788-.396 1.287-.396.609 0 1.067.183 1.375.55.308.359.462.906.462 1.639V249h-.891v-3.432c0-.513-.092-.887-.275-1.122-.183-.242-.473-.363-.869-.363-.462 0-.829.158-1.1.473-.264.315-.396.744-.396 1.287V249h-.891v-3.432c0-.513-.095-.887-.286-1.122-.183-.242-.473-.363-.869-.363-.469 0-.84.158-1.111.473-.264.315-.396.744-.396 1.287V249h-.891Zm14.2-.66a2.58 2.58 0 0 1-.935.539 3.446 3.446 0 0 1-1.155.198c-.572 0-1.067-.114-1.485-.341a2.365 2.365 0 0 1-.957-.979c-.22-.433-.33-.946-.33-1.54 0-.572.11-1.074.33-1.507.22-.433.524-.77.913-1.012a2.564 2.564 0 0 1 1.364-.363c.491 0 .913.11 1.265.33.352.213.62.521.803.924.191.403.286.887.286 1.452v.165h-4.18v-.583h3.674l-.286.407c.015-.645-.114-1.14-.385-1.485-.264-.345-.653-.517-1.166-.517-.535 0-.957.191-1.265.572-.301.374-.451.895-.451 1.562 0 .719.158 1.261.473 1.628.323.367.792.55 1.408.55.323 0 .631-.051.924-.154.301-.11.587-.275.858-.495l.297.649Zm6.596.253v-6.897l.517.264-2.123 1.353v-.869l2.002-1.276h.517v7.425h-.913Zm-1.727.407v-.759h4.367V249h-4.367Zm8.323-.407v-6.897l.517.264-2.123 1.353v-.869l2.002-1.276h.517v7.425h-.913Zm-1.727.407v-.759h4.367V249h-4.367Zm7.399 0h-.968l3.839-7.436.077.363h-4.444v-.759h5.17v.671L283.049 249Zm5.089-1.133h1.133V249h-1.133v-1.133Zm5.141 1.221c-.894 0-1.576-.337-2.046-1.012-.462-.682-.693-1.679-.693-2.992s.231-2.306.693-2.981c.462-.682 1.144-1.023 2.046-1.023.902 0 1.584.341 2.046 1.023.462.675.693 1.665.693 2.97 0 1.313-.234 2.31-.704 2.992-.462.682-1.14 1.023-2.035 1.023Zm0-.759c.624 0 1.082-.264 1.375-.792.301-.528.451-1.349.451-2.464s-.15-1.929-.451-2.442c-.293-.521-.751-.781-1.375-.781-.623 0-1.085.26-1.386.781-.293.521-.44 1.335-.44 2.442 0 1.115.147 1.936.44 2.464.301.528.763.792 1.386.792Zm4-.462h1.133V249h-1.133v-1.133Zm5.142 1.221c-.895 0-1.577-.337-2.046-1.012-.462-.682-.693-1.679-.693-2.992s.231-2.306.693-2.981c.462-.682 1.144-1.023 2.046-1.023.902 0 1.584.341 2.046 1.023.462.675.693 1.665.693 2.97 0 1.313-.235 2.31-.704 2.992-.462.682-1.14 1.023-2.035 1.023Zm0-.759c.623 0 1.082-.264 1.375-.792.301-.528.451-1.349.451-2.464s-.15-1.929-.451-2.442c-.293-.521-.752-.781-1.375-.781s-1.085.26-1.386.781c-.293.521-.44 1.335-.44 2.442 0 1.115.147 1.936.44 2.464.301.528.763.792 1.386.792Zm4-.462h1.133V249h-1.133v-1.133Zm5.142 1.221c-.895 0-1.577-.337-2.046-1.012-.462-.682-.693-1.679-.693-2.992s.231-2.306.693-2.981c.462-.682 1.144-1.023 2.046-1.023.902 0 1.584.341 2.046 1.023.462.675.693 1.665.693 2.97 0 1.313-.235 2.31-.704 2.992-.462.682-1.141 1.023-2.035 1.023Zm0-.759c.623 0 1.081-.264 1.375-.792.3-.528.451-1.349.451-2.464s-.151-1.929-.451-2.442c-.294-.521-.752-.781-1.375-.781-.624 0-1.086.26-1.386.781-.294.521-.44 1.335-.44 2.442 0 1.115.146 1.936.44 2.464.3.528.762.792 1.386.792Zm9.31.748c-.528 0-.99-.117-1.386-.352a2.436 2.436 0 0 1-.913-.99c-.213-.433-.319-.942-.319-1.529 0-.579.106-1.085.319-1.518.22-.433.524-.766.913-1.001.396-.235.858-.352 1.386-.352.528 0 .986.117 1.375.352.396.235.7.568.913 1.001.22.433.33.939.33 1.518 0 .587-.11 1.096-.33 1.529a2.345 2.345 0 0 1-.913.99c-.389.235-.847.352-1.375.352Zm0-.737c.542 0 .96-.18 1.254-.539.3-.367.451-.898.451-1.595 0-.682-.151-1.206-.451-1.573-.301-.367-.719-.55-1.254-.55-.536 0-.957.183-1.265.55-.301.367-.451.891-.451 1.573 0 .697.146 1.228.44 1.595.3.359.726.539 1.276.539Zm4.006.66v-3.982c0-.257-.007-.513-.022-.77a6.723 6.723 0 0 0-.066-.781h.847l.099 1.144-.11.088c.154-.447.411-.785.77-1.012.36-.235.774-.352 1.243-.352 1.328 0 1.991.73 1.991 2.189V249h-.891v-3.432c0-.513-.102-.887-.308-1.122-.205-.242-.528-.363-.968-.363-.513 0-.924.158-1.232.473-.308.315-.462.741-.462 1.276V249h-.891Zm9.413 0v-7.832h.748l3.179 7.227h-.418l3.146-7.227h.748V249h-.836v-6.644l.341.044-2.882 6.6h-.638l-2.926-6.6.363-.044.011 6.644h-.836Zm11.348.077c-.491 0-.924-.114-1.298-.341a2.377 2.377 0 0 1-.858-.99c-.198-.433-.297-.939-.297-1.518 0-.579.103-1.085.308-1.518.206-.433.492-.77.858-1.012a2.316 2.316 0 0 1 1.287-.363c.506 0 .935.125 1.287.374.352.249.591.605.715 1.067l-.132.088v-1.397h.88V249h-.88v-1.43l.132.066c-.124.462-.363.818-.715 1.067s-.781.374-1.287.374Zm.176-.737c.543 0 .961-.183 1.254-.55.294-.374.44-.902.44-1.584s-.15-1.206-.451-1.573c-.293-.367-.707-.55-1.243-.55-.542 0-.968.191-1.276.572-.3.374-.451.898-.451 1.573 0 .675.151 1.195.451 1.562.308.367.734.55 1.276.55Zm6.618.737c-.543 0-1.012-.117-1.408-.352a2.415 2.415 0 0 1-.924-.99c-.213-.425-.319-.928-.319-1.507 0-.572.11-1.074.33-1.507.22-.44.532-.781.935-1.023.403-.242.88-.363 1.43-.363.374 0 .733.066 1.078.198.352.125.642.301.869.528l-.297.66a3.183 3.183 0 0 0-.803-.473 2.018 2.018 0 0 0-.803-.165c-.557 0-1.001.187-1.331.561-.323.374-.484.902-.484 1.584 0 .675.161 1.195.484 1.562.323.367.766.55 1.331.55.271 0 .539-.051.803-.154.264-.11.532-.271.803-.484l.297.66c-.235.22-.532.396-.891.528a3.264 3.264 0 0 1-1.1.187Zm9.381.011c-.733 0-1.367-.161-1.903-.484-.528-.323-.938-.785-1.232-1.386-.286-.601-.429-1.313-.429-2.134 0-.829.143-1.54.429-2.134.286-.601.693-1.063 1.221-1.386.536-.323 1.174-.484 1.914-.484.734 0 1.368.161 1.903.484.536.323.946.785 1.232 1.386.286.594.429 1.302.429 2.123 0 .829-.146 1.544-.44 2.145a3.154 3.154 0 0 1-1.232 1.386c-.528.323-1.158.484-1.892.484Zm0-.77c.829 0 1.474-.279 1.936-.836.462-.565.693-1.368.693-2.409 0-1.041-.231-1.837-.693-2.387-.462-.557-1.107-.836-1.936-.836-.828 0-1.477.279-1.947.836-.462.557-.693 1.353-.693 2.387s.231 1.833.693 2.398c.47.565 1.119.847 1.947.847Zm7.705.77a6.15 6.15 0 0 1-1.133-.099 4.132 4.132 0 0 1-.979-.33 3.75 3.75 0 0 1-.814-.561l.341-.693c.396.33.792.565 1.188.704.404.139.873.209 1.408.209.624 0 1.108-.121 1.452-.363.345-.249.517-.598.517-1.045 0-.271-.088-.488-.264-.649-.168-.169-.403-.301-.704-.396a9.83 9.83 0 0 0-1.001-.286 13.362 13.362 0 0 1-1.067-.275 4.276 4.276 0 0 1-.902-.407 1.808 1.808 0 0 1-.605-.616c-.146-.249-.22-.561-.22-.935 0-.447.118-.84.352-1.177.235-.345.565-.612.99-.803.426-.191.928-.286 1.507-.286.36 0 .704.04 1.034.121.33.073.635.183.913.33.286.147.539.326.759.539l-.352.693a3.717 3.717 0 0 0-1.111-.693 3.423 3.423 0 0 0-1.243-.22c-.608 0-1.085.128-1.43.385-.344.257-.517.616-.517 1.078 0 .286.077.517.231.693.154.176.371.319.649.429.279.103.598.198.957.286.382.088.748.183 1.1.286.352.103.664.231.935.385.279.147.499.341.66.583.162.235.242.535.242.902 0 .447-.117.836-.352 1.166-.234.33-.568.587-1.001.77-.432.183-.946.275-1.54.275Zm9.403-.495v-6.897l.517.264-2.123 1.353v-.869l2.002-1.276h.517v7.425h-.913Zm-1.727.407v-.759h4.367V249h-4.367Zm8.488.088c-.895 0-1.577-.337-2.046-1.012-.462-.682-.693-1.679-.693-2.992s.231-2.306.693-2.981c.462-.682 1.144-1.023 2.046-1.023.902 0 1.584.341 2.046 1.023.462.675.693 1.665.693 2.97 0 1.313-.235 2.31-.704 2.992-.462.682-1.141 1.023-2.035 1.023Zm0-.759c.623 0 1.081-.264 1.375-.792.3-.528.451-1.349.451-2.464s-.151-1.929-.451-2.442c-.294-.521-.752-.781-1.375-.781-.624 0-1.086.26-1.386.781-.294.521-.44 1.335-.44 2.442 0 1.115.146 1.936.44 2.464.3.528.762.792 1.386.792Zm3.999-.462h1.133V249h-1.133v-1.133Zm4.977.726v-6.897l.517.264-2.123 1.353v-.869l2.002-1.276h.517v7.425h-.913Zm-1.727.407v-.759h4.367V249h-4.367Zm8.609.077c-.477 0-.946-.084-1.408-.253a3.43 3.43 0 0 1-1.166-.715l.341-.693c.359.293.722.517 1.089.671.374.154.755.231 1.144.231.55 0 .979-.154 1.287-.462.315-.315.473-.741.473-1.276 0-.345-.07-.645-.209-.902a1.5 1.5 0 0 0-.594-.616 1.722 1.722 0 0 0-.891-.22c-.374 0-.711.077-1.012.231a2.203 2.203 0 0 0-.781.682h-.627v-4.587h4.697v.748h-3.795v3.168l-.286-.033c.213-.308.484-.546.814-.715a2.493 2.493 0 0 1 1.133-.253c.499 0 .931.106 1.298.319.367.205.649.495.847.869.198.374.297.807.297 1.298s-.11.928-.33 1.309a2.252 2.252 0 0 1-.913.88c-.396.213-.865.319-1.408.319Zm3.879-1.21h1.133V249h-1.133v-1.133Zm4.053 1.133h-.968l3.839-7.436.077.363h-4.444v-.759h5.17v.671L409.474 249Zm-181.339 13.593v-6.897l.517.264-2.123 1.353v-.869l2.002-1.276h.517v7.425h-.913Zm-1.727.407v-.759h4.367V263h-4.367Zm8.246-7.92c.946 0 1.675.33 2.189.99.513.653.77 1.591.77 2.816 0 .887-.121 1.646-.363 2.277-.235.623-.58 1.1-1.034 1.43-.448.33-.99.495-1.628.495-.448 0-.888-.081-1.32-.242a3.487 3.487 0 0 1-1.133-.726l.352-.693c.374.315.729.546 1.067.693.337.139.678.209 1.023.209.674 0 1.195-.297 1.562-.891.374-.601.561-1.448.561-2.541v-.946l.143.286a2.15 2.15 0 0 1-.407.99 2.23 2.23 0 0 1-.803.638c-.323.147-.679.22-1.067.22-.477 0-.899-.103-1.265-.308a2.248 2.248 0 0 1-.858-.88c-.206-.374-.308-.807-.308-1.298 0-.484.106-.917.319-1.298.22-.381.52-.678.902-.891a2.55 2.55 0 0 1 1.298-.33Zm.044.759c-.506 0-.913.161-1.221.484-.301.315-.451.737-.451 1.265 0 .521.154.942.462 1.265.308.315.715.473 1.221.473.337 0 .638-.073.902-.22.264-.154.469-.359.616-.616.146-.264.22-.565.22-.902 0-.352-.074-.656-.22-.913a1.56 1.56 0 0 0-.616-.616 1.847 1.847 0 0 0-.913-.22Zm6.628 6.754v-6.897l.517.264-2.123 1.353v-.869l2.002-1.276h.517v7.425h-.913Zm-1.727.407v-.759h4.367V263h-4.367Zm8.246-7.92c.946 0 1.676.33 2.189.99.513.653.77 1.591.77 2.816 0 .887-.121 1.646-.363 2.277-.235.623-.579 1.1-1.034 1.43-.447.33-.99.495-1.628.495-.447 0-.887-.081-1.32-.242a3.498 3.498 0 0 1-1.133-.726l.352-.693c.374.315.73.546 1.067.693.337.139.678.209 1.023.209.675 0 1.195-.297 1.562-.891.374-.601.561-1.448.561-2.541v-.946l.143.286a2.14 2.14 0 0 1-.407.99 2.22 2.22 0 0 1-.803.638c-.323.147-.678.22-1.067.22-.477 0-.898-.103-1.265-.308a2.248 2.248 0 0 1-.858-.88c-.205-.374-.308-.807-.308-1.298 0-.484.106-.917.319-1.298.22-.381.521-.678.902-.891a2.55 2.55 0 0 1 1.298-.33Zm.044.759c-.506 0-.913.161-1.221.484-.301.315-.451.737-.451 1.265 0 .521.154.942.462 1.265.308.315.715.473 1.221.473.337 0 .638-.073.902-.22.264-.154.469-.359.616-.616.147-.264.22-.565.22-.902 0-.352-.073-.656-.22-.913a1.56 1.56 0 0 0-.616-.616 1.844 1.844 0 0 0-.913-.22ZM258.937 263l-1.749-2.178-.517-.671-2.167-2.684h1.078l1.606 2.035.539.649 2.277 2.849h-1.067Zm-3.476 0h-1.089l2.299-2.849.517-.649 1.606-2.035h1.089l-2.156 2.684-.539.671-1.727 2.178Zm10.603-7.92c.946 0 1.676.33 2.189.99.513.653.77 1.591.77 2.816 0 .887-.121 1.646-.363 2.277-.235.623-.579 1.1-1.034 1.43-.447.33-.99.495-1.628.495-.447 0-.887-.081-1.32-.242a3.498 3.498 0 0 1-1.133-.726l.352-.693c.374.315.73.546 1.067.693.337.139.678.209 1.023.209.675 0 1.195-.297 1.562-.891.374-.601.561-1.448.561-2.541v-.946l.143.286a2.14 2.14 0 0 1-.407.99 2.22 2.22 0 0 1-.803.638c-.323.147-.678.22-1.067.22-.477 0-.898-.103-1.265-.308a2.248 2.248 0 0 1-.858-.88c-.205-.374-.308-.807-.308-1.298 0-.484.106-.917.319-1.298.22-.381.521-.678.902-.891a2.55 2.55 0 0 1 1.298-.33Zm.044.759c-.506 0-.913.161-1.221.484-.301.315-.451.737-.451 1.265 0 .521.154.942.462 1.265.308.315.715.473 1.221.473.337 0 .638-.073.902-.22.264-.154.469-.359.616-.616.147-.264.22-.565.22-.902 0-.352-.073-.656-.22-.913a1.56 1.56 0 0 0-.616-.616 1.844 1.844 0 0 0-.913-.22Zm7.047 7.249c-.946 0-1.676-.326-2.189-.979-.514-.66-.77-1.602-.77-2.827 0-.887.117-1.643.352-2.266.242-.631.586-1.111 1.034-1.441.454-.33.997-.495 1.628-.495.454 0 .894.084 1.32.253.425.161.803.4 1.133.715l-.341.693c-.367-.315-.723-.543-1.067-.682a2.544 2.544 0 0 0-1.023-.22c-.675 0-1.199.301-1.573.902-.374.594-.561 1.437-.561 2.53v.946l-.132-.297c.058-.374.194-.697.407-.968.212-.279.476-.491.792-.638a2.442 2.442 0 0 1 1.067-.231c.484 0 .909.106 1.276.319.366.205.652.495.858.869.205.374.308.807.308 1.298 0 .484-.11.917-.33 1.298-.213.381-.51.682-.891.902-.374.213-.807.319-1.298.319Zm-.044-.759c.498 0 .902-.158 1.21-.473.308-.323.462-.748.462-1.276 0-.521-.154-.939-.462-1.254-.308-.323-.715-.484-1.221-.484-.338 0-.638.077-.902.231-.264.147-.47.352-.616.616-.147.257-.22.554-.22.891 0 .352.073.66.22.924.146.257.352.458.616.605.264.147.568.22.913.22Zm6.144-7.249c.946 0 1.676.33 2.189.99.514.653.77 1.591.77 2.816 0 .887-.121 1.646-.363 2.277-.234.623-.579 1.1-1.034 1.43-.447.33-.99.495-1.628.495-.447 0-.887-.081-1.32-.242a3.498 3.498 0 0 1-1.133-.726l.352-.693c.374.315.73.546 1.067.693a2.67 2.67 0 0 0 1.023.209c.675 0 1.196-.297 1.562-.891.374-.601.561-1.448.561-2.541v-.946l.143.286a2.13 2.13 0 0 1-.407.99c-.212.271-.48.484-.803.638a2.54 2.54 0 0 1-1.067.22c-.476 0-.898-.103-1.265-.308a2.261 2.261 0 0 1-.858-.88c-.205-.374-.308-.807-.308-1.298 0-.484.107-.917.319-1.298.22-.381.521-.678.902-.891.382-.22.814-.33 1.298-.33Zm.044.759c-.506 0-.913.161-1.221.484-.3.315-.451.737-.451 1.265 0 .521.154.942.462 1.265.308.315.715.473 1.221.473.338 0 .638-.073.902-.22.264-.154.47-.359.616-.616.147-.264.22-.565.22-.902 0-.352-.073-.656-.22-.913a1.554 1.554 0 0 0-.616-.616 1.844 1.844 0 0 0-.913-.22Zm11.62 8.844c-.968 0-1.804-.198-2.508-.594a4.097 4.097 0 0 1-1.628-1.65c-.381-.711-.572-1.536-.572-2.475 0-.741.117-1.408.352-2.002a4.428 4.428 0 0 1 .99-1.54 4.498 4.498 0 0 1 1.507-.979 4.996 4.996 0 0 1 1.859-.341c.748 0 1.401.117 1.958.352a4.11 4.11 0 0 1 1.408.935c.374.389.653.829.836 1.32.191.484.286.975.286 1.474 0 .579-.066 1.067-.198 1.463-.132.396-.308.715-.528.957-.22.242-.462.418-.726.528a2.081 2.081 0 0 1-.781.154c-.403 0-.719-.084-.946-.253-.22-.176-.341-.422-.363-.737h-.022a2.191 2.191 0 0 1-.682.715c-.279.183-.612.275-1.001.275-.477 0-.869-.165-1.177-.495-.301-.337-.451-.818-.451-1.441 0-.374.055-.733.165-1.078.11-.352.268-.664.473-.935.205-.271.451-.484.737-.638a1.94 1.94 0 0 1 .968-.242c.352 0 .656.084.913.253.264.169.433.385.506.649h.011l.132-.77h.726l-.528 3.014c-.066.418-.04.704.077.858.117.154.315.231.594.231.132 0 .279-.04.44-.121.161-.088.315-.227.462-.418.147-.191.264-.447.352-.77.095-.323.143-.722.143-1.199 0-.418-.077-.829-.231-1.232a3.361 3.361 0 0 0-.693-1.1c-.308-.33-.7-.59-1.177-.781-.477-.198-1.038-.297-1.683-.297-.565 0-1.089.095-1.573.286a3.71 3.71 0 0 0-1.276.836 3.815 3.815 0 0 0-.847 1.32c-.198.513-.297 1.096-.297 1.749 0 .821.158 1.536.473 2.145a3.393 3.393 0 0 0 1.375 1.408c.601.337 1.316.506 2.145.506.638 0 1.184-.092 1.639-.275.455-.183.799-.433 1.034-.748h.968c-.308.513-.777.92-1.408 1.221-.623.308-1.368.462-2.233.462Zm-.605-2.992c.389 0 .715-.114.979-.341.271-.235.473-.528.605-.88.139-.359.209-.73.209-1.111 0-.425-.106-.744-.319-.957-.205-.22-.48-.33-.825-.33-.367 0-.678.114-.935.341-.257.22-.455.502-.594.847a2.933 2.933 0 0 0-.198 1.056c0 .455.106.799.319 1.034.22.227.473.341.759.341Zm6.54 1.309v-.682l2.739-3.036c.367-.411.635-.781.803-1.111.169-.33.253-.66.253-.99 0-.433-.124-.763-.374-.99-.249-.235-.605-.352-1.067-.352-.381 0-.755.077-1.122.231-.366.147-.733.37-1.1.671l-.341-.693a3.4 3.4 0 0 1 1.166-.704 4.02 4.02 0 0 1 1.419-.264c.477 0 .888.084 1.232.253.352.161.624.396.814.704.191.308.286.675.286 1.1 0 .447-.102.88-.308 1.298-.198.411-.531.873-1.001 1.386l-2.64 2.86-.066-.44h4.345V263h-5.038Zm10.369 0-1.749-2.178-.517-.671-2.167-2.684h1.078l1.606 2.035.539.649L308.29 263h-1.067Zm-3.476 0h-1.089l2.299-2.849.517-.649 1.606-2.035h1.089l-2.156 2.684-.539.671-1.727 2.178Zm-73.357 13.34a2.58 2.58 0 0 1-.935.539 3.446 3.446 0 0 1-1.155.198c-.572 0-1.067-.114-1.485-.341a2.365 2.365 0 0 1-.957-.979c-.22-.433-.33-.946-.33-1.54 0-.572.11-1.074.33-1.507.22-.433.524-.77.913-1.012a2.564 2.564 0 0 1 1.364-.363c.491 0 .913.11 1.265.33.352.213.62.521.803.924.191.403.286.887.286 1.452v.165h-4.18v-.583h3.674l-.286.407c.015-.645-.114-1.14-.385-1.485-.264-.345-.653-.517-1.166-.517-.535 0-.957.191-1.265.572-.301.374-.451.895-.451 1.562 0 .719.158 1.261.473 1.628.323.367.792.55 1.408.55.323 0 .631-.051.924-.154.301-.11.587-.275.858-.495l.297.649Zm1.451.66v-3.982c0-.257-.007-.513-.022-.77a6.723 6.723 0 0 0-.066-.781h.847l.099 1.144-.11.088c.154-.447.411-.785.77-1.012.36-.235.774-.352 1.243-.352 1.328 0 1.991.73 1.991 2.189V277h-.891v-3.432c0-.513-.102-.887-.308-1.122-.205-.242-.528-.363-.968-.363-.513 0-.924.158-1.232.473-.308.315-.462.741-.462 1.276V277h-.891Z"/>
  <g clip-path="url(#a)">
    <g clip-path="url(#b)">
      <path fill="#191717" fill-rule="evenodd" d="M440.498 217a7.495 7.495 0 0 0-7.498 7.498 7.503 7.503 0 0 0 5.127 7.115c.373.069.511-.161.511-.364 0-.179-.005-.649-.009-1.274-2.085.451-2.527-1.004-2.527-1.004-.34-.865-.833-1.095-.833-1.095-.681-.465.051-.456.051-.456.75.055 1.15.773 1.15.773.668 1.146 1.754.815 2.182.622.069-.484.262-.815.474-1.004-1.666-.188-3.415-.833-3.415-3.705 0-.819.29-1.486.773-2.011-.078-.189-.336-.953.074-1.984 0 0 .63-.202 2.062.769a7.088 7.088 0 0 1 3.755 0c1.432-.971 2.062-.769 2.062-.769.41 1.031.152 1.795.074 1.984.479.525.769 1.192.769 2.011 0 2.881-1.754 3.512-3.425 3.701.267.23.511.69.511 1.39 0 1.003-.009 1.808-.009 2.057 0 .203.133.433.515.359a7.498 7.498 0 0 0 5.123-7.111 7.496 7.496 0 0 0-7.497-7.502Z" clip-rule="evenodd"/>
    </g>
  </g>
  <rect width="335" height="79" x="118.5" y="211.5" stroke="#2E51ED" rx="8.5"/>
  <circle cx="439" cy="15" r="15" fill="#CDE2FF"/>
  <path fill="#2036A1" d="M440.728 16.025c1.26.033 2.302.47 3.126 1.31.84.824 1.277 1.866 1.311 3.127a.786.786 0 0 1-.227.58.784.784 0 0 1-.58.227h-9.681a.786.786 0 0 1-.58-.227.786.786 0 0 1-.227-.58c.034-1.26.471-2.303 1.311-3.126.824-.84 1.866-1.278 3.126-1.311h2.421Zm-5.622 4.034h8.824a3.298 3.298 0 0 0-1.059-2.017c-.588-.521-1.303-.79-2.143-.807h-2.421c-.84.017-1.554.286-2.143.807a3.292 3.292 0 0 0-1.058 2.017Zm4.412-5.245c-.908-.016-1.673-.327-2.295-.932-.605-.622-.916-1.387-.933-2.295.017-.907.328-1.672.933-2.294.622-.605 1.387-.916 2.295-.933.907.017 1.672.328 2.294.933.605.622.916 1.387.933 2.294-.017.908-.328 1.673-.933 2.295-.622.605-1.387.916-2.294.933Zm0-5.244c-.572.017-1.051.21-1.437.58-.37.387-.564.866-.58 1.437.016.572.21 1.05.58 1.437.386.37.865.564 1.437.58.571-.016 1.05-.21 1.437-.58.369-.386.563-.865.58-1.437-.017-.571-.211-1.05-.58-1.437-.387-.37-.866-.563-1.437-.58Z"/>
  <path fill="#B5D2FB" d="M424 15a.5.5 0 0 0 0-1v1Zm-73.667 22.5a2.667 2.667 0 1 0 5.334 0 2.667 2.667 0 0 0-5.334 0Zm3.167-.938a.5.5 0 0 0-1 0h1Zm-1-1.874a.5.5 0 0 0 1 0h-1Zm1-1.876a.5.5 0 0 0-1 0h1Zm-1-1.874a.5.5 0 0 0 1 0h-1Zm1-1.875a.5.5 0 0 0-1 0h1Zm-1-1.875a.5.5 0 0 0 1 0h-1Zm1-1.875a.5.5 0 0 0-1 0h1Zm-1-1.875a.5.5 0 0 0 1 0h-1Zm1.063-1.918a.5.5 0 1 0-.991-.13l.991.13Zm-.418-2.274a.5.5 0 1 0 .924.383l-.924-.383Zm1.904-1.312a.5.5 0 1 0-.793-.609l.793.61Zm.776-2.178a.5.5 0 0 0 .609.793l-.609-.793Zm2.304-.187a.501.501 0 0 0-.383-.924l.383.924Zm1.761-1.497a.501.501 0 0 0 .13.991l-.13-.991Zm2.094.928a.5.5 0 1 0 0-1v1Zm1.969-1a.5.5 0 0 0 0 1v-1Zm1.969 1a.5.5 0 0 0 0-1v1Zm1.969-1a.5.5 0 1 0 0 1v-1Zm1.968 1a.5.5 0 1 0 0-1v1Zm1.969-1a.5.5 0 0 0 0 1v-1Zm1.969 1a.5.5 0 0 0 0-1v1Zm1.969-1a.5.5 0 1 0 0 1v-1Zm1.968 1a.5.5 0 1 0 0-1v1Zm1.969-1a.5.5 0 0 0 0 1v-1Zm1.969 1a.5.5 0 0 0 0-1v1Zm1.969-1a.5.5 0 1 0 0 1v-1Zm1.968 1a.5.5 0 1 0 0-1v1Zm1.969-1a.5.5 0 0 0 0 1v-1Zm1.969 1a.5.5 0 0 0 0-1v1Zm1.969-1a.5.5 0 1 0 0 1v-1Zm1.968 1a.5.5 0 1 0 0-1v1Zm1.969-1a.5.5 0 0 0 0 1v-1Zm1.969 1a.5.5 0 0 0 0-1v1Zm1.969-1a.5.5 0 1 0 0 1v-1Zm1.968 1a.5.5 0 1 0 0-1v1Zm1.969-1a.5.5 0 0 0 0 1v-1Zm1.969 1a.5.5 0 0 0 0-1v1Zm1.969-1a.5.5 0 1 0 0 1v-1Zm1.968 1a.5.5 0 1 0 0-1v1Zm1.969-1a.5.5 0 0 0 0 1v-1Zm1.969 1a.5.5 0 0 0 0-1v1Zm1.969-1a.5.5 0 1 0 0 1v-1Zm1.968 1a.5.5 0 1 0 0-1v1Zm1.969-1a.5.5 0 0 0 0 1v-1Zm1.969 1a.5.5 0 0 0 0-1v1Zm1.969-1a.5.5 0 1 0 0 1v-1ZM353.5 37.5v-.938h-1v.938h1Zm0-2.813v-1.874h-1v1.874h1Zm0-3.75v-1.875h-1v1.875h1Zm0-3.75v-1.875h-1v1.875h1Zm0-3.75V22.5h-1v.938h1Zm0-.937c0-.332.022-.66.063-.98l-.991-.13a8.468 8.468 0 0 0-.072 1.11h1Zm.569-2.87c.253-.61.584-1.18.98-1.696l-.793-.609a8.516 8.516 0 0 0-1.111 1.921l.924.383Zm2.365-3.08a7.515 7.515 0 0 1 1.695-.981l-.383-.924a8.506 8.506 0 0 0-1.921 1.111l.609.793Zm3.586-1.487c.32-.041.648-.063.98-.063v-1c-.376 0-.746.024-1.11.072l.13.991ZM361 15h.984v-1H361v1Zm2.953 0h1.969v-1h-1.969v1Zm3.938 0h1.968v-1h-1.968v1Zm3.937 0h1.969v-1h-1.969v1Zm3.938 0h1.968v-1h-1.968v1Zm3.937 0h1.969v-1h-1.969v1Zm3.938 0h1.968v-1h-1.968v1Zm3.937 0h1.969v-1h-1.969v1Zm3.938 0h1.968v-1h-1.968v1Zm3.937 0h1.969v-1h-1.969v1Zm3.938 0h1.968v-1h-1.968v1Zm3.937 0h1.969v-1h-1.969v1Zm3.938 0h1.968v-1h-1.968v1Zm3.937 0h1.969v-1h-1.969v1Zm3.938 0h1.968v-1h-1.968v1Zm3.937 0h1.969v-1h-1.969v1Zm3.938 0H424v-1h-.984v1Z"/>
  <path fill="#B5D2FB" d="M86.5 192a.5.5 0 0 0-1 0h1Zm32.5 66.667a2.667 2.667 0 1 0 0-5.334 2.667 2.667 0 0 0 0 5.334Zm-1.042-3.167a.5.5 0 0 0 0 1v-1Zm-2.083 1a.5.5 0 0 0 0-1v1Zm-2.083-1a.5.5 0 0 0 0 1v-1Zm-2.084 1a.5.5 0 0 0 0-1v1Zm-2.083-1a.5.5 0 0 0 0 1v-1Zm-2.083 1a.5.5 0 0 0 0-1v1Zm-2.084-1a.5.5 0 0 0 0 1v-1Zm-2.083 1a.5.5 0 0 0 0-1v1Zm-2.083-1a.5.5 0 0 0 0 1v-1Zm-2.084 1a.5.5 0 0 0 0-1v1Zm-2.083-1a.5.5 0 0 0 0 1v-1Zm-2.083 1a.5.5 0 0 0 0-1v1Zm-2.022-1.063a.5.5 0 1 0-.13.991l.13-.991Zm-2.274.418a.5.5 0 1 0 .383-.924l-.383.924Zm-1.312-1.904a.5.5 0 1 0-.609.793l.61-.793Zm-2.178-.776a.5.5 0 0 0 .793-.609l-.793.609Zm-.187-2.304a.501.501 0 0 0-.924.383l.924-.383Zm-1.497-1.761a.501.501 0 0 0 .991-.13l-.991.13ZM86.5 247a.5.5 0 0 0-1 0h1Zm-1-2a.5.5 0 0 0 1 0h-1Zm1-2a.5.5 0 0 0-1 0h1Zm-1-2a.5.5 0 0 0 1 0h-1Zm1-2a.5.5 0 0 0-1 0h1Zm-1-2a.5.5 0 0 0 1 0h-1Zm1-2a.5.5 0 0 0-1 0h1Zm-1-2a.5.5 0 0 0 1 0h-1Zm1-2a.5.5 0 0 0-1 0h1Zm-1-2a.5.5 0 0 0 1 0h-1Zm1-2a.5.5 0 0 0-1 0h1Zm-1-2a.5.5 0 0 0 1 0h-1Zm1-2a.5.5 0 0 0-1 0h1Zm-1-2a.5.5 0 0 0 1 0h-1Zm1-2a.5.5 0 0 0-1 0h1Zm-1-2a.5.5 0 0 0 1 0h-1Zm1-2a.5.5 0 0 0-1 0h1Zm-1-2a.5.5 0 0 0 1 0h-1Zm1-2a.5.5 0 0 0-1 0h1Zm-1-2a.5.5 0 0 0 1 0h-1Zm1-2a.5.5 0 0 0-1 0h1Zm-1-2a.5.5 0 0 0 1 0h-1Zm1-2a.5.5 0 0 0-1 0h1Zm-1-2a.5.5 0 0 0 1 0h-1Zm1-2a.5.5 0 0 0-1 0h1Zm-1-2a.5.5 0 0 0 1 0h-1Zm1-2a.5.5 0 0 0-1 0h1Zm-1-2a.5.5 0 0 0 1 0h-1Zm33.5 62.5h-1.042v1H119v-1Zm-3.125 0h-2.083v1h2.083v-1Zm-4.167 0h-2.083v1h2.083v-1Zm-4.166 0h-2.084v1h2.084v-1Zm-4.167 0h-2.083v1h2.083v-1Zm-4.167 0h-2.083v1h2.083v-1Zm-4.166 0H94v1h1.042v-1Zm-1.042 0c-.332 0-.66-.022-.98-.063l-.13.991c.364.048.734.072 1.11.072v-1Zm-2.87-.569a7.527 7.527 0 0 1-1.696-.98l-.609.793c.585.449 1.23.824 1.921 1.111l.383-.924Zm-3.08-2.365a7.515 7.515 0 0 1-.981-1.695l-.924.383a8.506 8.506 0 0 0 1.111 1.921l.793-.609Zm-1.487-3.586a7.574 7.574 0 0 1-.063-.98h-1c0 .376.024.746.072 1.11l.991-.13ZM86.5 248v-1h-1v1h1Zm0-3v-2h-1v2h1Zm0-4v-2h-1v2h1Zm0-4v-2h-1v2h1Zm0-4v-2h-1v2h1Zm0-4v-2h-1v2h1Zm0-4v-2h-1v2h1Zm0-4v-2h-1v2h1Zm0-4v-2h-1v2h1Zm0-4v-2h-1v2h1Zm0-4v-2h-1v2h1Zm0-4v-2h-1v2h1Zm0-4v-2h-1v2h1Zm0-4v-2h-1v2h1Zm0-4v-1h-1v1h1Z"/>
  <defs>
    <clipPath id="a">
      <path fill="#fff" d="M433 217h15v15h-15z"/>
    </clipPath>
    <clipPath id="b">
      <path fill="#fff" d="M433 217h15v14.627h-15z"/>
    </clipPath>
  </defs>
</svg>
