<svg xmlns="http://www.w3.org/2000/svg" width="500" height="285" fill="none" viewBox="0 0 500 285">
  <g clip-path="url(#a)">
    <g filter="url(#b)">
      <ellipse cx="285.5" cy="139" fill="#DEFFFE" rx="94.5" ry="87"/>
    </g>
    <g clip-path="url(#c)">
      <rect width="310" height="264" x="22" y="13" fill="#fff" rx="8"/>
      <mask id="d" fill="#fff">
        <path d="M22 37h157.915v409H22V37Z"/>
      </mask>
      <path fill="#fff" d="M22 37h157.915v409H22V37Z"/>
      <path fill="#2E51ED" d="M28.316 55.054a4.737 4.737 0 0 1 4.738-4.737H168.86a4.737 4.737 0 0 1 4.737 4.737v22.158a4.737 4.737 0 0 1-4.737 4.738H33.054a4.737 4.737 0 0 1-4.738-4.738V55.054Z"/>
      <path fill="#fff" d="M46.886 60.606c-2.755 0-5.137 1.956-5.137 4.54 0 .874.28 1.686.756 2.372l-.766 1.302.384 1.01h1.7l1.298-.422.156-.195.013-.918-.19-.125-1.464.476h-.421l.725-1.232-.27-.321c-.47-.556-.737-1.23-.737-1.948 0-1.776 1.688-3.354 3.953-3.354 2.044 0 3.627 1.291 3.908 2.847l.235.31.694.282.28-.182v-.296c-.231-2.389-2.5-4.146-5.117-4.146Z"/>
      <path fill="#fff" d="M49.438 65.738c-1.765 0-3.356 1.244-3.356 2.961 0 1.718 1.591 2.961 3.356 2.961a3.75 3.75 0 0 0 1.27-.219l.61.22h1.475v-1.287l-.178-.718c.115-.3.178-.622.178-.957 0-1.717-1.591-2.96-3.355-2.96Z"/>
      <path fill="#fff" d="M67.31 69.833c-2.255 0-3.653-1.565-3.653-4.097 0-2.531 1.392-4.091 3.654-4.091 1.846 0 3.26 1.209 3.379 2.882h-1.587c-.157-.901-.864-1.495-1.792-1.495-1.225 0-1.986 1.036-1.986 2.704 0 1.668.76 2.704 1.991 2.704.934 0 1.636-.55 1.792-1.408h1.587c-.135 1.662-1.506 2.8-3.384 2.8Zm7.368-.076c-1.83 0-2.93-1.16-2.93-3.098 0-1.921 1.117-3.098 2.93-3.098 1.814 0 2.931 1.171 2.931 3.098 0 1.943-1.1 3.098-2.93 3.098Zm0-1.241c.837 0 1.317-.68 1.317-1.857 0-1.166-.485-1.851-1.317-1.851-.836 0-1.317.685-1.317 1.851 0 1.177.475 1.857 1.317 1.857Zm4.216 1.117v-5.942h1.522v.955h.097c.275-.67.88-1.085 1.76-1.085 1.322 0 2.035.81 2.035 2.23v3.842h-1.571v-3.487c0-.836-.351-1.273-1.096-1.273-.729 0-1.177.518-1.177 1.322v3.438h-1.57Zm12.16-5.942-2.056 5.942h-1.77l-2.068-5.942h1.69l1.23 4.469h.097l1.22-4.47h1.657Zm4.664 4.264h1.462c-.232 1.106-1.263 1.802-2.72 1.802-1.813 0-2.882-1.144-2.882-3.066 0-1.932 1.09-3.13 2.86-3.13 1.755 0 2.791 1.123 2.791 3.001v.47h-4.086v.08c.022.907.54 1.474 1.36 1.474.621 0 1.047-.227 1.215-.631Zm-1.274-3.223c-.729 0-1.241.524-1.295 1.323h2.536c-.032-.815-.507-1.323-1.241-1.323Zm4.075 4.901v-5.942h1.522v.944h.097c.157-.594.772-1.042 1.528-1.042.216 0 .48.027.615.07v1.382c-.124-.043-.491-.086-.745-.086-.858 0-1.446.513-1.446 1.35v3.324h-1.57Zm4.539-4.21c0-1.112.994-1.862 2.478-1.862 1.511 0 2.402.631 2.488 1.754h-1.452c-.081-.394-.442-.637-1.025-.637-.562 0-.977.265-.977.653 0 .303.253.492.804.616l1.117.243c1.155.253 1.673.739 1.673 1.624 0 1.177-1.063 1.943-2.623 1.943-1.57 0-2.52-.642-2.628-1.765h1.533c.118.41.502.653 1.128.653.61 0 1.031-.27 1.031-.663 0-.303-.227-.486-.751-.605l-1.079-.243c-1.155-.254-1.717-.799-1.717-1.71Zm8.026 4.302c-1.144 0-1.948-.702-1.948-1.787 0-1.074.826-1.7 2.305-1.786l1.441-.087v-.49c0-.514-.356-.81-1.004-.81-.567 0-.945.2-1.074.572h-1.447c.103-1.09 1.112-1.776 2.607-1.776 1.576 0 2.467.745 2.467 2.013v4.06h-1.522v-.789h-.097c-.308.55-.956.88-1.728.88Zm.519-1.15c.728 0 1.279-.48 1.279-1.106v-.443l-1.204.081c-.675.043-1.004.297-1.004.734 0 .459.383.734.929.734Zm4.82-6.304h1.57v1.474h1.236v1.192h-1.236v2.731c0 .535.238.783.772.783.205 0 .313-.01.464-.027v1.16c-.194.038-.486.07-.788.07-1.446 0-2.018-.469-2.018-1.624v-3.093h-.929v-1.192h.929V62.27Zm4.917.507a.885.885 0 0 1-.891-.874c0-.491.405-.88.891-.88.485 0 .885.389.885.88a.88.88 0 0 1-.885.874Zm-.788 6.855v-5.942h1.57v5.942h-1.57Zm5.802.124c-1.83 0-2.931-1.16-2.931-3.098 0-1.921 1.117-3.098 2.931-3.098s2.931 1.171 2.931 3.098c0 1.943-1.101 3.098-2.931 3.098Zm0-1.241c.837 0 1.317-.68 1.317-1.857 0-1.166-.486-1.851-1.317-1.851-.837 0-1.317.685-1.317 1.851 0 1.177.475 1.857 1.317 1.857Zm4.215 1.117v-5.942h1.522v.955h.098c.275-.67.879-1.085 1.759-1.085 1.323 0 2.035.81 2.035 2.23v3.842h-1.571v-3.487c0-.836-.35-1.273-1.095-1.273-.729 0-1.177.518-1.177 1.322v3.438h-1.571Z"/>
      <path fill="#fff" d="M28.316 89.846a4.737 4.737 0 0 1 4.738-4.738H168.86a4.737 4.737 0 0 1 4.737 4.737v22.159a4.737 4.737 0 0 1-4.737 4.737H33.054a4.737 4.737 0 0 1-4.738-4.737V89.845Z"/>
      <path fill="#545A61" d="M51.41 96.875v3.869h.005v.652l.148.158h.888l.148-.158v-4.415l-.005-.005v-.591l-.79-.79h-9.078l-.79.79v9.08l.79.79 5.026-.001.159-.148v-.888l-.159-.148h-4.535l-.096-.096v-8.099l.096-.096h8.096l.096.096Z"/>
      <path fill="#545A61" d="m46.74 100.919 2.001-1.968h.927l.125.122v.913L46.84 102.9h-.175l-1.924-1.881v-.91l.125-.122h.924l.952.933Z"/>
      <path fill="#545A61" d="M50.625 107.08v-1.615H49.01l-.158-.148v-.889l.158-.148h1.615v-1.615l.148-.158h.888l.148.158v1.615h1.615l.159.148v.889l-.159.148H51.81v1.615l-.148.158h-.888l-.148-.158Z"/>
      <path fill="#545A61" d="M65.211 104.425h-1.176v-7.789h1.09l4 5.667h.086v-5.667h1.176v7.789h-1.09l-4-5.657h-.086v5.657Zm10.855-1.571h1.117c-.254 1.036-1.204 1.684-2.548 1.684-1.684 0-2.715-1.16-2.715-3.033 0-1.862 1.053-3.055 2.71-3.055 1.635 0 2.623 1.117 2.623 2.952v.4h-4.15v.053c.037 1.064.636 1.733 1.565 1.733.701 0 1.182-.259 1.398-.734Zm-1.442-3.46c-.858 0-1.457.626-1.522 1.571h2.969c-.027-.95-.588-1.57-1.447-1.57Zm11.632-.831-1.614 5.862H83.44l-1.215-4.372h-.092l-1.209 4.372h-1.192l-1.62-5.862h1.177l1.052 4.523h.087l1.209-4.523h1.112l1.209 4.523h.091l1.048-4.523h1.16Zm4.82-1.047a.734.734 0 0 1-.734-.729.735.735 0 0 1 1.468 0c0 .4-.33.729-.734.729Zm-.578 6.909v-5.862h1.155v5.862h-1.155Zm2.726-4.221c0-1.02.956-1.754 2.283-1.754 1.323 0 2.186.615 2.3 1.63h-1.112c-.108-.438-.53-.724-1.188-.724-.647 0-1.139.319-1.139.794 0 .362.297.588.934.739l.977.227c1.117.259 1.641.739 1.641 1.592 0 1.091-1.03 1.83-2.434 1.83-1.398 0-2.31-.631-2.413-1.652h1.16c.146.459.578.745 1.28.745.723 0 1.236-.334 1.236-.815 0-.367-.275-.604-.864-.745l-1.025-.243c-1.118-.259-1.636-.755-1.636-1.624Zm5.851 0c0-1.02.955-1.754 2.283-1.754 1.323 0 2.186.615 2.3 1.63h-1.112c-.108-.438-.529-.724-1.188-.724-.648 0-1.139.319-1.139.794 0 .362.297.588.934.739l.977.227c1.117.259 1.641.739 1.641 1.592 0 1.091-1.031 1.83-2.434 1.83-1.398 0-2.31-.631-2.413-1.652h1.16c.146.459.578.745 1.28.745.723 0 1.236-.334 1.236-.815 0-.367-.276-.604-.864-.745l-1.026-.243c-1.117-.259-1.635-.755-1.635-1.624Zm11.049-1.641v5.862h-1.118v-.929h-.091c-.286.664-.886 1.042-1.776 1.042-1.301 0-2.024-.793-2.024-2.17v-3.805h1.16v3.519c0 .972.384 1.436 1.236 1.436.939 0 1.452-.572 1.452-1.517v-3.438h1.161Zm5.538 4.291h1.117c-.254 1.036-1.204 1.684-2.548 1.684-1.684 0-2.715-1.16-2.715-3.033 0-1.862 1.053-3.055 2.71-3.055 1.635 0 2.623 1.117 2.623 2.952v.4h-4.151v.053c.038 1.064.637 1.733 1.566 1.733.701 0 1.182-.259 1.398-.734Zm-1.442-3.46c-.858 0-1.457.626-1.522 1.571h2.969c-.027-.95-.588-1.57-1.447-1.57Z"/>
      <path fill="#fff" d="M28.316 124.637a4.737 4.737 0 0 1 4.738-4.737H168.86a4.737 4.737 0 0 1 4.737 4.737v22.158a4.737 4.737 0 0 1-4.737 4.738H33.054a4.738 4.738 0 0 1-4.738-4.738v-22.158Z"/>
      <path fill="#545A61" fill-rule="evenodd" d="M44.634 132.163h1.316l.132-.132v-2.075l-.558-.557h-.464l-.558.557v2.075l.132.132Zm3.948 0h1.316l.131-.132v-2.075l-.557-.557h-.464l-.558.557v2.075l.132.132Zm-5.5 1.184-.159.17v1.24l.159.17h.187v1.579l1.776 1.353v.903l.889.902h.542v1.827l.558.542h.464l.558-.542v-1.827h.542l.889-.902v-.903l1.727-1.353v-1.579h.236l.159-.17v-1.24l-.159-.17h-8.368Zm6.947 1.185h-5.576v1.387l1.777 1.354v1.004l.2.203h1.672l.2-.203v-.994l1.727-1.354v-1.397Z" clip-rule="evenodd"/>
      <path fill="#545A61" d="M65.244 139.216h-1.21v-7.788h1.21v7.788Zm1.819 0v-5.861h1.117v.928h.086c.286-.648.87-1.042 1.754-1.042 1.312 0 2.035.783 2.035 2.181v3.794h-1.16v-3.519c0-.972-.41-1.447-1.269-1.447-.858 0-1.403.583-1.403 1.528v3.438h-1.16Zm7.038-7.34h1.16v1.495h1.274v.928h-1.274v3.093c0 .631.254.907.832.907.178 0 .28-.011.442-.027v.923a3.79 3.79 0 0 1-.631.059c-1.29 0-1.803-.453-1.803-1.581v-3.374h-.934v-.928h.934v-1.495Zm7.589 5.77h1.117c-.254 1.036-1.204 1.684-2.548 1.684-1.684 0-2.715-1.161-2.715-3.034 0-1.862 1.053-3.055 2.71-3.055 1.635 0 2.623 1.117 2.623 2.953v.399h-4.15v.054c.037 1.063.636 1.733 1.565 1.733.701 0 1.182-.26 1.398-.734Zm-1.441-3.46c-.859 0-1.458.626-1.522 1.57h2.968c-.027-.95-.588-1.57-1.446-1.57Zm6.498 7.27c-1.468 0-2.418-.653-2.542-1.641h1.187c.098.443.589.724 1.371.724.966 0 1.539-.475 1.539-1.269v-1.128h-.087c-.356.637-1.004.988-1.813.988-1.5 0-2.43-1.161-2.43-2.92 0-1.776.94-2.958 2.44-2.958.81 0 1.517.399 1.846 1.036h.092v-.933h1.112v5.921c0 1.333-1.052 2.18-2.715 2.18Zm-.016-3.287c.993 0 1.592-.761 1.592-1.959s-.604-1.965-1.592-1.965c-.998 0-1.56.767-1.56 1.965s.561 1.959 1.56 1.959Zm4.415 1.047v-5.861h1.117v.89h.087c.167-.577.82-.993 1.587-.993.172 0 .394.016.518.043v1.09a3.72 3.72 0 0 0-.648-.064c-.88 0-1.5.566-1.5 1.392v3.503h-1.16Zm6.007.097c-1.133 0-1.959-.68-1.959-1.748 0-1.053.788-1.663 2.186-1.749l1.593-.097v-.513c0-.642-.41-1.004-1.204-1.004-.648 0-1.096.243-1.225.669H95.42c.119-.988 1.069-1.63 2.402-1.63 1.473 0 2.305.734 2.305 1.965v4.01H99.01v-.831h-.092c-.35.594-.993.928-1.765.928Zm.297-.933c.875 0 1.522-.573 1.522-1.328v-.508l-1.435.098c-.81.054-1.177.34-1.177.874 0 .545.459.864 1.09.864Zm4.739-6.504h1.161v1.495h1.274v.928h-1.274v3.093c0 .631.254.907.831.907.178 0 .281-.011.443-.027v.923a3.795 3.795 0 0 1-.632.059c-1.29 0-1.803-.453-1.803-1.581v-3.374h-.933v-.928h.933v-1.495Zm4.399.431a.734.734 0 0 1-.734-.728.735.735 0 0 1 1.468 0 .733.733 0 0 1-.734.728Zm-.577 6.909v-5.861h1.155v5.861h-1.155Zm5.343.114c-1.721 0-2.774-1.15-2.774-3.045 0-1.889 1.058-3.044 2.774-3.044 1.711 0 2.769 1.15 2.769 3.044 0 1.895-1.052 3.045-2.769 3.045Zm0-.988c1.004 0 1.576-.756 1.576-2.057 0-1.306-.572-2.061-1.576-2.061-1.009 0-1.576.755-1.576 2.061 0 1.307.567 2.057 1.576 2.057Zm4.167.874v-5.861h1.117v.928h.087c.286-.648.869-1.042 1.754-1.042 1.312 0 2.035.783 2.035 2.181v3.794h-1.161v-3.519c0-.972-.41-1.447-1.268-1.447-.858 0-1.403.583-1.403 1.528v3.438h-1.161Zm6.493-4.221c0-1.02.956-1.754 2.284-1.754 1.322 0 2.185.615 2.299 1.63h-1.112c-.108-.437-.529-.723-1.187-.723-.648 0-1.139.318-1.139.793 0 .362.297.589.933.74l.977.227c1.118.259 1.641.739 1.641 1.592 0 1.09-1.031 1.83-2.434 1.83-1.398 0-2.31-.632-2.413-1.652h1.161c.145.459.577.745 1.279.745.723 0 1.236-.335 1.236-.815 0-.367-.275-.605-.864-.745l-1.025-.243c-1.117-.259-1.636-.756-1.636-1.625Z"/>
      <path fill="#D1D5DA" d="M34.633 161.008h132.649v.79H34.633z"/>
      <path fill="#fff" d="M28.316 176.01a4.738 4.738 0 0 1 4.738-4.738H168.86a4.737 4.737 0 0 1 4.737 4.738v22.158a4.737 4.737 0 0 1-4.737 4.737H33.054a4.737 4.737 0 0 1-4.738-4.737V176.01Z"/>
      <path fill="#545A61" d="m46.714 186.569-2.849 1.704h-.455l-.092-.087v-.889l1.846-1.108v-.174l-1.846-1.105v-.893l.092-.087h.455l2.849 1.718v.921Z"/>
      <path fill="#545A61" d="m50.058 188.83.09-.089v-.892l-.09-.089h-3.531l-.09.089v.892l.09.089h3.53Z"/>
      <path fill="#545A61" fill-rule="evenodd" d="M52.793 192.419H41.74l-.79-.79v-9.08l.79-.79h11.054l.79.79v9.08l-.79.79Zm-.395-1.28v-8.1l-.095-.095H42.23l-.096.095v8.1l.096.095h10.073l.096-.095Z" clip-rule="evenodd"/>
      <path fill="#545A61" d="M64.035 182.8h2.812c2.31 0 3.665 1.425 3.665 3.876 0 2.477-1.344 3.913-3.665 3.913h-2.812V182.8Zm1.209 1.042v5.705h1.468c1.63 0 2.569-1.042 2.569-2.855 0-1.798-.955-2.85-2.57-2.85h-1.467Zm10.627 5.176h1.118c-.254 1.036-1.204 1.684-2.548 1.684-1.684 0-2.715-1.16-2.715-3.033 0-1.862 1.052-3.055 2.71-3.055 1.635 0 2.623 1.117 2.623 2.952v.4h-4.151v.054c.038 1.063.637 1.732 1.565 1.732.702 0 1.182-.259 1.398-.734Zm-1.44-3.46c-.86 0-1.458.626-1.523 1.571h2.969c-.027-.95-.589-1.571-1.447-1.571Zm7.07-.933c1.495 0 2.44 1.171 2.44 3.033 0 1.851-.945 3.028-2.43 3.028-.836 0-1.5-.362-1.807-.982h-.092v2.839h-1.16v-7.816h1.117v.972h.086c.356-.67 1.047-1.074 1.846-1.074Zm-.33 5.068c.988 0 1.577-.761 1.577-2.035s-.589-2.04-1.571-2.04c-.977 0-1.587.782-1.587 2.04 0 1.252.61 2.035 1.582 2.035Zm4.221.896v-8.161h1.16v8.161h-1.16Zm5.387.113c-1.722 0-2.774-1.15-2.774-3.044 0-1.889 1.058-3.044 2.774-3.044 1.711 0 2.769 1.149 2.769 3.044 0 1.894-1.052 3.044-2.769 3.044Zm0-.988c1.004 0 1.576-.755 1.576-2.056 0-1.306-.572-2.062-1.576-2.062-1.01 0-1.576.756-1.576 2.062 0 1.306.567 2.056 1.576 2.056Zm4.523 3.001c-.097 0-.372-.01-.48-.027v-.95c.092.017.27.022.378.022.55 0 .863-.232 1.063-.853l.086-.302-2.126-5.878h1.263l1.473 4.696h.092l1.468-4.696h1.23l-2.19 6.132c-.503 1.408-1.059 1.856-2.257 1.856Zm8.712-2.126v-8.161h1.16v8.161h-1.16Zm5.386.113c-1.721 0-2.774-1.15-2.774-3.044 0-1.889 1.058-3.044 2.774-3.044 1.711 0 2.769 1.149 2.769 3.044 0 1.894-1.052 3.044-2.769 3.044Zm0-.988c1.004 0 1.577-.755 1.577-2.056 0-1.306-.573-2.062-1.577-2.062-1.009 0-1.576.756-1.576 2.062 0 1.306.567 2.056 1.576 2.056Zm6.645 3.115c-1.468 0-2.418-.653-2.542-1.641h1.187c.097.443.588.723 1.371.723.966 0 1.538-.475 1.538-1.268v-1.128h-.086c-.356.637-1.004.987-1.814.987-1.5 0-2.429-1.16-2.429-2.92 0-1.775.94-2.957 2.44-2.957.81 0 1.517.399 1.846 1.036h.092v-.934h1.112v5.921c0 1.333-1.053 2.181-2.715 2.181Zm-.016-3.287c.993 0 1.592-.761 1.592-1.96 0-1.198-.605-1.964-1.592-1.964-.999 0-1.56.766-1.56 1.964 0 1.199.561 1.96 1.56 1.96Zm4.28-3.174c0-1.02.955-1.754 2.283-1.754 1.322 0 2.186.615 2.299 1.63h-1.112c-.108-.437-.529-.723-1.187-.723-.648 0-1.139.318-1.139.793 0 .362.297.588.934.739l.977.227c1.117.259 1.641.74 1.641 1.592 0 1.091-1.031 1.83-2.435 1.83-1.398 0-2.31-.631-2.412-1.651h1.16c.146.458.578.744 1.279.744.724 0 1.236-.334 1.236-.815 0-.367-.275-.604-.863-.744l-1.026-.243c-1.117-.259-1.635-.756-1.635-1.625Z"/>
      <path fill="#fff" d="M28.316 210.801a4.737 4.737 0 0 1 4.738-4.737H168.86a4.737 4.737 0 0 1 4.737 4.737v22.158a4.737 4.737 0 0 1-4.737 4.738H33.054a4.738 4.738 0 0 1-4.738-4.738v-22.158Z"/>
      <path fill="#545A61" fill-rule="evenodd" d="m43.516 220.524 1.092-1.091h1.184l.327-1.845 1.765-1.472H50.4l1.092 1.092v1.449l-1.132 1.131.737.736v1.449l-1.092 1.092h-1.16l-.537 3.124-1.71 1.455h-2.384l-1.092-1.092v-1.448l1.092-1.092h.777l.166-.947h-.548l-1.092-1.092v-1.449Zm4.27 1.48.195-.163h1.891v-1.185h-1.615l-.194-.231.304-1.737.194-.163h1.706v-1.185H47.97l-.668.561-.453 2.592-.195.163H44.74v1.185h1.638l.194.231-.525 3.001-.194.163h-1.508v1.184h2.1l.667-.561.675-3.855Z" clip-rule="evenodd"/>
      <path fill="#545A61" d="M65.244 225.38h-1.21v-7.788h4.864v1.041h-3.654v2.467h3.346v1.02h-3.346v3.26Zm10.044-5.861v5.861h-1.117v-.928h-.092c-.286.664-.885 1.042-1.775 1.042-1.301 0-2.025-.794-2.025-2.17v-3.805h1.16v3.519c0 .971.384 1.436 1.237 1.436.94 0 1.452-.573 1.452-1.517v-3.438h1.16Zm1.684 5.861v-5.861h1.118v.928h.086c.286-.648.869-1.042 1.754-1.042 1.312 0 2.035.783 2.035 2.181v3.794h-1.16v-3.519c0-.971-.41-1.446-1.269-1.446-.858 0-1.403.583-1.403 1.527v3.438h-1.16Zm11.605-3.978h-1.128c-.135-.572-.61-1.009-1.387-1.009-.972 0-1.566.766-1.566 2.035 0 1.295.6 2.078 1.566 2.078.734 0 1.236-.346 1.387-.982h1.128c-.151 1.155-1.058 1.97-2.51 1.97-1.71 0-2.758-1.166-2.758-3.066 0-1.862 1.042-3.023 2.753-3.023 1.473 0 2.364.858 2.515 1.997Zm1.824-3.362h1.16v1.495h1.275v.928h-1.274v3.093c0 .631.253.907.831.907.178 0 .28-.011.443-.027v.923a3.793 3.793 0 0 1-.632.059c-1.29 0-1.803-.453-1.803-1.581v-3.374h-.933v-.928h.933v-1.495Zm4.4.432a.734.734 0 0 1-.735-.729.735.735 0 0 1 1.468 0c0 .399-.329.729-.734.729Zm-.578 6.908v-5.861h1.155v5.861h-1.155Zm5.343.114c-1.722 0-2.774-1.15-2.774-3.045 0-1.889 1.058-3.044 2.774-3.044 1.711 0 2.769 1.15 2.769 3.044 0 1.895-1.052 3.045-2.769 3.045Zm0-.988c1.004 0 1.576-.756 1.576-2.057 0-1.306-.572-2.061-1.576-2.061-1.01 0-1.576.755-1.576 2.061 0 1.307.567 2.057 1.576 2.057Zm4.167.874v-5.861h1.117v.928h.087c.286-.648.869-1.042 1.754-1.042 1.311 0 2.035.783 2.035 2.181v3.794h-1.161v-3.519c0-.971-.41-1.446-1.268-1.446-.858 0-1.403.583-1.403 1.527v3.438h-1.161Zm9.705 0v-8.161h1.16v8.161h-1.16Zm5.386.114c-1.721 0-2.774-1.15-2.774-3.045 0-1.889 1.058-3.044 2.774-3.044 1.711 0 2.769 1.15 2.769 3.044 0 1.895-1.052 3.045-2.769 3.045Zm0-.988c1.004 0 1.577-.756 1.577-2.057 0-1.306-.573-2.061-1.577-2.061-1.009 0-1.576.755-1.576 2.061 0 1.307.567 2.057 1.576 2.057Zm6.645 3.114c-1.468 0-2.418-.653-2.542-1.641h1.187c.097.443.588.724 1.371.724.966 0 1.538-.475 1.538-1.269v-1.128h-.086c-.356.637-1.004.988-1.814.988-1.5 0-2.429-1.161-2.429-2.92 0-1.776.94-2.958 2.44-2.958.81 0 1.517.4 1.846 1.036h.092v-.933h1.112v5.921c0 1.333-1.053 2.18-2.715 2.18Zm-.016-3.287c.993 0 1.592-.761 1.592-1.959s-.605-1.965-1.592-1.965c-.999 0-1.56.767-1.56 1.965s.561 1.959 1.56 1.959Zm4.28-3.174c0-1.02.955-1.754 2.283-1.754 1.322 0 2.186.616 2.299 1.63h-1.112c-.108-.437-.529-.723-1.187-.723-.648 0-1.139.319-1.139.794 0 .361.297.588.934.739l.977.227c1.117.259 1.641.739 1.641 1.592 0 1.09-1.031 1.83-2.435 1.83-1.398 0-2.31-.632-2.412-1.652h1.16c.146.459.578.745 1.279.745.724 0 1.236-.335 1.236-.815 0-.367-.275-.605-.863-.745l-1.026-.243c-1.117-.259-1.635-.756-1.635-1.625Z"/>
      <path fill="#fff" d="M28.316 245.593a4.738 4.738 0 0 1 4.738-4.738H168.86a4.737 4.737 0 0 1 4.737 4.738v22.158a4.737 4.737 0 0 1-4.737 4.737H33.054a4.737 4.737 0 0 1-4.738-4.737v-22.158Z"/>
      <path fill="#545A61" fill-rule="evenodd" d="m44.742 257.322 1.874 1.875h1.3l1.875-1.875v-1.301l-1.874-1.874h-1.301l-1.874 1.874v1.301Zm3.864-.81-1.18-1.18h-.32l-1.18 1.18v.32l1.18 1.18h.32l1.18-1.18v-.32Z" clip-rule="evenodd"/>
      <path fill="#545A61" fill-rule="evenodd" d="M48.422 250.553h-2.311l-.96 1.918-.465.269-2.141-.129-1.156 2.002 1.183 1.791v.536l-1.183 1.791 1.156 2.001 2.14-.128.467.269.959 1.918h2.311l.959-1.918.467-.269 2.14.128 1.155-2.001-1.18-1.789v-.54l1.18-1.789-1.155-2.002-2.14.129-.467-.269-.959-1.918Zm-2.37 2.766.791-1.582h.847l.79 1.581 1.084.625 1.764-.105.424.733-.974 1.475v1.251l.974 1.475-.424.734-1.764-.106-1.083.625-.79 1.582h-.848l-.79-1.582-1.083-.625-1.766.106-.423-.734.975-1.476v-1.248l-.975-1.477.423-.733 1.766.106 1.082-.625Z" clip-rule="evenodd"/>
      <path fill="#545A61" d="M64.035 252.383h2.812c2.31 0 3.665 1.425 3.665 3.876 0 2.477-1.344 3.913-3.665 3.913h-2.812v-7.789Zm1.209 1.042v5.705h1.468c1.63 0 2.569-1.042 2.569-2.855 0-1.798-.955-2.85-2.57-2.85h-1.467Zm10.627 5.176h1.118c-.254 1.036-1.204 1.684-2.548 1.684-1.684 0-2.715-1.16-2.715-3.033 0-1.862 1.052-3.055 2.71-3.055 1.635 0 2.623 1.117 2.623 2.952v.4h-4.151v.054c.038 1.063.637 1.732 1.565 1.732.702 0 1.182-.259 1.398-.734Zm-1.44-3.46c-.86 0-1.458.626-1.523 1.571h2.969c-.027-.95-.589-1.571-1.447-1.571Zm7.07-.933c1.495 0 2.44 1.171 2.44 3.033 0 1.851-.945 3.028-2.43 3.028-.836 0-1.5-.362-1.807-.982h-.092v2.839h-1.16v-7.816h1.117v.972h.086c.356-.67 1.047-1.074 1.846-1.074Zm-.33 5.068c.988 0 1.577-.761 1.577-2.035s-.589-2.04-1.571-2.04c-.977 0-1.587.782-1.587 2.04 0 1.252.61 2.035 1.582 2.035Zm4.221.896v-8.161h1.16v8.161h-1.16Zm5.387.113c-1.722 0-2.774-1.15-2.774-3.044 0-1.889 1.058-3.044 2.774-3.044 1.711 0 2.769 1.149 2.769 3.044 0 1.894-1.052 3.044-2.769 3.044Zm0-.988c1.004 0 1.576-.755 1.576-2.056 0-1.306-.572-2.062-1.576-2.062-1.01 0-1.576.756-1.576 2.062 0 1.306.567 2.056 1.576 2.056Zm4.523 3.001c-.097 0-.372-.01-.48-.027v-.95c.092.017.27.022.378.022.55 0 .863-.232 1.063-.853l.086-.302-2.126-5.878h1.263l1.473 4.696h.092l1.468-4.696h1.23l-2.19 6.132c-.503 1.408-1.059 1.856-2.257 1.856Zm8.523-6.347c0-1.02.955-1.754 2.283-1.754 1.322 0 2.186.615 2.299 1.63h-1.112c-.108-.437-.529-.723-1.187-.723-.648 0-1.139.318-1.139.793 0 .362.297.588.934.739l.977.227c1.117.259 1.641.74 1.641 1.592 0 1.091-1.031 1.83-2.435 1.83-1.398 0-2.31-.631-2.412-1.651h1.16c.146.458.578.744 1.279.744.724 0 1.236-.334 1.236-.815 0-.367-.275-.604-.863-.744l-1.026-.243c-1.117-.259-1.635-.756-1.635-1.625Zm9.947 2.65h1.118c-.254 1.036-1.204 1.684-2.548 1.684-1.684 0-2.715-1.16-2.715-3.033 0-1.862 1.053-3.055 2.71-3.055 1.635 0 2.623 1.117 2.623 2.952v.4h-4.151v.054c.038 1.063.637 1.732 1.565 1.732.702 0 1.183-.259 1.398-.734Zm-1.441-3.46c-.858 0-1.457.626-1.522 1.571h2.969c-.027-.95-.589-1.571-1.447-1.571Zm4.432-2.31h1.16v1.495h1.274v.929h-1.274v3.092c0 .632.254.907.831.907.178 0 .281-.011.443-.027v.923c-.189.033-.405.06-.632.06-1.29 0-1.802-.454-1.802-1.582v-3.373h-.934v-.929h.934v-1.495Zm4.231 0h1.161v1.495h1.274v.929h-1.274v3.092c0 .632.253.907.831.907.178 0 .281-.011.443-.027v.923c-.189.033-.405.06-.632.06-1.29 0-1.803-.454-1.803-1.582v-3.373h-.934v-.929h.934v-1.495Zm4.399.432a.733.733 0 0 1-.734-.729.735.735 0 0 1 1.468 0c0 .4-.329.729-.734.729Zm-.577 6.909v-5.862h1.155v5.862h-1.155Zm2.86 0v-5.862h1.118v.929h.086c.286-.648.869-1.042 1.754-1.042 1.312 0 2.035.782 2.035 2.18v3.795h-1.16v-3.519c0-.972-.411-1.447-1.269-1.447-.858 0-1.403.583-1.403 1.528v3.438h-1.161Zm9.106 2.24c-1.468 0-2.418-.653-2.542-1.641h1.187c.097.443.588.723 1.371.723.966 0 1.538-.475 1.538-1.268v-1.128h-.086c-.356.637-1.004.987-1.814.987-1.5 0-2.428-1.16-2.428-2.92 0-1.775.939-2.957 2.439-2.957.81 0 1.517.399 1.846 1.036h.092v-.934h1.112v5.921c0 1.333-1.053 2.181-2.715 2.181Zm-.016-3.287c.993 0 1.592-.761 1.592-1.96 0-1.198-.605-1.964-1.592-1.964-.999 0-1.56.766-1.56 1.964 0 1.199.561 1.96 1.56 1.96Zm4.28-3.174c0-1.02.955-1.754 2.283-1.754 1.322 0 2.186.615 2.299 1.63h-1.112c-.107-.437-.528-.723-1.187-.723-.648 0-1.139.318-1.139.793 0 .362.297.588.934.739l.977.227c1.117.259 1.641.74 1.641 1.592 0 1.091-1.031 1.83-2.435 1.83-1.397 0-2.31-.631-2.412-1.651h1.16c.146.458.578.744 1.279.744.724 0 1.236-.334 1.236-.815 0-.367-.275-.604-.863-.744l-1.026-.243c-1.117-.259-1.635-.756-1.635-1.625Z"/>
      <path fill="#fff" d="M28.316 280.384a4.737 4.737 0 0 1 4.738-4.737H168.86a4.737 4.737 0 0 1 4.737 4.737v22.158a4.737 4.737 0 0 1-4.737 4.738H33.054a4.738 4.738 0 0 1-4.738-4.738v-22.158Z"/>
      <path fill="#D1D5DA" d="M179.125 37v409h1.58V37h-1.58Z" mask="url(#d)"/>
      <mask id="f" width="347" height="31" x="22" y="13" fill="#000" maskUnits="userSpaceOnUse">
        <path fill="#fff" d="M22 13h347v31H22z"/>
        <path d="M22 19.035A6.035 6.035 0 0 1 28.035 13h334.93A6.035 6.035 0 0 1 369 19.035v24.139H22v-24.14Z"/>
      </mask>
      <path fill="#F6F6F7" d="M22 19.035A6.035 6.035 0 0 1 28.035 13h334.93A6.035 6.035 0 0 1 369 19.035v24.139H22v-24.14Z"/>
      <g clip-path="url(#e)">
        <path fill="#05BDBA" d="M42.945 33.394h-.171l-.854-.849v-.17l1.305-1.297h.904l.12.12v.899l-1.304 1.297Z"/>
        <path fill="#05BDBA" d="M41.92 23.797v-.17l.854-.848h.17l1.305 1.297v.898l-.12.12h-.904l-1.305-1.297Z"/>
        <path fill="#014847" d="M49.432 30.659H48.19l-.103-.103v-2.89c0-.514-.203-.912-.827-.926-.32-.009-.688 0-1.08.015l-.059.06v3.74l-.104.102h-1.241l-.104-.103v-4.936l.104-.103h2.794a1.96 1.96 0 0 1 1.966 1.955v3.086l-.104.103Z"/>
        <path fill="#05BDBA" d="M43.121 28.809h-4.966l-.103-.103v-1.238l.103-.103h4.966l.104.103v1.238l-.104.103Z"/>
        <path fill="#05BDBA" d="M56.054 28.809h-4.966l-.104-.103v-1.238l.104-.103h4.966l.103.103v1.238l-.103.103Z"/>
        <path fill="#05BDBA" d="M46.389 23.973v-3.704l.103-.103h1.245l.103.103v3.704l-.103.103h-1.245l-.103-.103Z"/>
        <path fill="#05BDBA" d="M46.389 35.904v-3.703l.103-.103h1.245l.103.103v3.703l-.103.104h-1.245l-.103-.104Z"/>
      </g>
      <path fill="#181A1C" d="M63.148 24.336h2.905c2.304 0 3.647 1.408 3.647 3.84 0 2.488-1.326 3.91-3.647 3.91h-2.905v-7.75Zm1.385 1.166v5.42h1.338c1.541 0 2.417-.978 2.417-2.724 0-1.708-.897-2.696-2.417-2.696h-1.338Zm10.447 4.979h1.262c-.242 1.058-1.224 1.724-2.61 1.724-1.73 0-2.772-1.15-2.772-3.03 0-1.884 1.058-3.072 2.761-3.072 1.676 0 2.68 1.112 2.68 2.955v.424h-4.103v.07c.032.993.596 1.617 1.471 1.617.661 0 1.118-.248 1.311-.688Zm-1.364-3.34c-.795 0-1.354.574-1.413 1.455h2.766c-.027-.892-.553-1.456-1.353-1.456Zm7.224-1.021c1.488 0 2.422 1.154 2.422 3.034 0 1.864-.924 3.03-2.406 3.03-.843 0-1.493-.366-1.794-.989h-.091v2.842h-1.332v-7.82h1.283v.972h.092c.338-.666 1.02-1.07 1.826-1.07Zm-.42 4.957c.925 0 1.473-.72 1.473-1.923s-.554-1.923-1.467-1.923c-.907 0-1.477.736-1.482 1.923.005 1.187.57 1.923 1.477 1.923Zm4.233 1.01v-8.143h1.332v8.143h-1.332Zm5.554.118c-1.762 0-2.825-1.15-2.825-3.056 0-1.89 1.08-3.046 2.825-3.046 1.751 0 2.825 1.15 2.825 3.046 0 1.907-1.069 3.056-2.825 3.056Zm0-1.09c.93 0 1.456-.72 1.456-1.96 0-1.241-.532-1.961-1.456-1.961-.93 0-1.46.72-1.46 1.96 0 1.241.53 1.96 1.46 1.96Zm4.576 3.099c-.08 0-.44-.005-.526-.022v-1.058c.075.011.274.016.365.016.564 0 .88-.215 1.053-.768l.07-.274-2.1-5.892h1.46l1.376 4.609h.09l1.37-4.609h1.408l-2.122 6.075c-.5 1.445-1.128 1.923-2.444 1.923Zm8.787-9.878h3.126c1.547 0 2.605 1.053 2.605 2.61 0 1.531-1.095 2.579-2.664 2.579h-1.681v2.562h-1.386v-7.75Zm1.386 1.134v2.938h1.37c.988 0 1.568-.527 1.568-1.461 0-.962-.564-1.477-1.563-1.477h-1.375Zm5.736 6.617v-5.87h1.284v.912h.091c.162-.58.795-1.01 1.553-1.01.193 0 .429.022.553.054v1.214c-.102-.037-.457-.075-.682-.075-.865 0-1.467.537-1.467 1.364v3.41h-1.332Zm8.256-1.606h1.262c-.242 1.058-1.225 1.724-2.61 1.724-1.73 0-2.772-1.15-2.772-3.03 0-1.884 1.058-3.072 2.761-3.072 1.676 0 2.68 1.112 2.68 2.955v.424h-4.103v.07c.032.993.596 1.617 1.471 1.617.661 0 1.117-.248 1.311-.688Zm-1.365-3.34c-.794 0-1.353.574-1.412 1.455h2.766c-.027-.892-.553-1.456-1.354-1.456Zm9.008-.925-2.079 5.87h-1.466l-2.089-5.87h1.428l1.359 4.566h.091l1.349-4.566h1.407Zm1.805-.983a.791.791 0 0 1-.795-.79c0-.434.359-.789.795-.789.44 0 .8.355.8.79 0 .44-.36.79-.8.79Zm-.661 6.854v-5.87h1.327v5.87h-1.327Zm6.81-1.606h1.263c-.242 1.058-1.225 1.724-2.611 1.724-1.729 0-2.771-1.15-2.771-3.03 0-1.884 1.058-3.072 2.761-3.072 1.675 0 2.68 1.112 2.68 2.955v.424h-4.104v.07c.032.993.596 1.617 1.472 1.617.661 0 1.117-.248 1.31-.688Zm-1.364-3.34c-.795 0-1.353.574-1.412 1.455h2.766c-.027-.892-.554-1.456-1.354-1.456Zm11.817-.925-1.59 5.87h-1.402l-1.144-4.253h-.091l-1.139 4.254h-1.386l-1.59-5.87h1.343l.978 4.409h.091l1.128-4.41h1.273l1.138 4.41h.092l.972-4.41h1.327Z"/>
      <path fill="#545A61" d="M149.196 28.843c0-1.966.516-3.583 1.569-4.899h1.203c-.779.989-1.397 3.046-1.397 4.893 0 1.859.613 3.91 1.397 4.91h-1.203c-1.058-1.327-1.569-2.95-1.569-4.904Zm9.647-1.44h-1.112l-.306 1.52h1.106l-.193 1.053h-1.106l-.425 2.11h-1.015l.419-2.11h-1.359l-.413 2.11h-1.015l.418-2.11h-1.095l.198-1.053h1.102l.3-1.52h-1.095l.198-1.047h1.096l.403-2.025h1.015l-.403 2.025h1.354l.403-2.025h1.02l-.403 2.025h1.107l-.199 1.047Zm-3.523-.07-.328 1.67h1.455l.333-1.67h-1.46Zm5.376 4.754 3.416-6.574v-.08h-4.066V24.33h5.382v1.117l-3.362 6.639h-1.37Zm6.8 0 3.416-6.574v-.08h-4.066V24.33h5.382v1.117l-3.363 6.639h-1.369Zm5.983-5.205c0-1.552 1.193-2.707 2.809-2.707 1.665 0 2.831 1.134 2.831 2.766 0 .908-.322 1.757-1.101 2.863-.177.28-1.526 2.106-1.671 2.277h-1.471l2.014-2.712c.193-.268.263-.37.317-.483l-.097-.027c-.263.306-.763.5-1.246.5-1.38 0-2.385-1.043-2.385-2.477Zm2.82-1.6c-.881 0-1.542.666-1.542 1.552s.661 1.552 1.542 1.552c.886 0 1.547-.666 1.547-1.552s-.661-1.552-1.547-1.552Zm6.811 6.971c-1.741 0-2.928-.913-2.928-2.25 0-.956.639-1.73 1.638-1.966v-.091c-.811-.204-1.326-.865-1.326-1.692 0-1.22 1.085-2.084 2.616-2.084 1.53 0 2.615.865 2.615 2.084 0 .827-.51 1.482-1.332 1.692v.091c.989.215 1.644 1.005 1.644 1.966 0 1.337-1.187 2.25-2.927 2.25Zm0-4.7c.8 0 1.337-.477 1.337-1.186 0-.704-.537-1.182-1.337-1.182-.806 0-1.338.478-1.338 1.182 0 .709.532 1.187 1.338 1.187Zm0 3.674c.945 0 1.595-.547 1.595-1.337 0-.795-.65-1.337-1.595-1.337-.946 0-1.596.542-1.596 1.337 0 .79.65 1.337 1.596 1.337Zm6.676-2.379c0 1.96-.516 3.583-1.569 4.899h-1.203c.779-.989 1.397-3.046 1.397-4.893 0-1.859-.612-3.916-1.397-4.91h1.203c1.059 1.327 1.569 2.944 1.569 4.904Z"/>
      <path fill="#D1D5DA" d="M22 13h347H22Zm347 30.928H22V42.42h347v1.508Zm-347-.754V13v30.174ZM369 13v30.174V13Z" mask="url(#f)"/>
      <path fill="#2036A1" d="M317.91 252.886a.465.465 0 0 1 .294.431v2.823c-.027.274-.183.431-.471.47h-2.822a.464.464 0 0 1-.431-.294.492.492 0 0 1 .098-.51l1.176-1.175a3.438 3.438 0 0 0-2.254-.843 3.505 3.505 0 0 0-2.077.686c-.588.457-1 1.058-1.235 1.803-.105.261-.301.366-.588.313-.261-.104-.366-.3-.314-.588a4.35 4.35 0 0 1 1.588-2.273c.758-.575 1.633-.869 2.626-.882 1.124.026 2.097.405 2.92 1.137l.98-1a.494.494 0 0 1 .51-.098Zm-.51 4.978c.261.118.359.32.294.608a4.344 4.344 0 0 1-1.587 2.273c-.758.575-1.634.869-2.627.882a4.387 4.387 0 0 1-2.9-1.137l-.98 1a.457.457 0 0 1-.51.098.464.464 0 0 1-.294-.431v-2.822c.027-.288.183-.445.471-.471h2.802c.222.013.366.111.431.294.079.196.046.366-.098.51l-1.175 1.176a3.44 3.44 0 0 0 2.253.842c.784-.013 1.477-.241 2.078-.686a3.396 3.396 0 0 0 1.254-1.822c.105-.261.301-.366.588-.314Z"/>
    </g>
    <rect width="311" height="265" x="21.5" y="12.5" stroke="#2E51ED" rx="8.5"/>
    <circle cx="206" cy="115" r="15" fill="#CDE2FF"/>
    <path fill="#2036A1" d="M207.728 116.025c1.26.033 2.302.47 3.126 1.311.84.823 1.277 1.865 1.311 3.126a.787.787 0 0 1-.227.58.785.785 0 0 1-.58.227h-9.681a.787.787 0 0 1-.58-.227.787.787 0 0 1-.227-.58c.034-1.261.471-2.303 1.311-3.126.824-.841 1.866-1.278 3.126-1.311h2.421Zm-5.622 4.034h8.824a3.295 3.295 0 0 0-1.059-2.017c-.588-.521-1.303-.79-2.143-.807h-2.421c-.84.017-1.554.286-2.143.807a3.289 3.289 0 0 0-1.058 2.017Zm4.412-5.245c-.908-.016-1.673-.327-2.295-.932-.605-.622-.916-1.387-.933-2.295.017-.907.328-1.672.933-2.294.622-.605 1.387-.916 2.295-.933.907.017 1.672.328 2.294.933.605.622.916 1.387.933 2.294-.017.908-.328 1.673-.933 2.295-.622.605-1.387.916-2.294.932Zm0-5.244c-.572.017-1.051.21-1.437.58-.37.387-.564.866-.58 1.437.016.572.21 1.051.58 1.437.386.37.865.563 1.437.58.571-.017 1.05-.21 1.437-.58.369-.386.563-.865.58-1.437-.017-.571-.211-1.05-.58-1.437-.387-.37-.866-.563-1.437-.58Z"/>
    <g clip-path="url(#g)">
      <path fill="#EDF4FF" d="M232 55h247v40.7H232z"/>
      <path fill="#181A1C" d="M248.319 79.35h-.966v-6.88h-2.498v-.87h5.962v.87h-2.498v6.88Zm3.888 0v-8.089h.924v3.212h.086c.29-.64.897-1.015 1.783-1.015 1.225 0 1.998.784 1.998 2.143v3.749h-.924v-3.523c0-1.026-.462-1.537-1.337-1.537-1.037 0-1.606.656-1.606 1.633v3.427h-.924Zm6.922-6.907a.646.646 0 0 1-.644-.645c0-.354.29-.644.644-.644.355 0 .645.29.645.644 0 .355-.29.645-.645.645Zm-.462 6.907v-5.79h.924v5.79h-.924Zm2.513-4.206c0-.961.929-1.686 2.159-1.686 1.214 0 2.057.601 2.181 1.552h-.913c-.124-.462-.575-.768-1.273-.768-.688 0-1.225.35-1.225.865 0 .397.323.644 1.005.81l.891.216c1.091.263 1.617.736 1.617 1.568 0 1.037-1.004 1.751-2.32 1.751-1.289 0-2.176-.618-2.278-1.58h.951c.156.49.618.801 1.359.801.779 0 1.337-.37 1.337-.902 0-.398-.3-.666-.918-.817l-.994-.241c-1.085-.263-1.579-.73-1.579-1.569Zm9.038-3.544h2.927c1.466 0 2.481 1.03 2.481 2.508 0 1.45-1.036 2.476-2.492 2.476h-1.95v2.766h-.966V71.6Zm.966.859v3.266h1.708c1.102 0 1.741-.591 1.741-1.617 0-1.064-.618-1.65-1.741-1.65h-1.708Zm6.955 3.824v3.067h-.967V71.6h2.96c1.493 0 2.47.913 2.47 2.31 0 1.079-.585 1.916-1.557 2.223l1.794 3.217h-1.134l-1.659-3.067h-1.907Zm0-3.824v2.965h1.907c.993 0 1.557-.532 1.557-1.483 0-.929-.601-1.482-1.6-1.482h-1.864Zm10.74 6.993c-1.122 0-1.955-.666-1.955-1.724 0-1.037.763-1.633 2.111-1.713l1.67-.103v-.526c0-.714-.445-1.106-1.31-1.106-.693 0-1.176.263-1.305.72h-.935c.124-.93 1.037-1.542 2.272-1.542 1.413 0 2.202.725 2.202 1.928v3.964h-.881v-.854h-.086c-.376.618-1.009.956-1.783.956Zm.172-.811c.951 0 1.654-.623 1.654-1.45v-.532l-1.557.102c-.881.06-1.268.365-1.268.945 0 .591.5.935 1.171.935Zm6.391.811c-1.483 0-2.433-1.176-2.433-2.997 0-1.816.961-2.997 2.433-2.997.805 0 1.488.381 1.815 1.015h.081v-3.212h.924v8.089h-.881v-.924h-.086c-.365.645-1.053 1.026-1.853 1.026Zm.215-5.162c-1.053 0-1.692.817-1.692 2.165 0 1.353.633 2.165 1.692 2.165 1.052 0 1.702-.828 1.702-2.165 0-1.327-.655-2.165-1.702-2.165Zm6.503 5.162c-1.482 0-2.433-1.176-2.433-2.997 0-1.816.961-2.997 2.433-2.997.806 0 1.488.381 1.815 1.015h.081v-3.212h.924v8.089h-.881v-.924h-.086c-.365.645-1.053 1.026-1.853 1.026Zm.215-5.162c-1.053 0-1.692.817-1.692 2.165 0 1.353.634 2.165 1.692 2.165 1.053 0 1.702-.828 1.702-2.165 0-1.327-.655-2.165-1.702-2.165Zm4.226.854c0-.961.929-1.686 2.159-1.686 1.214 0 2.057.601 2.181 1.552h-.913c-.124-.462-.575-.768-1.273-.768-.688 0-1.225.35-1.225.865 0 .397.322.644 1.004.81l.892.216c1.09.263 1.617.736 1.617 1.568 0 1.037-1.005 1.751-2.321 1.751-1.289 0-2.175-.618-2.277-1.58h.951c.156.49.617.801 1.359.801.778 0 1.337-.37 1.337-.902 0-.398-.301-.666-.918-.817l-.994-.241c-1.085-.263-1.579-.73-1.579-1.569Zm10.531 4.308c-1.123 0-1.955-.666-1.955-1.724 0-1.037.762-1.633 2.11-1.713l1.671-.103v-.526c0-.714-.446-1.106-1.311-1.106-.693 0-1.176.263-1.305.72h-.935c.124-.93 1.037-1.542 2.272-1.542 1.413 0 2.203.725 2.203 1.928v3.964h-.881v-.854h-.086c-.376.618-1.01.956-1.783.956Zm.171-.811c.951 0 1.655-.623 1.655-1.45v-.532l-1.558.102c-.881.06-1.267.365-1.267.945 0 .591.499.935 1.17.935Zm7.314.709v-5.79h.881v.913h.086c.29-.64.854-1.015 1.74-1.015 1.3 0 2.025.768 2.025 2.143v3.749h-.924v-3.523c0-1.043-.44-1.537-1.364-1.537-.924 0-1.52.618-1.52 1.633v3.427h-.924Zm10.22-1.499h.924c-.269.989-1.171 1.601-2.439 1.601-1.606 0-2.61-1.16-2.61-2.992 0-1.82 1.021-3.002 2.61-3.002 1.563 0 2.514 1.112 2.514 2.911v.355h-4.162v.042c.048 1.144.687 1.87 1.67 1.87.747 0 1.251-.274 1.493-.785Zm-1.525-3.577c-.924 0-1.569.677-1.638 1.703h3.19c-.022-1.026-.634-1.703-1.552-1.703Zm11.219-.714-1.622 5.79h-.94l-1.295-4.48h-.085l-1.29 4.48h-.934l-1.622-5.79h.934l1.139 4.63h.086l1.294-4.63h.887l1.294 4.63h.086l1.139-4.63h.929Zm4.381-1.96h2.927c1.466 0 2.481 1.03 2.481 2.508 0 1.45-1.036 2.476-2.492 2.476h-1.949v2.766h-.967V71.6Zm.967.859v3.266h1.708c1.101 0 1.74-.591 1.74-1.617 0-1.064-.618-1.65-1.74-1.65h-1.708Zm5.869 6.891v-5.79h.881v.86h.086c.172-.565.838-.962 1.606-.962.15 0 .344.01.462.027v.924a3.703 3.703 0 0 0-.591-.054c-.881 0-1.52.59-1.52 1.407v3.588h-.924Zm4.634-6.907a.646.646 0 0 1-.644-.645c0-.354.29-.644.644-.644.355 0 .645.29.645.644 0 .355-.29.645-.645.645Zm-.462 6.907v-5.79h.924v5.79h-.924Zm7.438-4.018h-.934c-.151-.574-.661-1.042-1.493-1.042-1.042 0-1.698.833-1.698 2.143 0 1.338.666 2.186 1.698 2.186.779 0 1.321-.36 1.493-1.015h.934c-.166 1.064-1.031 1.848-2.422 1.848-1.622 0-2.659-1.176-2.659-3.019 0-1.804 1.032-2.975 2.654-2.975 1.407 0 2.266.843 2.427 1.874Zm1.81-2.89a.646.646 0 0 1-.645-.644c0-.354.29-.644.645-.644.354 0 .644.29.644.644 0 .355-.29.645-.644.645Zm-.462 6.908v-5.79h.923v5.79h-.923Zm2.647 0v-5.79h.88v.913h.086c.29-.64.854-1.015 1.741-1.015 1.299 0 2.024.768 2.024 2.143v3.749h-.923v-3.523c0-1.043-.441-1.537-1.365-1.537-.923 0-1.52.618-1.52 1.633v3.427h-.923Zm8.77 2.224c-1.397 0-2.289-.629-2.428-1.585h.977c.102.473.618.779 1.451.779 1.036 0 1.654-.51 1.654-1.364v-1.139h-.086c-.365.64-1.021.999-1.816.999-1.498 0-2.427-1.16-2.427-2.895s.94-2.911 2.427-2.911c.812 0 1.526.397 1.859 1.02h.086v-.918h.881v5.892c0 1.294-.999 2.122-2.578 2.122Zm-.043-3.126c1.074 0 1.718-.817 1.718-2.079 0-1.262-.65-2.079-1.718-2.079-1.075 0-1.676.817-1.676 2.079 0 1.262.601 2.079 1.676 2.079Zm10.208-4.99c1.477 0 2.433 1.176 2.433 2.997 0 1.81-.961 2.997-2.433 2.997-.827 0-1.493-.36-1.81-.972h-.086v2.804h-.924V73.56h.881v.967h.086c.371-.666 1.063-1.07 1.853-1.07Zm-.22 5.162c1.063 0 1.697-.812 1.697-2.165 0-1.354-.634-2.165-1.692-2.165-1.047 0-1.708.833-1.708 2.165 0 1.327.661 2.165 1.703 2.165Zm5.676.832c-1.122 0-1.955-.666-1.955-1.724 0-1.037.763-1.633 2.111-1.713l1.67-.103v-.526c0-.714-.446-1.106-1.31-1.106-.693 0-1.177.263-1.305.72h-.935c.123-.93 1.037-1.542 2.272-1.542 1.413 0 2.202.725 2.202 1.928v3.964h-.881v-.854h-.086c-.376.618-1.009.956-1.783.956Zm.172-.811c.951 0 1.654-.623 1.654-1.45v-.532l-1.557.102c-.881.06-1.268.365-1.268.945 0 .591.5.935 1.171.935Zm6.632 2.933c-1.396 0-2.288-.629-2.427-1.585h.977c.102.473.618.779 1.45.779 1.037 0 1.655-.51 1.655-1.364v-1.139h-.086c-.366.64-1.021.999-1.816.999-1.498 0-2.428-1.16-2.428-2.895s.94-2.911 2.428-2.911c.811 0 1.526.397 1.859 1.02h.086v-.918h.88v5.892c0 1.294-.999 2.122-2.578 2.122Zm-.043-3.126c1.075 0 1.719-.817 1.719-2.079 0-1.262-.65-2.079-1.719-2.079-1.074 0-1.675.817-1.675 2.079 0 1.262.601 2.079 1.675 2.079Zm8.158-.597h.924c-.269.989-1.171 1.601-2.439 1.601-1.606 0-2.61-1.16-2.61-2.992 0-1.82 1.021-3.002 2.61-3.002 1.563 0 2.514 1.112 2.514 2.911v.355h-4.163v.042c.049 1.144.688 1.87 1.671 1.87.746 0 1.251-.274 1.493-.785Zm-1.525-3.577c-.924 0-1.569.677-1.639 1.703h3.191c-.022-1.026-.634-1.703-1.552-1.703Zm4.698 5.13a.704.704 0 0 1-.698-.699.697.697 0 1 1 .698.698Z"/>
      <path fill="#fff" d="M232 95.7h247v34.7H232z"/>
      <g clip-path="url(#h)">
        <g clip-path="url(#i)">
          <g clip-path="url(#j)">
            <path fill="#545A61" fill-rule="evenodd" d="M251.848 105.55a7.495 7.495 0 0 0-7.498 7.498 7.503 7.503 0 0 0 5.127 7.115c.373.069.511-.161.511-.364 0-.179-.004-.649-.009-1.274-2.085.451-2.527-1.004-2.527-1.004-.34-.865-.833-1.095-.833-1.095-.681-.465.051-.456.051-.456.75.055 1.15.773 1.15.773.668 1.146 1.754.815 2.182.622.069-.484.262-.815.474-1.004-1.666-.188-3.415-.833-3.415-3.705 0-.819.29-1.486.773-2.011-.078-.189-.336-.953.074-1.984 0 0 .63-.202 2.062.769a7.088 7.088 0 0 1 3.755 0c1.432-.971 2.062-.769 2.062-.769.41 1.031.152 1.795.074 1.984.479.525.769 1.192.769 2.011 0 2.881-1.754 3.512-3.425 3.701.267.23.511.69.511 1.39 0 1.003-.009 1.808-.009 2.057 0 .203.134.433.516.359a7.499 7.499 0 0 0 5.122-7.111 7.496 7.496 0 0 0-7.497-7.502Z" clip-rule="evenodd"/>
          </g>
        </g>
        <path fill="#545A61" d="M265.095 110.974c0-1.259.97-2.161 2.322-2.161 1.235 0 2.181.838 2.181 1.985 0 .813-.353 1.401-1.627 2.719l-1.607 1.661v.078h3.351v.794h-4.576v-.608l2.391-2.587c.901-.975 1.166-1.342 1.166-1.964 0-.75-.505-1.308-1.338-1.308-.847 0-1.411.553-1.411 1.391h-.852Zm6.027 0c0-1.259.97-2.161 2.322-2.161 1.235 0 2.181.838 2.181 1.985 0 .813-.353 1.401-1.627 2.719l-1.607 1.661v.078h3.351v.794h-4.576v-.608l2.391-2.587c.902-.975 1.166-1.342 1.166-1.964 0-.75-.505-1.308-1.337-1.308-.848 0-1.412.553-1.412 1.391h-.852Zm8.918 5.076v-7.379h.843v7.379h-.843Zm2.882-6.301a.59.59 0 0 1-.588-.588.59.59 0 0 1 .588-.588.59.59 0 0 1 .588.588.59.59 0 0 1-.588.588Zm-.421 6.301v-5.282h.842v5.282h-.842Zm2.411 0v-5.282h.803v.833h.079c.264-.583.779-.926 1.587-.926 1.186 0 1.847.701 1.847 1.955v3.42h-.842v-3.214c0-.951-.402-1.401-1.245-1.401-.843 0-1.386.563-1.386 1.489v3.126h-.843Zm9.319-1.367h.843c-.245.902-1.068 1.46-2.224 1.46-1.465 0-2.381-1.058-2.381-2.729 0-1.661.93-2.739 2.381-2.739 1.426 0 2.293 1.014 2.293 2.656v.323h-3.797v.039c.044 1.044.627 1.705 1.523 1.705.681 0 1.142-.25 1.362-.715Zm-1.391-3.263c-.843 0-1.431.617-1.494 1.553h2.91c-.02-.936-.578-1.553-1.416-1.553Zm3.465.794c0-.877.847-1.539 1.969-1.539 1.108 0 1.877.549 1.989 1.416h-.832c-.113-.421-.525-.701-1.162-.701-.627 0-1.117.319-1.117.789 0 .363.294.588.916.74l.814.196c.994.24 1.475.671 1.475 1.431 0 .945-.917 1.597-2.117 1.597-1.176 0-1.984-.563-2.077-1.44h.867c.142.445.563.73 1.239.73.711 0 1.22-.338 1.22-.823 0-.363-.274-.608-.837-.745l-.907-.221c-.99-.24-1.44-.666-1.44-1.43Zm5.87 5.634h-.632l.465-2.788h.936l-.769 2.788Zm6.885-1.798v-6.09h-.078l-1.798 1.303v-.931l1.881-1.352h.877v7.07h-.882Zm6.106 0v-4.576h-.877v-.706h.877v-.588c0-1.053.529-1.558 1.534-1.558.206 0 .392.015.568.049v.686a2.39 2.39 0 0 0-.397-.024c-.607 0-.862.294-.862.872v.563h1.21v.706h-1.21v4.576h-.843Zm3.685-6.301a.59.59 0 0 1-.588-.588.59.59 0 0 1 .588-.588.589.589 0 0 1 0 1.176Zm-.421 6.301v-5.282h.843v5.282h-.843Zm2.46 0v-7.379h.843v7.379h-.843Zm5.939-1.367h.843c-.245.902-1.068 1.46-2.225 1.46-1.465 0-2.381-1.058-2.381-2.729 0-1.661.931-2.739 2.381-2.739 1.426 0 2.293 1.014 2.293 2.656v.323h-3.797v.039c.044 1.044.627 1.705 1.524 1.705.681 0 1.142-.25 1.362-.715Zm-1.391-3.263c-.843 0-1.431.617-1.495 1.553h2.911c-.02-.936-.579-1.553-1.416-1.553Zm10.75.965h-.852c-.137-.524-.603-.95-1.362-.95-.951 0-1.548.759-1.548 1.955 0 1.22.607 1.994 1.548 1.994.71 0 1.205-.329 1.362-.926h.852c-.151.97-.94 1.685-2.209 1.685-1.48 0-2.426-1.073-2.426-2.753 0-1.647.941-2.715 2.421-2.715 1.284 0 2.067.769 2.214 1.71Zm1.255 3.665v-7.379h.843v2.93h.078c.265-.583.819-.926 1.627-.926 1.117 0 1.823.715 1.823 1.955v3.42h-.843v-3.214c0-.936-.421-1.401-1.22-1.401-.946 0-1.465.597-1.465 1.489v3.126h-.843Zm7.341.093c-1.024 0-1.784-.607-1.784-1.573 0-.945.696-1.489 1.926-1.563l1.523-.093v-.48c0-.652-.406-1.009-1.195-1.009-.632 0-1.073.24-1.191.656h-.852c.112-.847.945-1.406 2.072-1.406 1.289 0 2.009.662 2.009 1.759v3.616h-.803v-.779h-.079c-.343.563-.921.872-1.626.872Zm.156-.74c.868 0 1.509-.568 1.509-1.323v-.485l-1.42.093c-.804.054-1.157.334-1.157.863 0 .539.456.852 1.068.852Zm3.872.647v-5.282h.803v.833h.079c.264-.583.779-.926 1.587-.926 1.186 0 1.847.701 1.847 1.955v3.42h-.843v-3.214c0-.951-.401-1.401-1.244-1.401s-1.387.563-1.387 1.489v3.126h-.842Zm7.996 2.028c-1.274 0-2.087-.573-2.214-1.445h.891c.094.431.564.71 1.323.71.946 0 1.509-.465 1.509-1.244v-1.039h-.078c-.333.583-.931.912-1.656.912-1.367 0-2.215-1.059-2.215-2.641 0-1.583.858-2.656 2.215-2.656.74 0 1.391.363 1.695.931h.079v-.838h.803v5.375c0 1.181-.911 1.935-2.352 1.935Zm-.039-2.851c.98 0 1.568-.745 1.568-1.896 0-1.152-.593-1.896-1.568-1.896-.98 0-1.529.744-1.529 1.896 0 1.151.549 1.896 1.529 1.896Zm7.438-.544h.843c-.245.902-1.068 1.46-2.224 1.46-1.465 0-2.382-1.058-2.382-2.729 0-1.661.931-2.739 2.382-2.739 1.425 0 2.293 1.014 2.293 2.656v.323h-3.798v.039c.045 1.044.628 1.705 1.524 1.705.681 0 1.142-.25 1.362-.715Zm-1.391-3.263c-.843 0-1.431.617-1.495 1.553h2.911c-.02-.936-.578-1.553-1.416-1.553Zm5.542 4.723c-1.352 0-2.22-1.073-2.22-2.734 0-1.656.877-2.734 2.22-2.734.735 0 1.357.348 1.656.926h.073v-2.93h.843v7.379h-.803v-.843h-.079c-.333.588-.96.936-1.69.936Zm.196-4.708c-.96 0-1.543.744-1.543 1.974 0 1.235.578 1.975 1.543 1.975.96 0 1.553-.755 1.553-1.975 0-1.21-.598-1.974-1.553-1.974Zm7.463 2.611a.642.642 0 0 1-.637-.637c0-.353.289-.637.637-.637.353 0 .637.284.637.637a.639.639 0 0 1-.637.637Zm12.113 2.004h-.823v-5.399h-.059l-2.229 5.399h-.745l-2.229-5.399h-.059v5.399h-.823v-7.07h1.024l2.42 5.899h.079l2.42-5.899h1.024v7.07Zm5.155-1.367h.843c-.245.902-1.068 1.46-2.225 1.46-1.464 0-2.381-1.058-2.381-2.729 0-1.661.931-2.739 2.381-2.739 1.426 0 2.294 1.014 2.294 2.656v.323h-3.798v.039c.044 1.044.627 1.705 1.524 1.705.681 0 1.142-.25 1.362-.715Zm-1.391-3.263c-.843 0-1.431.617-1.495 1.553h2.911c-.02-.936-.578-1.553-1.416-1.553Zm3.587 4.63v-5.282h.803v.784h.079c.157-.514.764-.877 1.465-.877.137 0 .313.01.421.025v.842a3.456 3.456 0 0 0-.539-.049c-.803 0-1.386.539-1.386 1.284v3.273h-.843Zm5.811 2.028c-1.274 0-2.087-.573-2.214-1.445h.891c.094.431.564.71 1.323.71.946 0 1.509-.465 1.509-1.244v-1.039h-.078c-.333.583-.931.912-1.656.912-1.367 0-2.215-1.059-2.215-2.641 0-1.583.858-2.656 2.215-2.656.74 0 1.391.363 1.695.931h.079v-.838h.803v5.375c0 1.181-.911 1.935-2.352 1.935Zm-.039-2.851c.98 0 1.568-.745 1.568-1.896 0-1.152-.593-1.896-1.568-1.896-.98 0-1.529.744-1.529 1.896 0 1.151.549 1.896 1.529 1.896Zm4.381-5.478a.59.59 0 0 1-.588-.588.59.59 0 0 1 .588-.588.59.59 0 0 1 .588.588.59.59 0 0 1-.588.588Zm-.421 6.301v-5.282h.842v5.282h-.842Zm2.411 0v-5.282h.803v.833h.079c.264-.583.779-.926 1.587-.926 1.186 0 1.847.701 1.847 1.955v3.42h-.842v-3.214c0-.951-.402-1.401-1.245-1.401-.843 0-1.386.563-1.386 1.489v3.126h-.843Zm7.997 2.028c-1.274 0-2.088-.573-2.215-1.445h.892c.093.431.563.71 1.323.71.945 0 1.509-.465 1.509-1.244v-1.039h-.079c-.333.583-.931.912-1.656.912-1.367 0-2.214-1.059-2.214-2.641 0-1.583.857-2.656 2.214-2.656.74 0 1.392.363 1.695.931h.079v-.838h.803v5.375c0 1.181-.911 1.935-2.351 1.935Zm-.04-2.851c.98 0 1.568-.745 1.568-1.896 0-1.152-.593-1.896-1.568-1.896-.98 0-1.528.744-1.528 1.896 0 1.151.548 1.896 1.528 1.896Zm7.175-5.478a.589.589 0 0 1 0-1.176.59.59 0 0 1 .588.588.59.59 0 0 1-.588.588Zm-.422 6.301v-5.282h.843v5.282h-.843Zm2.411 0v-5.282h.804v.833h.078c.265-.583.779-.926 1.588-.926 1.186 0 1.847.701 1.847 1.955v3.42h-.843v-3.214c0-.951-.402-1.401-1.244-1.401-.843 0-1.387.563-1.387 1.489v3.126h-.843Zm6.175-6.649h.842v1.367h1.176v.706h-1.176v2.989c0 .622.235.886.784.886.152 0 .235-.005.392-.019v.71a2.76 2.76 0 0 1-.495.049c-1.087 0-1.523-.402-1.523-1.411v-3.204h-.853v-.706h.853v-1.367Zm5.346 6.742c-1.505 0-2.436-1.039-2.436-2.734 0-1.7.931-2.734 2.436-2.734 1.504 0 2.435 1.034 2.435 2.734 0 1.695-.931 2.734-2.435 2.734Zm0-.759c.999 0 1.563-.725 1.563-1.975 0-1.254-.564-1.974-1.563-1.974-1 0-1.563.72-1.563 1.974 0 1.25.563 1.975 1.563 1.975Zm6.463.666v-5.355h1.171v.862h.084c.23-.603.779-.965 1.489-.965.74 0 1.254.372 1.48.965h.083c.265-.583.882-.965 1.627-.965 1.073 0 1.72.661 1.72 1.773v3.685h-1.211v-3.386c0-.695-.328-1.043-.98-1.043-.632 0-1.048.47-1.048 1.083v3.346h-1.181v-3.474c0-.593-.372-.955-.97-.955-.603 0-1.049.504-1.049 1.171v3.258h-1.215Zm10.53.088c-1.034 0-1.773-.627-1.773-1.607 0-.96.73-1.524 2.033-1.597l1.382-.083v-.461c0-.534-.353-.833-1.01-.833-.558 0-.94.201-1.053.568h-1.147c.098-.935.985-1.533 2.259-1.533 1.377 0 2.151.666 2.151 1.798v3.66h-1.171v-.735h-.083c-.299.519-.887.823-1.588.823Zm.358-.936c.735 0 1.284-.48 1.284-1.117v-.436l-1.211.083c-.681.045-.999.294-.999.74 0 .461.387.73.926.73Zm4.528-5.404a.722.722 0 0 1-.725-.72c0-.397.328-.72.725-.72.401 0 .73.323.73.72 0 .402-.329.72-.73.72Zm-.603 6.252v-5.355h1.21v5.355h-1.21Zm2.681 0v-5.355h1.171v.857h.083c.255-.598.794-.96 1.592-.96 1.196 0 1.848.72 1.848 1.994v3.464h-1.216v-3.18c0-.833-.343-1.249-1.082-1.249-.726 0-1.181.504-1.181 1.308v3.121h-1.215Z"/>
      </g>
    </g>
    <path stroke="#2E51ED" d="M231.5 130.4v.5H471a8.5 8.5 0 0 0 8.5-8.5V63a8.5 8.5 0 0 0-8.5-8.5H240a8.5 8.5 0 0 0-8.5 8.5v67.4Z"/>
    <circle cx="464" cy="204" r="15" fill="#CDE2FF"/>
    <path fill="#2036A1" d="M465.728 205.025c1.26.033 2.302.47 3.126 1.311.84.823 1.277 1.865 1.311 3.126a.787.787 0 0 1-.227.58.785.785 0 0 1-.58.227h-9.681a.787.787 0 0 1-.58-.227.787.787 0 0 1-.227-.58c.034-1.261.471-2.303 1.311-3.126.824-.841 1.866-1.278 3.126-1.311h2.421Zm-5.622 4.034h8.824a3.295 3.295 0 0 0-1.059-2.017c-.588-.521-1.303-.79-2.143-.807h-2.421c-.84.017-1.554.286-2.143.807a3.289 3.289 0 0 0-1.058 2.017Zm4.412-5.245c-.908-.016-1.673-.327-2.295-.932-.605-.622-.916-1.387-.933-2.295.017-.907.328-1.672.933-2.294.622-.605 1.387-.916 2.295-.933.907.017 1.672.328 2.294.933.605.622.916 1.387.933 2.294-.017.908-.328 1.673-.933 2.295-.622.605-1.387.916-2.294.932Zm0-5.244c-.572.017-1.051.21-1.437.58-.37.387-.564.866-.58 1.437.016.572.21 1.051.58 1.437.386.37.865.563 1.437.58.571-.017 1.05-.21 1.437-.58.369-.386.563-.865.58-1.437-.017-.571-.211-1.05-.58-1.437-.387-.37-.866-.563-1.437-.58Z"/>
    <g clip-path="url(#k)">
      <path fill="#EDF4FF" d="M191 144h247v40.7H191z"/>
      <path fill="#181A1C" d="M209.043 167.48v.87h-4.705v-7.751h.967v6.881h3.738Zm4.957-.629h.924c-.269.989-1.171 1.601-2.439 1.601-1.606 0-2.61-1.16-2.61-2.992 0-1.82 1.02-3.002 2.61-3.002 1.563 0 2.514 1.112 2.514 2.911v.355h-4.163v.042c.049 1.145.688 1.87 1.671 1.87.746 0 1.251-.274 1.493-.785Zm-1.525-3.577c-.924 0-1.569.677-1.639 1.703h3.191c-.022-1.026-.634-1.703-1.552-1.703Zm4.322-2.213h.924v1.499h1.289v.773h-1.289v3.277c0 .682.258.972.86.972.166 0 .257-.005.429-.022v.779c-.182.032-.36.054-.542.054-1.193 0-1.671-.44-1.671-1.547v-3.513h-.934v-.773h.934v-1.499Zm4.361 2.434h-.672l.596-2.896h1.048l-.972 2.896Zm1.744.649c0-.961.929-1.686 2.159-1.686 1.214 0 2.058.601 2.181 1.552h-.913c-.124-.462-.575-.768-1.273-.768-.687 0-1.225.349-1.225.865 0 .397.323.644 1.005.811l.891.215c1.091.263 1.617.736 1.617 1.568 0 1.037-1.004 1.751-2.32 1.751-1.289 0-2.175-.618-2.277-1.579h.95c.156.489.618.8 1.359.8.779 0 1.337-.37 1.337-.902 0-.398-.3-.666-.918-.817l-.994-.241c-1.085-.263-1.579-.731-1.579-1.569Zm11.063 4.308c-1.483 0-2.433-1.176-2.433-2.997 0-1.815.961-2.997 2.433-2.997.805 0 1.488.381 1.815 1.015h.081v-3.212h.924v8.089h-.881v-.924h-.086c-.365.645-1.053 1.026-1.853 1.026Zm.215-5.162c-1.053 0-1.692.817-1.692 2.165 0 1.353.633 2.165 1.692 2.165 1.052 0 1.702-.828 1.702-2.165 0-1.327-.655-2.165-1.702-2.165Zm4.843-1.847a.646.646 0 0 1-.644-.645c0-.354.29-.644.644-.644.355 0 .645.29.645.644 0 .355-.29.645-.645.645Zm-.462 6.907v-5.79h.924v5.79h-.924Zm2.513-4.206c0-.961.929-1.686 2.159-1.686 1.214 0 2.057.601 2.181 1.552h-.913c-.124-.462-.575-.768-1.273-.768-.688 0-1.225.349-1.225.865 0 .397.323.644 1.005.811l.891.215c1.091.263 1.617.736 1.617 1.568 0 1.037-1.004 1.751-2.32 1.751-1.289 0-2.176-.618-2.278-1.579h.951c.156.489.618.8 1.359.8.779 0 1.337-.37 1.337-.902 0-.398-.301-.666-.918-.817l-.994-.241c-1.085-.263-1.579-.731-1.579-1.569Zm10.645.188h-.935c-.15-.574-.661-1.042-1.493-1.042-1.042 0-1.697.833-1.697 2.143 0 1.338.666 2.187 1.697 2.187.779 0 1.321-.36 1.493-1.016h.935c-.167 1.064-1.032 1.848-2.423 1.848-1.622 0-2.658-1.176-2.658-3.019 0-1.804 1.031-2.975 2.653-2.975 1.407 0 2.266.843 2.428 1.874Zm6.009-1.772v5.79h-.881v-.908h-.086c-.29.645-.908 1.01-1.794 1.01-1.3 0-1.976-.773-1.976-2.143v-3.749h.923v3.523c0 1.042.387 1.526 1.311 1.526 1.02 0 1.579-.607 1.579-1.622v-3.427h.924Zm1.567 1.584c0-.961.929-1.686 2.159-1.686 1.214 0 2.058.601 2.181 1.552h-.913c-.124-.462-.575-.768-1.273-.768-.687 0-1.225.349-1.225.865 0 .397.323.644 1.005.811l.891.215c1.091.263 1.617.736 1.617 1.568 0 1.037-1.004 1.751-2.32 1.751-1.289 0-2.176-.618-2.278-1.579h.951c.156.489.618.8 1.359.8.779 0 1.337-.37 1.337-.902 0-.398-.3-.666-.918-.817l-.994-.241c-1.085-.263-1.579-.731-1.579-1.569Zm5.612 0c0-.961.929-1.686 2.159-1.686 1.214 0 2.057.601 2.181 1.552h-.913c-.124-.462-.575-.768-1.273-.768-.688 0-1.225.349-1.225.865 0 .397.322.644 1.005.811l.891.215c1.091.263 1.617.736 1.617 1.568 0 1.037-1.005 1.751-2.32 1.751-1.289 0-2.176-.618-2.278-1.579h.951c.156.489.618.8 1.359.8.779 0 1.337-.37 1.337-.902 0-.398-.301-.666-.918-.817l-.994-.241c-1.085-.263-1.579-.731-1.579-1.569Zm13.603-1.584v5.79h-.881v-.908h-.086c-.29.645-.908 1.01-1.794 1.01-1.3 0-1.976-.773-1.976-2.143v-3.749h.924v3.523c0 1.042.386 1.526 1.31 1.526 1.021 0 1.579-.607 1.579-1.622v-3.427h.924Zm4.521-.102c1.477 0 2.434 1.176 2.434 2.997 0 1.81-.962 2.997-2.434 2.997-.827 0-1.493-.36-1.81-.972h-.086v2.804h-.923v-7.724h.88v.967h.086a2.089 2.089 0 0 1 1.853-1.069Zm-.22 5.162c1.064 0 1.697-.812 1.697-2.165 0-1.354-.633-2.165-1.691-2.165-1.048 0-1.708.833-1.708 2.165 0 1.327.66 2.165 1.702 2.165Zm6.208.832c-1.482 0-2.433-1.176-2.433-2.997 0-1.815.962-2.997 2.433-2.997.806 0 1.488.381 1.816 1.015h.08v-3.212h.924v8.089h-.881v-.924h-.086c-.365.645-1.052 1.026-1.853 1.026Zm.215-5.162c-1.053 0-1.692.817-1.692 2.165 0 1.353.634 2.165 1.692 2.165 1.053 0 1.703-.828 1.703-2.165 0-1.327-.656-2.165-1.703-2.165Zm5.972 5.162c-1.123 0-1.955-.666-1.955-1.724 0-1.037.762-1.633 2.11-1.713l1.671-.103v-.526c0-.714-.446-1.106-1.311-1.106-.693 0-1.176.263-1.305.719h-.934c.123-.929 1.036-1.541 2.272-1.541 1.412 0 2.202.725 2.202 1.928v3.964h-.881v-.854h-.086c-.376.618-1.01.956-1.783.956Zm.172-.811c.95 0 1.654-.623 1.654-1.45v-.532l-1.558.102c-.881.059-1.267.365-1.267.945 0 .591.499.935 1.171.935Zm4.634-6.58h.924v1.499h1.289v.773h-1.289v3.277c0 .682.257.972.859.972.167 0 .258-.005.43-.022v.779c-.183.032-.36.054-.543.054-1.192 0-1.67-.44-1.67-1.547v-3.513h-.935v-.773h.935v-1.499Zm7.32 5.79h.923c-.268.989-1.17 1.601-2.438 1.601-1.606 0-2.61-1.16-2.61-2.992 0-1.82 1.02-3.002 2.61-3.002 1.563 0 2.514 1.112 2.514 2.911v.355h-4.163v.042c.048 1.145.688 1.87 1.67 1.87.747 0 1.252-.274 1.494-.785Zm-1.526-3.577c-.924 0-1.568.677-1.638 1.703h3.191c-.022-1.026-.634-1.703-1.553-1.703Zm3.802.87c0-.961.929-1.686 2.159-1.686 1.214 0 2.057.601 2.181 1.552h-.913c-.124-.462-.575-.768-1.273-.768-.688 0-1.225.349-1.225.865 0 .397.322.644 1.005.811l.891.215c1.091.263 1.617.736 1.617 1.568 0 1.037-1.004 1.751-2.32 1.751-1.289 0-2.176-.618-2.278-1.579h.951c.156.489.618.8 1.359.8.779 0 1.337-.37 1.337-.902 0-.398-.301-.666-.918-.817l-.994-.241c-1.085-.263-1.579-.731-1.579-1.569Zm9.306 4.206v-5.017h-.961v-.773h.961v-.645c0-1.154.58-1.708 1.681-1.708.226 0 .43.017.623.054v.752a2.581 2.581 0 0 0-.435-.027c-.666 0-.945.322-.945.956v.618h1.327v.773h-1.327v5.017h-.924Zm5.692.102c-1.648 0-2.669-1.139-2.669-2.997 0-1.864 1.021-2.997 2.669-2.997 1.649 0 2.67 1.133 2.67 2.997 0 1.858-1.021 2.997-2.67 2.997Zm0-.832c1.096 0 1.714-.795 1.714-2.165 0-1.375-.618-2.165-1.714-2.165-1.095 0-1.713.79-1.713 2.165 0 1.37.618 2.165 1.713 2.165Zm4.082.73v-5.79h.88v.859h.086c.172-.564.838-.961 1.606-.961.151 0 .344.011.462.027v.924a3.64 3.64 0 0 0-.591-.054c-.88 0-1.52.591-1.52 1.407v3.588h-.923Zm11.943-5.79-2.143 5.79h-.946l-2.143-5.79h.989l1.584 4.769h.086l1.585-4.769h.988Zm1.143.226c0-1.381 1.063-2.369 2.546-2.369 1.353 0 2.39.918 2.39 2.175 0 .892-.387 1.536-1.783 2.981l-1.762 1.821v.086h3.674v.87h-5.017v-.666l2.621-2.836c.989-1.069 1.279-1.472 1.279-2.154 0-.822-.554-1.434-1.467-1.434-.929 0-1.547.607-1.547 1.526h-.934Z"/>
      <path fill="#fff" d="M191 184.7h247v34.7H191z"/>
      <g fill="#545A61" clip-path="url(#l)">
        <path fill-rule="evenodd" d="M216.983 195.05h-11.266c-.755 0-1.367.612-1.367 1.367v11.266c0 .755.612 1.367 1.367 1.367h11.266c.755 0 1.367-.612 1.367-1.367v-11.266c0-.755-.612-1.367-1.367-1.367Zm-1.109 1.82h-2.958a.656.656 0 0 0-.656.656v4.813c0 .362.294.656.656.656h2.958a.656.656 0 0 0 .656-.656v-4.813a.656.656 0 0 0-.656-.656Zm-9.048 0h2.958c.362 0 .656.294.656.656v8.313a.656.656 0 0 1-.656.656h-2.958a.656.656 0 0 1-.656-.656v-8.313c0-.362.294-.656.656-.656Z" clip-rule="evenodd"/>
        <path d="M228.098 205.217c-1.92 0-3.121-1.421-3.121-3.7 0-2.283 1.196-3.704 3.116-3.704 1.49 0 2.651.936 2.862 2.298h-.897c-.235-.911-.99-1.484-1.965-1.484-1.357 0-2.209 1.117-2.209 2.89 0 1.774.852 2.886 2.214 2.886.985 0 1.735-.504 1.96-1.323h.897c-.235 1.299-1.353 2.137-2.857 2.137Zm4.19-.167v-5.282h.804v.784h.078c.157-.514.764-.877 1.465-.877.137 0 .314.01.421.025v.842a3.444 3.444 0 0 0-.539-.049c-.803 0-1.386.539-1.386 1.284v3.273h-.843Zm7.134-1.367h.843c-.245.902-1.068 1.46-2.224 1.46-1.465 0-2.381-1.058-2.381-2.729 0-1.661.93-2.739 2.381-2.739 1.426 0 2.293 1.014 2.293 2.656v.323h-3.797v.039c.044 1.044.627 1.705 1.523 1.705.681 0 1.142-.25 1.362-.715Zm-1.391-3.263c-.843 0-1.431.617-1.494 1.553h2.91c-.02-.936-.578-1.553-1.416-1.553Zm5.057 4.723c-1.024 0-1.783-.607-1.783-1.573 0-.945.695-1.489 1.925-1.563l1.524-.093v-.48c0-.652-.407-1.009-1.196-1.009-.632 0-1.073.24-1.19.656h-.853c.113-.847.946-1.406 2.073-1.406 1.288 0 2.009.662 2.009 1.759v3.616h-.804v-.779h-.078c-.343.563-.921.872-1.627.872Zm.157-.74c.867 0 1.509-.568 1.509-1.323v-.485l-1.421.093c-.804.054-1.156.334-1.156.863 0 .539.455.852 1.068.852Zm4.224-6.002h.843v1.367h1.175v.706h-1.175v2.989c0 .622.235.886.783.886.152 0 .236-.005.392-.019v.71c-.166.03-.328.049-.494.049-1.088 0-1.524-.402-1.524-1.411v-3.204h-.853v-.706h.853v-1.367Zm6.674 5.282h.842c-.245.902-1.068 1.46-2.224 1.46-1.465 0-2.381-1.058-2.381-2.729 0-1.661.931-2.739 2.381-2.739 1.426 0 2.293 1.014 2.293 2.656v.323h-3.797v.039c.044 1.044.627 1.705 1.524 1.705.681 0 1.141-.25 1.362-.715Zm-1.392-3.263c-.843 0-1.431.617-1.494 1.553h2.91c-.019-.936-.578-1.553-1.416-1.553Zm5.542 4.723c-1.352 0-2.219-1.073-2.219-2.734 0-1.656.877-2.734 2.219-2.734.735 0 1.357.348 1.656.926h.074v-2.93h.843v7.379h-.804v-.843h-.078c-.334.588-.961.936-1.691.936Zm.196-4.708c-.96 0-1.543.744-1.543 1.974 0 1.235.578 1.975 1.543 1.975.961 0 1.553-.755 1.553-1.975 0-1.21-.597-1.974-1.553-1.974Zm8.238 4.708c-1.024 0-1.784-.607-1.784-1.573 0-.945.696-1.489 1.926-1.563l1.524-.093v-.48c0-.652-.407-1.009-1.196-1.009-.632 0-1.073.24-1.191.656h-.852c.113-.847.945-1.406 2.072-1.406 1.289 0 2.009.662 2.009 1.759v3.616h-.803v-.779h-.079c-.343.563-.921.872-1.626.872Zm.156-.74c.868 0 1.51-.568 1.51-1.323v-.485l-1.421.093c-.804.054-1.157.334-1.157.863 0 .539.456.852 1.068.852Zm9.492.647h-.882v-6.276h-2.278v-.794h5.438v.794h-2.278v6.276Zm2.759 0v-5.282h.804v.784h.078c.157-.514.764-.877 1.465-.877.137 0 .314.01.421.025v.842a3.441 3.441 0 0 0-.538-.049c-.804 0-1.387.539-1.387 1.284v3.273h-.843Zm7.135-1.367h.842c-.245.902-1.068 1.46-2.224 1.46-1.465 0-2.381-1.058-2.381-2.729 0-1.661.931-2.739 2.381-2.739 1.426 0 2.293 1.014 2.293 2.656v.323h-3.797v.039c.044 1.044.627 1.705 1.524 1.705.681 0 1.141-.25 1.362-.715Zm-1.392-3.263c-.843 0-1.431.617-1.494 1.553h2.91c-.019-.936-.578-1.553-1.416-1.553Zm3.636 4.63v-7.379h.843v7.379h-.843Zm2.49 0v-7.379h.843v7.379h-.843Zm4.611.093c-1.504 0-2.435-1.039-2.435-2.734 0-1.7.931-2.734 2.435-2.734s2.435 1.034 2.435 2.734c0 1.695-.931 2.734-2.435 2.734Zm0-.759c1 0 1.563-.725 1.563-1.975 0-1.254-.563-1.974-1.563-1.974s-1.563.72-1.563 1.974c0 1.25.563 1.975 1.563 1.975Zm10.883-2.999h-.852c-.138-.524-.603-.95-1.362-.95-.951 0-1.549.759-1.549 1.955 0 1.22.608 1.994 1.549 1.994.71 0 1.205-.329 1.362-.926h.852c-.152.97-.941 1.685-2.21 1.685-1.479 0-2.425-1.073-2.425-2.753 0-1.647.941-2.715 2.421-2.715 1.283 0 2.067.769 2.214 1.71Zm2.676 3.758c-1.024 0-1.783-.607-1.783-1.573 0-.945.695-1.489 1.925-1.563l1.524-.093v-.48c0-.652-.407-1.009-1.196-1.009-.632 0-1.073.24-1.19.656h-.853c.113-.847.946-1.406 2.073-1.406 1.288 0 2.009.662 2.009 1.759v3.616h-.804v-.779h-.078c-.343.563-.921.872-1.627.872Zm.157-.74c.867 0 1.509-.568 1.509-1.323v-.485l-1.421.093c-.804.054-1.156.334-1.156.863 0 .539.455.852 1.068.852Zm3.871.647v-5.282h.804v.784h.078c.157-.514.764-.877 1.465-.877.137 0 .314.01.421.025v.842a3.444 3.444 0 0 0-.539-.049c-.803 0-1.386.539-1.386 1.284v3.273h-.843Zm5.591.093c-1.352 0-2.219-1.073-2.219-2.734 0-1.656.877-2.734 2.219-2.734.735 0 1.357.348 1.656.926h.074v-2.93h.842v7.379h-.803v-.843h-.079c-.333.588-.96.936-1.69.936Zm.196-4.708c-.96 0-1.543.744-1.543 1.974 0 1.235.578 1.975 1.543 1.975.96 0 1.553-.755 1.553-1.975 0-1.21-.598-1.974-1.553-1.974Z"/>
      </g>
    </g>
    <path stroke="#2E51ED" d="M438 219.9h.5V152a8.5 8.5 0 0 0-8.5-8.5H199a8.5 8.5 0 0 0-8.5 8.5v59.4a8.5 8.5 0 0 0 8.5 8.5h239Z"/>
    <g clip-path="url(#m)">
      <path fill="url(#n)" fill-rule="evenodd" d="M398.162 243h-21.659a3.377 3.377 0 0 0-3.377 3.372v21.627a3.377 3.377 0 0 0 3.377 3.39h21.659a3.373 3.373 0 0 0 3.372-3.39v-21.627a3.378 3.378 0 0 0-3.372-3.372Zm-12.784 20.448a1.129 1.129 0 0 1-1.138 1.124h-4.733a1.125 1.125 0 0 1-1.12-1.124v-14.086c0-.619.501-1.121 1.12-1.124h4.733c.62.003 1.122.505 1.124 1.124l.014 14.086Zm10.922-6.467a1.122 1.122 0 0 1-1.138 1.124h-4.733a1.13 1.13 0 0 1-1.124-1.124v-7.619a1.13 1.13 0 0 1 1.124-1.124h4.733c.619.003 1.12.505 1.12 1.124l.018 7.619Z" clip-rule="evenodd"/>
    </g>
    <g clip-path="url(#o)">
      <g clip-path="url(#p)">
        <path fill="#181A1C" fill-rule="evenodd" d="M424.453 243c-7.985 0-14.453 6.468-14.453 14.453 0 6.387 4.143 11.799 9.883 13.716.719.133.985-.311.985-.701 0-.346-.009-1.251-.017-2.458-4.02.87-4.871-1.934-4.871-1.934-.657-1.668-1.606-2.111-1.606-2.111-1.313-.896.098-.879.098-.879 1.446.107 2.218 1.491 2.218 1.491 1.286 2.209 3.38 1.57 4.205 1.198.133-.932.506-1.571.914-1.935-3.212-.363-6.583-1.605-6.583-7.142 0-1.579.559-2.865 1.49-3.877-.151-.363-.648-1.836.142-3.823 0 0 1.216-.391 3.975 1.481a14.043 14.043 0 0 1 3.62-.488c1.224 0 2.466.169 3.619.488 2.76-1.872 3.975-1.481 3.975-1.481.79 1.987.293 3.46.142 3.823.923 1.012 1.482 2.298 1.482 3.877 0 5.554-3.381 6.77-6.601 7.134.514.443.985 1.33.985 2.679 0 1.934-.018 3.487-.018 3.966 0 .39.257.834.994.692 5.74-1.917 9.874-7.329 9.874-13.708 0-7.993-6.468-14.461-14.452-14.461Z" clip-rule="evenodd"/>
      </g>
    </g>
    <path fill="#9CBEF6" d="M335 256.5a.5.5 0 0 0 0 1v-1Zm30.354.854a.502.502 0 0 0 0-.708l-3.182-3.182a.502.502 0 0 0-.708.708l2.829 2.828-2.829 2.828a.502.502 0 0 0 .708.708l3.182-3.182Zm-29.416.146a.5.5 0 1 0-.001-1l.001 1Zm1.874-1a.5.5 0 1 0 .001 1l-.001-1Zm1.876 1a.5.5 0 1 0-.001-1l.001 1Zm1.874-1a.5.5 0 1 0 .001 1l-.001-1Zm1.876 1a.5.5 0 1 0-.001-1l.001 1Zm1.874-1a.5.5 0 1 0 .001 1l-.001-1Zm1.876 1a.5.5 0 1 0-.001-1l.001 1Zm1.874-1a.5.5 0 1 0 .001 1l-.001-1Zm1.876 1a.5.5 0 1 0-.001-1l.001 1Zm1.874-1a.5.5 0 1 0 .001 1l-.001-1Zm1.876 1a.5.5 0 1 0-.001-1l.001 1Zm1.874-1a.5.5 0 1 0 .001 1l-.001-1Zm1.876 1a.5.5 0 1 0-.001-1l.001 1Zm1.874-1a.5.5 0 1 0 .001 1l-.001-1Zm1.876 1a.5.5 0 1 0-.001-1l.001 1Zm1.874-1a.5.5 0 1 0 .001 1l-.001-1Zm-29.062 1h.938l-.001-1H335v1Zm2.813 0h1.875l-.001-1h-1.875l.001 1Zm3.75 0h1.875l-.001-1h-1.875l.001 1Zm3.75 0h1.875l-.001-1h-1.875l.001 1Zm3.75 0h1.875l-.001-1h-1.875l.001 1Zm3.75 0h1.875l-.001-1h-1.875l.001 1Zm3.75 0h1.875l-.001-1h-1.875l.001 1Zm3.75 0h1.875l-.001-1h-1.875l.001 1Zm3.75 0H365v-1h-.938l.001 1Z"/>
  </g>
  <defs>
    <clipPath id="a">
      <rect width="500" height="285" fill="#fff" rx="10"/>
    </clipPath>
    <clipPath id="c">
      <rect width="310" height="264" x="22" y="13" fill="#fff" rx="8"/>
    </clipPath>
    <clipPath id="e">
      <path fill="#fff" d="M38.052 20.166h18.104v15.841H38.052z"/>
    </clipPath>
    <clipPath id="g">
      <path fill="#fff" d="M232 63a8 8 0 0 1 8-8h231a8 8 0 0 1 8 8v59.4a8 8 0 0 1-8 8H232V63Z"/>
    </clipPath>
    <clipPath id="h">
      <path fill="#fff" d="M244.35 105.05h222.3v16h-222.3z"/>
    </clipPath>
    <clipPath id="i">
      <path fill="#fff" d="M244.35 105.55h15v15h-15z"/>
    </clipPath>
    <clipPath id="j">
      <path fill="#fff" d="M244.35 105.55h15v14.627h-15z"/>
    </clipPath>
    <clipPath id="k">
      <path fill="#fff" d="M191 152a8 8 0 0 1 8-8h231a8 8 0 0 1 8 8v67.4H199a8 8 0 0 1-8-8V152Z"/>
    </clipPath>
    <clipPath id="l">
      <path fill="#fff" d="M203.35 194.05h222.3v16h-222.3z"/>
    </clipPath>
    <clipPath id="m">
      <path fill="#fff" d="M373 243h28.915v28.407H373z"/>
    </clipPath>
    <clipPath id="o">
      <path fill="#fff" d="M410 243h28.915v28.915H410z"/>
    </clipPath>
    <clipPath id="p">
      <path fill="#fff" d="M410 243h28.915v28.196H410z"/>
    </clipPath>
    <linearGradient id="n" x1="387.344" x2="387.344" y1="271.389" y2="243" gradientUnits="userSpaceOnUse">
      <stop stop-color="#0052CC"/>
      <stop offset="1" stop-color="#2684FF"/>
    </linearGradient>
    <filter id="b" width="389" height="374" x="91" y="-48" color-interpolation-filters="sRGB" filterUnits="userSpaceOnUse">
      <feFlood flood-opacity="0" result="BackgroundImageFix"/>
      <feBlend in="SourceGraphic" in2="BackgroundImageFix" result="shape"/>
      <feGaussianBlur result="effect1_foregroundBlur_3572_25394" stdDeviation="50"/>
    </filter>
  </defs>
</svg>
