<svg width="36" height="35" viewBox="0 0 36 35" fill="none" xmlns="http://www.w3.org/2000/svg">
<g clip-path="url(#clip0_2482_28917)">
<g clip-path="url(#clip1_2482_28917)">
<path d="M27.6032 14.1401C27.6078 14.2105 27.5974 14.281 27.5727 14.347C27.5481 14.4131 27.5097 14.4732 27.4601 14.5233C27.4106 14.5735 27.351 14.6126 27.2852 14.638C27.2195 14.6635 27.1491 14.6747 27.0787 14.671H17.0364C16.9657 14.6746 16.8951 14.6633 16.829 14.638C16.763 14.6126 16.703 14.5736 16.653 14.5235C16.6029 14.4735 16.5639 14.4135 16.5385 14.3475C16.5132 14.2814 16.5019 14.2108 16.5056 14.1401V13.0025C16.5019 12.9318 16.5132 12.8612 16.5385 12.7952C16.5639 12.7291 16.6029 12.6691 16.653 12.6191C16.703 12.569 16.763 12.5301 16.829 12.5047C16.8951 12.4793 16.9657 12.468 17.0364 12.4717H27.066C27.1364 12.468 27.2068 12.4792 27.2726 12.5046C27.3383 12.5301 27.398 12.5692 27.4475 12.6193C27.497 12.6695 27.5354 12.7296 27.5601 12.7956C27.5848 12.8617 27.5952 12.9322 27.5906 13.0025L27.6032 14.1401Z" fill="#E74C3D"/>
<path d="M32.0475 17.4389C32.0521 17.5098 32.0416 17.5809 32.0166 17.6474C31.9915 17.7139 31.9526 17.7743 31.9024 17.8246C31.8521 17.8748 31.7917 17.9138 31.7252 17.9388C31.6587 17.9639 31.5875 17.9744 31.5166 17.9697H19.1487C19.078 17.9745 19.0071 17.964 18.9409 17.9389C18.8747 17.9138 18.8146 17.8748 18.7649 17.8244C18.7151 17.774 18.6767 17.7135 18.6525 17.647C18.6282 17.5804 18.6185 17.5095 18.6241 17.4389V16.276C18.6194 16.2059 18.6298 16.1357 18.6546 16.0699C18.6792 16.0042 18.7177 15.9444 18.7674 15.8948C18.8171 15.8451 18.8768 15.8066 18.9426 15.7819C19.0083 15.7572 19.0786 15.7468 19.1487 15.7514H31.4092C31.4795 15.7469 31.5501 15.7573 31.6161 15.7819C31.6822 15.8066 31.7422 15.845 31.7924 15.8945C31.8426 15.9441 31.8817 16.0037 31.9071 16.0695C31.9326 16.1352 31.9438 16.2056 31.9401 16.276L32.0475 17.4389Z" fill="#E74C3D"/>
<path d="M35.43 20.8202C35.4347 20.8911 35.4242 20.9622 35.3991 21.0287C35.3741 21.0952 35.3351 21.1556 35.2849 21.2059C35.2346 21.2562 35.1742 21.2951 35.1077 21.3201C35.0412 21.3452 34.9701 21.3557 34.8992 21.3511H21.4758C21.4051 21.3558 21.3343 21.3453 21.2681 21.3202C21.2018 21.2951 21.1418 21.2561 21.092 21.2057C21.0422 21.1553 21.0039 21.0948 20.9796 21.0283C20.9553 20.9617 20.9457 20.8908 20.9512 20.8202V19.6637C20.9457 19.5931 20.9553 19.5221 20.9796 19.4556C21.0039 19.389 21.0422 19.3285 21.092 19.2781C21.1418 19.2278 21.2018 19.1887 21.2681 19.1636C21.3343 19.1385 21.4051 19.128 21.4758 19.1328H34.8992C34.9701 19.1281 35.0412 19.1387 35.1077 19.1637C35.1742 19.1887 35.2346 19.2277 35.2849 19.2779C35.3351 19.3282 35.3741 19.3886 35.3991 19.4551C35.4242 19.5216 35.4347 19.5927 35.43 19.6637V20.8202Z" fill="#E74C3D"/>
<path d="M35.43 24.2075C35.4338 24.2779 35.4225 24.3483 35.3971 24.4141C35.3716 24.4798 35.3326 24.5394 35.2824 24.589C35.2323 24.6385 35.1722 24.6769 35.1061 24.7015C35.04 24.7262 34.9695 24.7366 34.8992 24.732H21.4758C21.4057 24.7367 21.3354 24.7263 21.2697 24.7016C21.2039 24.6769 21.1442 24.6384 21.0946 24.5888C21.0449 24.5391 21.0064 24.4794 20.9817 24.4136C20.957 24.3479 20.9466 24.2776 20.9512 24.2075V23.0447C20.9457 22.9741 20.9553 22.9031 20.9796 22.8366C21.0039 22.77 21.0422 22.7095 21.092 22.6591C21.1418 22.6088 21.2018 22.5697 21.2681 22.5446C21.3343 22.5196 21.4051 22.509 21.4758 22.5138H34.8992C34.9701 22.5091 35.0412 22.5197 35.1077 22.5447C35.1742 22.5697 35.2346 22.6087 35.2849 22.659C35.3351 22.7092 35.3741 22.7696 35.3991 22.8361C35.4242 22.9027 35.4347 22.9737 35.43 23.0447V24.2075Z" fill="#E74C3D"/>
<path d="M32.0487 27.4812C32.0523 27.5519 32.0411 27.6225 32.0157 27.6886C31.9903 27.7547 31.9513 27.8146 31.9013 27.8647C31.8513 27.9147 31.7913 27.9537 31.7252 27.9791C31.6592 28.0045 31.5885 28.0157 31.5178 28.0121H19.1499C19.0795 28.0158 19.0091 28.0046 18.9433 27.9791C18.8776 27.9537 18.8179 27.9146 18.7684 27.8645C18.7189 27.8143 18.6805 27.7542 18.6558 27.6881C18.6312 27.6221 18.6207 27.5516 18.6253 27.4812V26.3184C18.6207 26.248 18.6312 26.1775 18.6558 26.1114C18.6805 26.0454 18.7189 25.9853 18.7684 25.9352C18.8179 25.885 18.8776 25.8459 18.9433 25.8205C19.0091 25.795 19.0795 25.7838 19.1499 25.7875H31.4104C31.4811 25.7839 31.5517 25.7951 31.6178 25.8205C31.6838 25.8459 31.7438 25.8849 31.7938 25.9349C31.8439 25.985 31.8829 26.0449 31.9083 26.111C31.9337 26.177 31.9449 26.2477 31.9413 26.3184L32.0487 27.4812Z" fill="#E74C3D"/>
<path d="M27.6032 30.8623C27.6078 30.9327 27.5974 31.0032 27.5728 31.0692C27.5481 31.1353 27.5097 31.1954 27.4602 31.2455C27.4106 31.2957 27.351 31.3347 27.2853 31.3602C27.2195 31.3856 27.1491 31.3969 27.0787 31.3932H17.0365C16.9658 31.3968 16.8951 31.3856 16.8291 31.3602C16.763 31.3348 16.7031 31.2958 16.653 31.2458C16.603 31.1957 16.564 31.1357 16.5386 31.0697C16.5132 31.0036 16.502 30.933 16.5056 30.8623V29.6995C16.5019 29.6291 16.5131 29.5586 16.5386 29.4929C16.564 29.4271 16.6031 29.3676 16.6532 29.318C16.7034 29.2684 16.7635 29.2301 16.8295 29.2054C16.8956 29.1808 16.9661 29.1703 17.0365 29.1749H27.0661C27.1361 29.1703 27.2064 29.1806 27.2722 29.2053C27.338 29.2301 27.3976 29.2685 27.4473 29.3182C27.497 29.3679 27.5355 29.4276 27.5602 29.4933C27.5849 29.5591 27.5953 29.6294 27.5906 29.6995L27.6032 30.8623Z" fill="#E74C3D"/>
<path d="M8.58175 4.02822C8.57803 4.09863 8.58927 4.16903 8.6147 4.23477C8.64017 4.30052 8.67927 4.36014 8.72942 4.40969C8.77958 4.45925 8.83963 4.49762 8.90569 4.52228C8.97174 4.54694 9.04226 4.55733 9.1126 4.55277H19.1485C19.2191 4.55838 19.2901 4.54871 19.3566 4.52442C19.4232 4.50013 19.4837 4.4618 19.5341 4.41202C19.5844 4.36224 19.6235 4.3022 19.6486 4.23597C19.6737 4.16974 19.6842 4.09888 19.6794 4.02822V2.86537C19.6841 2.79445 19.6735 2.72336 19.6485 2.65684C19.6235 2.59033 19.5845 2.52992 19.5343 2.47967C19.484 2.42941 19.4236 2.39047 19.3571 2.36543C19.2906 2.3404 19.2195 2.32985 19.1485 2.33451H9.1126C9.04193 2.33087 8.97129 2.34211 8.90524 2.3675C8.83919 2.3929 8.7792 2.43187 8.72916 2.48191C8.67912 2.53195 8.64013 2.59194 8.61474 2.65799C8.58935 2.72404 8.5781 2.7947 8.58175 2.86537V4.02822Z" fill="#E74C3D"/>
<path d="M4.2523 7.40312C4.24765 7.4732 4.25804 7.54349 4.28276 7.60925C4.30745 7.675 4.34595 7.73469 4.39562 7.78436C4.44529 7.83403 4.50497 7.87253 4.57073 7.89725C4.63648 7.92194 4.70678 7.93233 4.77686 7.92767H17.0374C17.1078 7.93222 17.1783 7.92183 17.2443 7.89718C17.3104 7.87253 17.3705 7.83414 17.4206 7.78458C17.4708 7.73503 17.5099 7.67541 17.5353 7.60966C17.5608 7.54394 17.572 7.47353 17.5683 7.40312V6.24026C17.5719 6.16959 17.5606 6.09896 17.5353 6.0329C17.5099 5.96685 17.4709 5.90686 17.4208 5.85682C17.3708 5.80678 17.3108 5.76781 17.2448 5.74242C17.1787 5.71702 17.1081 5.70577 17.0374 5.7094H4.77686C4.70645 5.70569 4.63607 5.71693 4.57032 5.74237C4.50456 5.76782 4.44495 5.80691 4.39539 5.85706C4.34584 5.90721 4.30748 5.96729 4.2828 6.03334C4.25815 6.09941 4.24776 6.16993 4.2523 6.24026V7.40312Z" fill="#E74C3D"/>
<path d="M0.87047 10.7841C0.865812 10.8542 0.876185 10.9245 0.900901 10.9902C0.925613 11.056 0.964094 11.1157 1.01376 11.1654C1.06343 11.215 1.12314 11.2535 1.1889 11.2783C1.25465 11.3029 1.32493 11.3133 1.39502 11.3087H14.8184C14.8885 11.3133 14.9587 11.3029 15.0245 11.2783C15.0903 11.2535 15.15 11.215 15.1997 11.1654C15.2493 11.1157 15.2878 11.056 15.3125 10.9902C15.3372 10.9245 15.3476 10.8542 15.3429 10.7841V9.62126C15.3475 9.55093 15.3371 9.48041 15.3124 9.41436C15.2878 9.3483 15.2494 9.28821 15.1999 9.23805C15.1503 9.1879 15.0907 9.14884 15.025 9.12337C14.9592 9.0979 14.8888 9.0867 14.8184 9.09042H1.39502C1.32461 9.0867 1.25421 9.0979 1.18846 9.12337C1.12272 9.14884 1.0631 9.1879 1.01355 9.23805C0.963994 9.28821 0.925624 9.3483 0.90096 9.41436C0.8763 9.48041 0.86591 9.55093 0.87047 9.62126V10.7841Z" fill="#E74C3D"/>
<path d="M0.87043 14.1401C0.86587 14.2105 0.876263 14.281 0.900923 14.347C0.925583 14.4131 0.963953 14.4732 1.01351 14.5233C1.06306 14.5735 1.12267 14.6126 1.18843 14.638C1.25417 14.6635 1.32457 14.6747 1.39497 14.671H14.8184C14.8887 14.6747 14.9592 14.6635 15.0249 14.638C15.0907 14.6126 15.1503 14.5735 15.1998 14.5233C15.2494 14.4732 15.2878 14.4131 15.3124 14.347C15.3371 14.281 15.3475 14.2105 15.3429 14.1401V13.0025C15.3475 12.9322 15.3371 12.8617 15.3124 12.7956C15.2878 12.7296 15.2494 12.6695 15.1998 12.6193C15.1503 12.5692 15.0907 12.5301 15.0249 12.5046C14.9592 12.4792 14.8887 12.468 14.8184 12.4717H1.39497C1.32457 12.468 1.25417 12.4792 1.18843 12.5046C1.12267 12.5301 1.06306 12.5692 1.01351 12.6193C0.963953 12.6695 0.925583 12.7296 0.900923 12.7956C0.876263 12.8617 0.86587 12.9322 0.87043 13.0025V14.1401Z" fill="#E74C3D"/>
<path d="M4.25277 17.4389C4.24715 17.5095 4.25683 17.5804 4.28111 17.647C4.30542 17.7135 4.34374 17.774 4.39352 17.8244C4.4433 17.8748 4.50332 17.9138 4.56956 17.9389C4.6358 17.964 4.70666 17.9745 4.77733 17.9697H17.0378C17.1088 17.9744 17.1798 17.9639 17.2464 17.9388C17.3129 17.9138 17.3733 17.8748 17.4235 17.8246C17.4738 17.7743 17.5127 17.7139 17.5378 17.6474C17.5628 17.5809 17.5734 17.5098 17.5687 17.4389V16.276C17.5724 16.2056 17.5612 16.1352 17.5357 16.0695C17.5103 16.0037 17.4712 15.9441 17.421 15.8945C17.3709 15.845 17.3108 15.8066 17.2448 15.7819C17.1787 15.7573 17.1082 15.7469 17.0378 15.7514H4.77733C4.70722 15.7468 4.63696 15.7572 4.5712 15.7819C4.50544 15.8066 4.44572 15.8451 4.39605 15.8948C4.34638 15.9444 4.30792 16.0042 4.28319 16.0699C4.25847 16.1357 4.24812 16.2059 4.25277 16.276V17.4389Z" fill="#E74C3D"/>
<path d="M8.58213 20.8201C8.57747 20.8911 8.58801 20.9621 8.61307 21.0286C8.63809 21.0952 8.67704 21.1556 8.7273 21.2058C8.77753 21.2561 8.83796 21.2951 8.90446 21.3201C8.971 21.3451 9.04208 21.3556 9.11301 21.351H19.1489C19.2199 21.3556 19.2909 21.3451 19.3575 21.3201C19.424 21.2951 19.4844 21.2561 19.5346 21.2058C19.5849 21.1556 19.6238 21.0952 19.6489 21.0286C19.6739 20.9621 19.6845 20.8911 19.6798 20.8201V19.6636C19.6845 19.5927 19.6739 19.5216 19.6489 19.4551C19.6238 19.3886 19.5849 19.3282 19.5346 19.2779C19.4844 19.2276 19.424 19.1887 19.3575 19.1637C19.2909 19.1386 19.2199 19.1281 19.1489 19.1327H9.11301C9.04208 19.1281 8.971 19.1386 8.90446 19.1637C8.83796 19.1887 8.77753 19.2276 8.7273 19.2779C8.67704 19.3282 8.63809 19.3886 8.61307 19.4551C8.58801 19.5216 8.57747 19.5927 8.58213 19.6636V20.8201Z" fill="#E74C3D"/>
</g>
</g>
<defs>
<clipPath id="clip0_2482_28917">
<rect width="35" height="35" fill="white" transform="translate(0.5)"/>
</clipPath>
<clipPath id="clip1_2482_28917">
<rect width="35" height="29.4149" fill="white" transform="translate(0.5 2.33334)"/>
</clipPath>
</defs>
</svg>
