<svg width="36" height="35" viewBox="0 0 36 35" fill="none" xmlns="http://www.w3.org/2000/svg">
<path d="M13.4442 24.3899C11.5845 22.6399 10.4906 20.2336 10.4906 17.4992C10.4906 14.7649 11.5845 12.3586 13.3348 10.6086C14.8663 9.07738 14.8663 6.67114 13.3348 5.13989C11.8033 3.60864 9.39662 3.60864 7.86511 5.13989C4.80209 8.31176 2.83301 12.6868 2.83301 17.4992C2.83301 22.3117 4.80209 26.6867 7.9745 29.8586C9.50601 31.3899 11.9127 31.3899 13.4442 29.8586C14.8663 28.3274 14.8663 25.9211 13.4442 24.3899Z" fill="#FAE501"/>
<path d="M13.4445 10.6094C15.1948 8.74998 17.6014 7.65624 20.3363 7.65624C23.0711 7.65624 25.4778 8.74998 27.2281 10.5C28.7596 12.0312 31.1662 12.0312 32.6977 10.5C34.2293 8.96873 34.2293 6.56249 32.6977 5.03124C29.5253 1.96875 25.1496 0 20.3363 0C15.523 0 11.1472 1.96875 7.9748 5.14062C6.44329 6.67186 6.44329 9.07811 7.9748 10.6094C9.50631 12.0312 11.913 12.0312 13.4445 10.6094Z" fill="#4FB5E1"/>
<path d="M27.2281 24.3906C25.4778 26.25 23.0711 27.3437 20.3363 27.3437C17.6014 27.3437 15.1948 26.25 13.4445 24.5C11.913 22.9688 9.50631 22.9688 7.9748 24.5C6.44329 26.0312 6.44329 28.4375 7.9748 29.9687C11.1472 33.0312 15.523 35 20.3363 35C25.1496 35 29.5253 33.0312 32.6977 29.8594C34.2293 28.3281 34.2293 25.9219 32.6977 24.3906C31.1662 22.9688 28.7596 22.9688 27.2281 24.3906Z" fill="#F05751"/>
<path d="M10.7101 11.7038C12.8247 11.7038 14.5389 9.98994 14.5389 7.87573C14.5389 5.76152 12.8247 4.04761 10.7101 4.04761C8.59555 4.04761 6.88135 5.76152 6.88135 7.87573C6.88135 9.98994 8.59555 11.7038 10.7101 11.7038Z" fill="#0681B6"/>
<path d="M10.7101 30.9534C12.8247 30.9534 14.5389 29.2394 14.5389 27.1252C14.5389 25.011 12.8247 23.2971 10.7101 23.2971C8.59555 23.2971 6.88135 25.011 6.88135 27.1252C6.88135 29.2394 8.59555 30.9534 10.7101 30.9534Z" fill="#CD4739"/>
</svg>
