<svg width="36" height="35" viewBox="0 0 36 35" fill="none" xmlns="http://www.w3.org/2000/svg">
<path d="M19.6836 11.643C19.0991 11.0585 18.4789 10.4318 17.9285 9.80664C17.4137 10.3912 16.8698 10.9237 16.3259 11.4677C16.1944 11.5976 16.0872 11.7502 16.0093 11.9174C15.8891 12.1805 15.8501 12.4743 15.8989 12.7601C15.8989 12.7893 15.8989 12.8186 15.8989 12.8478C15.9492 13.0053 16.0239 13.153 16.1213 13.2862C16.1375 13.3089 16.1505 13.3316 16.1619 13.356C16.5191 13.8009 17.3667 14.6192 17.8408 15.0755L20.6497 18.0013L21.4924 18.8911C22.1874 19.612 22.8141 20.3946 23.3645 21.2308C23.4311 21.3461 23.5366 21.4305 23.6633 21.4711H23.7217C23.8581 21.4484 23.9702 21.351 24.014 21.2195C24.1958 20.6317 24.2884 20.0212 24.2884 19.4058C24.2722 17.9819 23.8208 16.5985 22.996 15.4392C22.0234 14.0802 20.9193 12.8218 19.6966 11.6836L19.6836 11.643Z" fill="#0678BE"/>
<path d="M20.4701 21.0635C19.7735 20.2143 19.1013 19.4366 18.0427 18.3081C17.148 19.3326 16.3281 20.1218 15.6494 20.9239C14.4543 22.2179 14.5339 24.2345 15.828 25.4296C17.122 26.6246 19.1386 26.545 20.3337 25.251C21.3485 24.1533 21.4637 22.4972 20.6113 21.2681C20.5691 21.195 20.522 21.1268 20.4701 21.0635Z" fill="#0678BE"/>
<path d="M16.3392 16.9214C16.4172 16.8321 16.4172 16.7006 16.3392 16.6113L14.2739 14.4989L13.829 14.0784C13.4718 14.494 13.1374 14.9292 12.8289 15.3838C12.3288 16.1047 11.9569 16.9068 11.7296 17.7528C11.4812 18.727 11.5039 19.7515 11.7994 20.7127L11.84 20.8004C11.892 20.9043 11.9504 21.0034 12.0154 21.0992C12.0154 21.0992 12.2557 21.4856 12.4651 21.5034H12.5415C12.6129 21.4872 12.6714 21.4369 12.699 21.3687C12.8938 20.9595 13.1374 20.578 13.4247 20.2272L14.1798 19.3082L16.3392 16.9214Z" fill="#0678BE"/>
<path d="M18.0065 1.00938e-06C8.34074 -0.00324635 0.503248 7.82938 0.500001 17.4935C0.496754 27.1576 8.32938 34.9968 17.9935 35C27.6593 35.0033 35.4968 27.1706 35.5 17.5065C35.5 17.5049 35.5 17.5032 35.5 17.5C35.5 7.83749 27.669 0.00324837 18.0065 1.00938e-06ZM17.9058 28.5995C12.8205 28.5865 8.70282 24.464 8.69633 19.3786C8.69633 15.0547 11.5816 12.176 14.1194 9.63166C15.8162 7.93491 17.4366 6.31936 17.9172 4.50084C18.3962 6.32098 20.0182 7.93491 21.715 9.63166C24.2609 12.1776 27.1381 15.0547 27.1381 19.3786C27.1332 24.4721 23.0009 28.5995 17.9058 28.5995Z" fill="#0678BE"/>
</svg>
