<svg width="27" height="35" viewBox="0 0 27 35" fill="none" xmlns="http://www.w3.org/2000/svg">
<path d="M2.98096 4.49219C2.98096 9.18189 5.89351 11.9957 11.7186 13.4767L17.8893 14.9083C23.4182 16.1918 26.775 19.3511 26.775 24.4851C26.8244 26.7066 26.0839 28.8786 24.7511 30.6558C24.7511 25.5218 22.0853 22.7573 15.7172 21.0789L9.64528 19.6967C4.75811 18.6107 1.00635 15.9943 1.00635 10.416C1.00635 8.29332 1.69746 6.17061 2.98096 4.49219Z" fill="#F04939"/>
<path d="M20.9493 23.2017C23.5657 24.8801 24.7504 27.2496 24.7504 30.6559C22.529 33.4697 18.7279 35 14.2356 35C6.68272 35 1.30191 31.2482 0.166504 24.7814H7.4232C8.36114 27.7433 10.8294 29.1255 14.1863 29.1255C18.1848 29.1749 20.8999 27.0028 20.9493 23.2017ZM2.98033 4.44288C5.10303 1.67842 8.75607 0 13.1989 0C20.9493 0 25.3922 4.09732 26.5276 9.8237H19.5177C18.7279 7.55289 16.8026 5.77574 13.2977 5.77574C9.49655 5.82511 6.92955 7.99718 6.78145 11.4528C4.23767 10.0499 2.8816 7.30606 2.98033 4.44288Z" fill="#F37368"/>
</svg>
