<svg width="36" height="35" viewBox="0 0 36 35" fill="none" xmlns="http://www.w3.org/2000/svg">
<path d="M29.622 6.74208C29.594 6.57287 29.4542 6.46007 29.3144 6.46007C29.1746 6.46007 26.7138 6.40366 26.7138 6.40366C26.7138 6.40366 24.6445 4.37316 24.4487 4.17574C24.253 3.97833 23.8335 4.03474 23.6937 4.09114C23.6937 4.09114 23.3022 4.20395 22.6591 4.40136C22.5472 4.03474 22.3794 3.61171 22.1557 3.16049C21.4287 1.75041 20.3381 0.988973 19.0518 0.988973C18.9679 0.988973 18.884 0.988973 18.7722 1.01717C18.7442 0.960772 18.6883 0.93257 18.6603 0.876167C18.101 0.255734 17.374 -0.0262813 16.5071 0.00192019C14.8293 0.0583232 13.1515 1.27099 11.8093 3.44251C10.8585 4.96539 10.1315 6.88309 9.90776 8.37777C7.97828 8.97 6.63603 9.39303 6.60807 9.42123C5.62935 9.73144 5.60139 9.75964 5.48953 10.6903C5.40564 11.3953 2.83301 31.2774 2.83301 31.2774L24.1971 35L33.453 32.6875C33.425 32.6593 29.6499 6.91129 29.622 6.74208ZM21.5965 4.73977C21.0931 4.88078 20.5339 5.07819 19.9466 5.2474C19.9466 4.40136 19.8348 3.18869 19.4433 2.17344C20.7016 2.42725 21.3168 3.86553 21.5965 4.73977ZM18.8001 5.61402C17.6816 5.95244 16.4512 6.34726 15.2208 6.71388C15.5564 5.38841 16.2275 4.06294 17.0105 3.18869C17.3181 2.87847 17.7375 2.51186 18.2129 2.28624C18.7162 3.2733 18.8281 4.65517 18.8001 5.61402ZM16.5351 1.12998C16.9266 1.12998 17.2621 1.21459 17.5418 1.38379C17.0944 1.63761 16.6469 1.97603 16.2275 2.42725C15.1649 3.58351 14.3539 5.38841 14.0184 7.1087C13.0117 7.41892 12.005 7.72914 11.0822 8.01115C11.6695 5.3038 13.9345 1.21459 16.5351 1.12998Z" fill="#95BF47"/>
<path d="M29.3142 6.46C29.1744 6.46 26.7136 6.4036 26.7136 6.4036C26.7136 6.4036 24.6443 4.37309 24.4486 4.17568C24.3647 4.09107 24.2808 4.06287 24.1689 4.03467V34.9717L33.4248 32.6592C33.4248 32.6592 29.6498 6.91122 29.6218 6.71381C29.5939 6.5728 29.454 6.46 29.3142 6.46Z" fill="#5E8E3E"/>
<path d="M19.0237 11.2552L17.9611 15.3163C17.9611 15.3163 16.7586 14.7522 15.3325 14.865C13.2352 15.006 13.2352 16.3315 13.2352 16.6699C13.3471 18.4748 18.0729 18.8697 18.3525 23.1281C18.5483 26.4841 16.5908 28.7684 13.7665 28.9376C10.355 29.1632 8.48145 27.1327 8.48145 27.1327L9.20849 24.0305C9.20849 24.0305 11.082 25.4688 12.5921 25.356C13.5708 25.2996 13.9343 24.4818 13.9064 23.9177C13.7665 21.5488 9.90758 21.6898 9.65591 17.798C9.46017 14.5266 11.5854 11.1988 16.2832 10.9168C18.1009 10.7758 19.0237 11.2552 19.0237 11.2552Z" fill="white"/>
</svg>
