<svg width="36" height="35" viewBox="0 0 36 35" fill="none" xmlns="http://www.w3.org/2000/svg">
<path d="M20.0976 16.135H13.2408V19.3614H19.9332C20.3288 19.3614 20.6916 19.2002 20.9885 18.9424C21.2516 18.6836 21.417 18.2965 21.417 17.8129C21.4262 17.3965 21.2988 16.9886 21.0543 16.6515C20.7902 16.328 20.4932 16.135 20.0976 16.135V16.135ZM20.3288 12.2298C20.6258 12.0368 20.7573 11.6168 20.7573 11.0685C20.7573 10.5848 20.6258 10.2295 20.3946 10.0036C20.1559 9.79844 19.8524 9.68424 19.5376 9.68121H13.2397V12.5852H19.4061C19.7349 12.5852 20.0647 12.4239 20.3288 12.2298V12.2298Z" fill="#0AB3AF"/>
<path d="M31.2329 0H4.37301C3.5171 0 2.83301 0.68197 2.83301 1.50076V28.3129C2.83301 29.1327 3.5171 29.6439 4.33907 29.6439H8.30786V35L13.2354 29.6779H31.2339C32.0548 29.6779 32.5682 29.1667 32.5682 28.3139V1.5347C32.5682 0.715909 32.0548 0.0339394 31.2 0.0339394L31.2318 0H31.2329ZM26.7179 21.7297C26.3653 22.3488 25.8585 22.8662 25.2468 23.2315C24.5966 23.6398 23.8786 24.0164 23.0566 24.1861C22.2357 24.3908 21.3459 24.5615 20.4221 24.5615H8.30786V5.45788H22.0639C22.748 5.45788 23.3292 5.5947 23.8776 5.90121C24.3898 6.17485 24.8692 6.54924 25.2457 6.99364C26.0121 7.9247 26.4243 9.09692 26.4092 10.3027C26.4092 11.1894 26.1695 12.0421 25.7241 12.8609C25.2625 13.685 24.5407 14.3329 23.6718 14.7032C24.7663 15.0097 25.6222 15.5559 26.2713 16.3397C26.8876 17.1585 27.1962 18.217 27.1962 19.547C27.1962 20.3997 27.0244 21.1167 26.6829 21.7297H26.7168H26.7179Z" fill="#0AB3AF"/>
<g clip-path="url(#clip0_2482_28905)">
<path d="M4.54573 0C3.69214 0 3.00928 0.682261 3.00928 1.50097V28.3138C3.00928 29.1326 3.69214 29.6442 4.51158 29.6442H8.47221V35L13.3888 29.6784H31.3482C32.1677 29.6784 32.6798 29.1667 32.6798 28.3138V1.53509C32.6798 0.716374 32.2018 0 31.3482 0H4.54573Z" fill="#0AB3AF"/>
<path d="M22.2271 5.35883C22.9096 5.35883 23.4897 5.49519 24.0356 5.80201C24.5475 6.07473 25.0252 6.44973 25.4006 6.89292C26.165 7.82428 26.5759 8.99535 26.5607 10.1997C26.5607 11.0861 26.3219 11.9384 25.8783 12.7566C25.4184 13.5795 24.6984 14.2269 23.8309 14.5975C24.9228 14.9043 25.7759 15.4497 26.4242 16.2338C27.0384 17.052 27.3456 18.1088 27.3456 19.4384C27.3456 20.2906 27.19 21.05 26.8678 21.6202C26.5266 22.2338 26.0148 22.7452 25.4006 23.1202C24.7522 23.5293 24.0356 23.9043 23.2167 24.0747C22.3977 24.2793 21.5106 24.4497 20.5892 24.4497H8.50977V5.35883H22.2271ZM20.2674 16.0286H13.4286V19.2534H20.103C20.4976 19.2534 20.8592 19.0922 21.1551 18.8342C21.4182 18.5762 21.5826 18.1892 21.5826 17.7055C21.5921 17.2905 21.4653 16.8834 21.2209 16.5445C20.9579 16.222 20.662 16.0286 20.2674 16.0286ZM19.7085 9.57885H13.4286V12.4812H19.5769C19.9057 12.4812 20.2345 12.32 20.4976 12.1265C20.7935 11.933 20.925 11.5138 20.925 10.9655C20.925 10.4818 20.7935 10.1271 20.5633 9.90133C20.3332 9.70784 20.0372 9.57885 19.7085 9.57885Z" fill="white"/>
</g>
<defs>
<clipPath id="clip0_2482_28905">
<rect width="29.717" height="35" fill="white" transform="translate(3.00928)"/>
</clipPath>
</defs>
</svg>
