<svg width="36" height="35" viewBox="0 0 36 35" fill="none" xmlns="http://www.w3.org/2000/svg">
<g clip-path="url(#clip0_3408_52237)">
<path fill-rule="evenodd" clip-rule="evenodd" d="M0.5 17.4996C0.5 7.85024 8.35056 0 17.9996 0C27.6483 0 35.4997 7.85024 35.5 17.4996C35.5 27.15 27.6483 35 17.9996 35C8.35056 35 0.5 27.15 0.5 17.4996ZM1.30239 17.4996C1.30239 26.707 8.79303 34.1979 17.9996 34.1979C27.2058 34.1979 34.6959 26.707 34.6959 17.4996C34.6959 8.29273 27.2058 0.802421 17.9996 0.802421C8.79274 0.802421 1.30239 8.29273 1.30239 17.4996ZM28.1338 16.7416C28.1338 14.8862 27.4674 13.6013 26.8958 12.6012C26.8369 12.5056 26.7783 12.411 26.7203 12.3174C26.0287 11.2014 25.4215 10.2217 25.4215 9.08076C25.4215 7.70074 26.4682 6.41612 27.9424 6.41612C27.9854 6.41612 28.0269 6.41957 28.0683 6.42301C28.0911 6.42491 28.1139 6.4268 28.1369 6.42812C25.4661 3.98115 21.9078 2.48714 17.9995 2.48714C12.7549 2.48714 8.14078 5.17807 5.45652 9.25387C5.80873 9.26444 6.14065 9.27187 6.42259 9.27187C7.99282 9.27187 10.4234 9.08133 10.4234 9.08133C11.2327 9.03363 11.3281 10.2223 10.5197 10.318C10.5197 10.318 9.70644 10.4137 8.8015 10.4611L14.2683 26.7223L17.5536 16.869L15.2147 10.4605C14.4063 10.4131 13.6404 10.3174 13.6404 10.3174C12.8315 10.27 12.9263 9.03306 13.7353 9.08076C13.7353 9.08076 16.2144 9.2713 17.6895 9.2713C19.2595 9.2713 21.6904 9.08076 21.6904 9.08076C22.5002 9.03306 22.5953 10.2217 21.7866 10.3174C21.7866 10.3174 20.9717 10.4131 20.0684 10.4605L25.4935 26.5986L26.9909 21.5947L27.1092 21.2169C27.699 19.3349 28.1338 17.9475 28.1338 16.7416ZM2.98727 17.4995C2.98727 23.4418 6.44051 28.5771 11.448 31.0107L4.28698 11.3898C3.45402 13.2569 2.98727 15.3231 2.98727 17.4995ZM13.7588 31.9011L18.2629 18.8124L22.8779 31.4549C22.9079 31.5292 22.9445 31.5975 22.9847 31.6617C21.4242 32.2105 19.7477 32.5127 17.9995 32.5127C16.5259 32.5127 15.1036 32.2965 13.7588 31.9011ZM31.1723 10.2972C31.2368 10.7754 31.2734 11.2887 31.2734 11.8409C31.2734 13.3644 30.9889 15.0769 30.1319 17.2182L25.5464 30.4766C30.0094 27.8739 33.0113 23.0385 33.0113 17.5001C33.0116 14.8901 32.3449 12.4357 31.1723 10.2972Z" fill="#464342"/>
</g>
<defs>
<clipPath id="clip0_3408_52237">
<rect width="35" height="35" fill="white" transform="translate(0.5)"/>
</clipPath>
</defs>
</svg>
